<mxfile host="app.diagrams.net" modified="2024-05-07T09:50:40.140Z" agent="Mozilla/5.0 (Windows NT 10.0; Win64; x64) AppleWebKit/537.36 (KHTML, like Gecko) Chrome/124.0.0.0 Safari/537.36" etag="OqVVZk_xTeSM7xg6HCdJ" version="24.3.1" type="google">
  <diagram id="prtHgNgQTEPvFCAcTncT" name="Page-1">
    <mxGraphModel grid="1" page="1" gridSize="10" guides="1" tooltips="1" connect="1" arrows="1" fold="1" pageScale="1" pageWidth="827" pageHeight="1169" math="0" shadow="0">
      <root>
        <mxCell id="0" />
        <mxCell id="1" parent="0" />
        <mxCell id="CdcvYIRpf1g7k5c3ap87-74" value="" style="edgeStyle=orthogonalEdgeStyle;rounded=0;orthogonalLoop=1;jettySize=auto;html=1;" edge="1" parent="1" source="CdcvYIRpf1g7k5c3ap87-43" target="CdcvYIRpf1g7k5c3ap87-44">
          <mxGeometry relative="1" as="geometry" />
        </mxCell>
        <mxCell id="CdcvYIRpf1g7k5c3ap87-52" value="" style="group" connectable="0" vertex="1" parent="1">
          <mxGeometry x="664.36" y="-70" width="90" height="63.84000000000003" as="geometry" />
        </mxCell>
        <mxCell id="CdcvYIRpf1g7k5c3ap87-26" value="" style="shape=image;verticalLabelPosition=bottom;labelBackgroundColor=#ffffff;verticalAlign=top;aspect=fixed;imageAspect=0;image=data:image/svg+xml,PHN2ZyB4bWxuczpjYz0iaHR0cDovL2NyZWF0aXZlY29tbW9ucy5vcmcvbnMjIiB4bWxuczpkYz0iaHR0cDovL3B1cmwub3JnL2RjL2VsZW1lbnRzLzEuMS8iIHhtbG5zOmlua3NjYXBlPSJodHRwOi8vd3d3Lmlua3NjYXBlLm9yZy9uYW1lc3BhY2VzL2lua3NjYXBlIiB4bWxuczpyZGY9Imh0dHA6Ly93d3cudzMub3JnLzE5OTkvMDIvMjItcmRmLXN5bnRheC1ucyMiIHhtbG5zOnNvZGlwb2RpPSJodHRwOi8vc29kaXBvZGkuc291cmNlZm9yZ2UubmV0L0RURC9zb2RpcG9kaS0wLmR0ZCIgeG1sbnM6c3ZnPSJodHRwOi8vd3d3LnczLm9yZy8yMDAwL3N2ZyIgeG1sbnM9Imh0dHA6Ly93d3cudzMub3JnLzIwMDAvc3ZnIiB4bWxuczp4bGluaz0iaHR0cDovL3d3dy53My5vcmcvMTk5OS94bGluayIgdmVyc2lvbj0iMS4xIiBpZD0ic3ZnMTI5MzExIiBpbmtzY2FwZTp2ZXJzaW9uPSIwLjkyLjMgKDI0MDU1NDYsIDIwMTgtMDMtMTEpIiBzb2RpcG9kaTpkb2NuYW1lPSJjb250aW51b3VzX3Rlc3Rpbmcuc3ZnIiB4PSIwcHgiIHk9IjBweCIgdmlld0JveD0iMCAwIDQyLjA3IDQ4LjA0IiBzdHlsZT0iZW5hYmxlLWJhY2tncm91bmQ6bmV3IDAgMCA0Mi4wNyA0OC4wNDsiIHhtbDpzcGFjZT0icHJlc2VydmUiPiYjeGE7PHNvZGlwb2RpOm5hbWVkdmlldyBib3JkZXJjb2xvcj0iIzY2NjY2NiIgYm9yZGVyb3BhY2l0eT0iMSIgZml0LW1hcmdpbi1ib3R0b209IjAiIGZpdC1tYXJnaW4tbGVmdD0iMCIgZml0LW1hcmdpbi1yaWdodD0iMCIgZml0LW1hcmdpbi10b3A9IjAiIGdyaWR0b2xlcmFuY2U9IjEwIiBndWlkZXRvbGVyYW5jZT0iMTAiIGlkPSJuYW1lZHZpZXcxMjkzMTMiIGlua3NjYXBlOmN1cnJlbnQtbGF5ZXI9InN2ZzEyOTMxMSIgaW5rc2NhcGU6Y3g9IjQ0LjMyODUzNSIgaW5rc2NhcGU6Y3k9IjIxLjQwNzIyMSIgaW5rc2NhcGU6cGFnZW9wYWNpdHk9IjAiIGlua3NjYXBlOnBhZ2VzaGFkb3c9IjIiIGlua3NjYXBlOndpbmRvdy1oZWlnaHQ9IjEwMTciIGlua3NjYXBlOndpbmRvdy1tYXhpbWl6ZWQ9IjEiIGlua3NjYXBlOndpbmRvdy13aWR0aD0iMTkyMCIgaW5rc2NhcGU6d2luZG93LXg9Ii04IiBpbmtzY2FwZTp3aW5kb3cteT0iLTgiIGlua3NjYXBlOnpvb209IjkuMjgxNzc3OCIgb2JqZWN0dG9sZXJhbmNlPSIxMCIgcGFnZWNvbG9yPSIjZmZmZmZmIiBzaG93Z3JpZD0iZmFsc2UiPiYjeGE7CTwvc29kaXBvZGk6bmFtZWR2aWV3PiYjeGE7PGcgaWQ9InNoYXBlMjUxMy0yIiB0cmFuc2Zvcm09InRyYW5zbGF0ZSgxLjUxODIwMzgsLTIuMjU3NSkiPiYjeGE7CTx0aXRsZSBpZD0idGl0bGUxMjkyNzgiPnBhdGgxMTk8L3RpdGxlPiYjeGE7CTxwYXRoIGlkPSJwYXRoMTI5MjgwIiBpbmtzY2FwZTpjb25uZWN0b3ItY3VydmF0dXJlPSIwIiBzdHlsZT0iZmlsbDojRkZGRkZGOyIgZD0iTTM4LjgzLDM5Ljc2Yy0wLjMyLTAuNTgtMC45My0xLjU4LTEuNy0yLjgzICAgYy0wLjc4LTEuMjUtMS43Ny0yLjg2LTIuODEtNC41Yy0xLjMtMi4wNS0yLjY4LTQuMjMtMy45LTYuMTVjLTEuNS0yLjM3LTIuNzgtNC4zNi0zLjQtNS4zVjcuNTFjMCwwLDEuNS0xLjUsMS41LTMgICBjMC0wLjc1LTAuNzUtMS41LTIuMjUtMS41aC0xMy41Yy0xLjUsMC0yLjI1LDAuNzUtMi4yNSwxLjVjMCwxLjUsMS41LDMsMS41LDN2MTMuNWMtMC42MywwLjk0LTEuOSwyLjkzLTMuNDEsNS4zICAgYy0xLjIyLDEuOTItMi42LDQuMS0zLjksNi4xNWMtMS4wMywxLjY0LTIuMDEsMy4yMS0yLjgsNC41Yy0wLjgsMS4yOS0xLjM4LDIuMjUtMS43MSwyLjgzYy0xLjg3LDIuOTctMC45OCw2LjksMS45OSw4Ljc3ICAgYzEsMC42MywyLjE1LDAuOTcsMy4zMywwLjk4aDI3Ljk5YzMuNTEtMC4wMyw2LjMzLTIuOTEsNi4zLTYuNDJjLTAuMDEtMS4xOC0wLjM1LTIuMzMtMC45OC0zLjMzVjM5Ljc2eiIvPiYjeGE7PC9nPiYjeGE7PGcgaWQ9InNoYXBlMjUxNC00IiB0cmFuc2Zvcm09InRyYW5zbGF0ZSgxLjg2OTkzMzgsLTIuMjg3NSkiPiYjeGE7CTx0aXRsZSBpZD0idGl0bGUxMjkyODMiPnBhdGgxMjE8L3RpdGxlPiYjeGE7CTxwYXRoIGlkPSJwYXRoMTI5Mjg1IiBpbmtzY2FwZTpjb25uZWN0b3ItY3VydmF0dXJlPSIwIiBzdHlsZT0iZmlsbDojNTVEMkY2OyIgZD0iTTM4LjMyLDQ2LjI0Yy0xLjAyLDEuOTMtMi45OCwzLjE5LTUuMTYsMy4zSDUuMTcgICBjLTMuNDMtMC4xOS02LjA3LTMuMTItNS44OC02LjU1YzAuMDYtMS4wMiwwLjM2LTIuMDEsMC44OS0yLjg5YzAuNTQtMC45OCwxLTIsMS4zNy0zLjA2YzAuOC0xLjI5LDEuNzctMi45MSwyLjgxLTQuNTYgICBjMS4zLTIuMDQsMi42OC0zLjk0LDMuOS02LjE5aDIxLjgxYzEuMjIsMi4yNSwyLjYsNC4xMiwzLjksNi4xN2MxLjAzLDEuNjQsMi4wMSwzLjIzLDIuOCw0LjVjMC4zNywxLjA3LDAuODQsMi4xMSwxLjM4LDMuMTEgICBDMzkuMyw0MS45NSwzOS4zNyw0NC4zLDM4LjMyLDQ2LjI0eiIvPiYjeGE7PC9nPiYjeGE7PGcgaWQ9InNoYXBlMjUxNS02IiB0cmFuc2Zvcm09InRyYW5zbGF0ZSgxLjUyNTcwMzgsLTIuMjUpIj4mI3hhOwk8dGl0bGUgaWQ9InRpdGxlMTI5Mjg4Ij5wYXRoMTIzPC90aXRsZT4mI3hhOwkmI3hhOwkJPHBhdGggaWQ9InBhdGgxMjkyOTAiIGlua3NjYXBlOmNvbm5lY3Rvci1jdXJ2YXR1cmU9IjAiIHN0eWxlPSJmaWxsOm5vbmU7c3Ryb2tlOiM1NTZBOEE7c3Ryb2tlLXdpZHRoOjEuNTtzdHJva2UtbWl0ZXJsaW1pdDozOyIgZD0iICAgTTM4LjgyLDM5Ljc1Yy0wLjY2LTEuMTgtMi40Ny00LjEtNC41LTcuMzNjLTIuOS00LjU2LTYuMTktOS43MS03LjMxLTExLjQyVjcuNWMwLDAsMS41LTEuNSwxLjUtM2MwLTAuNzUtMC43NS0xLjUtMi4yNS0xLjVoLTEzLjUgICBjLTEuNSwwLTIuMjUsMC43NS0yLjI1LDEuNWMwLDEuNSwxLjUsMywxLjUsM1YyMWMtMS4xMywxLjcxLTQuNDEsNi44Ni03LjMxLDExLjQ1Yy0yLjAzLDMuMjQtMy44NCw2LjE1LTQuNSw3LjM0ICAgYy0xLjg3LDIuOTctMC45OCw2LjksMS45OSw4Ljc3YzEsMC42MywyLjE1LDAuOTcsMy4zMywwLjk4SDMzLjVjMy41MS0wLjAzLDYuMzMtMi45MSw2LjMtNi40MmMtMC4wMS0xLjE4LTAuMzUtMi4zMy0wLjk4LTMuMzMgICBWMzkuNzV6Ii8+JiN4YTs8L2c+JiN4YTs8ZyBpZD0ic2hhcGUyNTE2LTgiIHRyYW5zZm9ybT0idHJhbnNsYXRlKDE0LjI4MzI2NCwtNDUuNzg3NSkiPiYjeGE7CTx0aXRsZSBpZD0idGl0bGUxMjkyOTMiPnBhdGgxMjU8L3RpdGxlPiYjeGE7CTxwYXRoIGlkPSJwYXRoMTI5Mjk1IiBpbmtzY2FwZTpjb25uZWN0b3ItY3VydmF0dXJlPSIwIiBzdHlsZT0iZmlsbDojRTVFNUU1OyIgZD0iTTEyLjc1LDQ5LjU0aC0xMkMwLjM0LDQ5LjU0LDAsNDkuMiwwLDQ4Ljc5ICAgczAuMzQtMC43NSwwLjc1LTAuNzVoMTJjMC40MSwwLDAuNzUsMC4zNCwwLjc1LDAuNzVTMTMuMTYsNDkuNTQsMTIuNzUsNDkuNTR6Ii8+JiN4YTs8L2c+JiN4YTs8ZyBpZD0ic2hhcGUyNTE3LTEwIiB0cmFuc2Zvcm09InRyYW5zbGF0ZSgtMi45NjY3MzYyLC0xLjUzNzUpIj4mI3hhOwk8dGl0bGUgaWQ9InRpdGxlMTI5Mjk4Ij5yZWN0MTI3PC90aXRsZT4mI3hhOwk8cmVjdCBpZD0icmVjdDEyOTMwMCIgeD0iMCIgeT0iMS41NCIgc3R5bGU9ImZpbGw6bm9uZTsiIHdpZHRoPSI0OCIgaGVpZ2h0PSI0OCIvPiYjeGE7PC9nPiYjeGE7PGcgaWQ9InNoYXBlMjUxOC0xMiIgdHJhbnNmb3JtPSJ0cmFuc2xhdGUoOS4wODE5NjM4LC03LjUzNzUpIj4mI3hhOwk8dGl0bGUgaWQ9InRpdGxlMTI5MzAzIj5wYXRoMTI5PC90aXRsZT4mI3hhOwk8cGF0aCBpZD0icGF0aDEyOTMwNSIgaW5rc2NhcGU6Y29ubmVjdG9yLWN1cnZhdHVyZT0iMCIgc3R5bGU9ImZpbGw6IzU1NkE4QTsiIGQ9Ik0xOC43LDM4Ljk5Yy0xLjI1LTAuMDYtMi40NywwLjM3LTMuMzksMS4yMSAgIGwtMy4yNSwyLjg5bC0yLjc2LTIuNGMtMS4wOS0xLjAzLTIuNTItMS42My00LjAyLTEuN2MtMi45MS0wLjA2LTUuMzMsMi4yNS01LjM5LDUuMTZjLTAuMDYsMi45MSwyLjI1LDUuMzMsNS4xNiw1LjM5ICAgYzAuMDgsMCwwLjE1LDAsMC4yMywwYzEuNTQtMC4wNSwzLjAxLTAuNjgsNC4xMS0xLjc1bDIuNjctMi4zNmwzLjA1LDIuNjdjMi4xMywxLjk3LDUuNDUsMS44Myw3LjQyLTAuMyAgIGMxLjk3LTIuMTMsMS44My01LjQ1LTAuMy03LjQyQzIxLjI3LDM5LjQ5LDIwLjAxLDM5LDE4LjcsMzguOTl6IE04LjIsNDYuNDljLTAuNzksMC43OS0xLjg1LDEuMjYtMi45NiwxLjMxICAgYy0xLjk1LDAuMDUtMy41OC0xLjQ5LTMuNjMtMy40NGMtMC4wNS0xLjk1LDEuNDktMy41OCwzLjQ0LTMuNjNjMC4wNiwwLDAuMTMsMCwwLjE5LDBjMS4wOCwwLjA3LDIuMSwwLjUxLDIuODksMS4yNmwyLjU4LDIuMjUgICBMOC4yLDQ2LjQ5eiBNMTguNyw0Ny44Yy0wLjksMC0xLjc3LTAuMzUtMi40My0wLjk3bC0yLjktMi41NGwzLjE0LTIuNzdjMC42LTAuNTQsMS40LTAuODEsMi4yLTAuNzVjMS45NS0wLjA1LDMuNTgsMS40OSwzLjYzLDMuNDQgICBjMC4wNSwxLjk1LTEuNDksMy41OC0zLjQ0LDMuNjNjLTAuMDYsMC0wLjEzLDAtMC4xOSwwTDE4LjcsNDcuOHoiLz4mI3hhOzwvZz4mI3hhOzwvc3ZnPg==;" vertex="1" parent="CdcvYIRpf1g7k5c3ap87-52">
          <mxGeometry x="25.819999999999993" width="38.36" height="43.84" as="geometry" />
        </mxCell>
        <mxCell id="CdcvYIRpf1g7k5c3ap87-44" value="&lt;span style=&quot;color: rgb(0, 0, 0); font-family: Helvetica; font-size: 12px; font-style: normal; font-variant-ligatures: normal; font-variant-caps: normal; font-weight: 400; letter-spacing: normal; orphans: 2; text-align: left; text-indent: 0px; text-transform: none; widows: 2; word-spacing: 0px; -webkit-text-stroke-width: 0px; white-space: normal; background-color: rgb(251, 251, 251); text-decoration-thickness: initial; text-decoration-style: initial; text-decoration-color: initial; display: inline !important; float: none;&quot;&gt;Evaluar modelo&lt;/span&gt;" style="text;whiteSpace=wrap;html=1;" vertex="1" parent="CdcvYIRpf1g7k5c3ap87-52">
          <mxGeometry y="43.84000000000003" width="90" height="20" as="geometry" />
        </mxCell>
        <mxCell id="CdcvYIRpf1g7k5c3ap87-54" value="" style="group" connectable="0" vertex="1" parent="1">
          <mxGeometry x="280" y="-177.57999999999998" width="60" height="74.57999999999997" as="geometry" />
        </mxCell>
        <mxCell id="CdcvYIRpf1g7k5c3ap87-8" value="" style="shape=image;verticalLabelPosition=bottom;labelBackgroundColor=#ffffff;verticalAlign=top;aspect=fixed;imageAspect=0;image=data:image/svg+xml,PHN2ZyB4bWxuczpjYz0iaHR0cDovL2NyZWF0aXZlY29tbW9ucy5vcmcvbnMjIiB4bWxuczpkYz0iaHR0cDovL3B1cmwub3JnL2RjL2VsZW1lbnRzLzEuMS8iIHhtbG5zOmlua3NjYXBlPSJodHRwOi8vd3d3Lmlua3NjYXBlLm9yZy9uYW1lc3BhY2VzL2lua3NjYXBlIiB4bWxuczpyZGY9Imh0dHA6Ly93d3cudzMub3JnLzE5OTkvMDIvMjItcmRmLXN5bnRheC1ucyMiIHhtbG5zOnNvZGlwb2RpPSJodHRwOi8vc29kaXBvZGkuc291cmNlZm9yZ2UubmV0L0RURC9zb2RpcG9kaS0wLmR0ZCIgeG1sbnM6c3ZnPSJodHRwOi8vd3d3LnczLm9yZy8yMDAwL3N2ZyIgeG1sbnM9Imh0dHA6Ly93d3cudzMub3JnLzIwMDAvc3ZnIiB4bWxuczp4bGluaz0iaHR0cDovL3d3dy53My5vcmcvMTk5OS94bGluayIgdmVyc2lvbj0iMS4xIiBpZD0ic3ZnNDUzNjgiIGlua3NjYXBlOnZlcnNpb249IjAuOTIuMyAoMjQwNTU0NiwgMjAxOC0wMy0xMSkiIHNvZGlwb2RpOmRvY25hbWU9ImRhdGEuc3ZnIiB4PSIwcHgiIHk9IjBweCIgdmlld0JveD0iMCAwIDMxLjIyIDI4Ljg0IiBzdHlsZT0iZW5hYmxlLWJhY2tncm91bmQ6bmV3IDAgMCAzMS4yMiAyOC44NDsiIHhtbDpzcGFjZT0icHJlc2VydmUiPiYjeGE7PHNvZGlwb2RpOm5hbWVkdmlldyBib3JkZXJjb2xvcj0iIzY2NjY2NiIgYm9yZGVyb3BhY2l0eT0iMSIgZml0LW1hcmdpbi1ib3R0b209IjAiIGZpdC1tYXJnaW4tbGVmdD0iMCIgZml0LW1hcmdpbi1yaWdodD0iMCIgZml0LW1hcmdpbi10b3A9IjAiIGdyaWR0b2xlcmFuY2U9IjEwIiBndWlkZXRvbGVyYW5jZT0iMTAiIGlkPSJuYW1lZHZpZXc0NTM3MCIgaW5rc2NhcGU6Y3VycmVudC1sYXllcj0ic3ZnNDUzNjgiIGlua3NjYXBlOmN4PSIyMC4yMTE1ODciIGlua3NjYXBlOmN5PSIzLjg1NTU0MzYiIGlua3NjYXBlOnBhZ2VvcGFjaXR5PSIwIiBpbmtzY2FwZTpwYWdlc2hhZG93PSIyIiBpbmtzY2FwZTp3aW5kb3ctaGVpZ2h0PSIxMDE3IiBpbmtzY2FwZTp3aW5kb3ctbWF4aW1pemVkPSIxIiBpbmtzY2FwZTp3aW5kb3ctd2lkdGg9IjE5MjAiIGlua3NjYXBlOndpbmRvdy14PSItOCIgaW5rc2NhcGU6d2luZG93LXk9Ii04IiBpbmtzY2FwZTp6b29tPSI3Ljk3MDQzNzkiIG9iamVjdHRvbGVyYW5jZT0iMTAiIHBhZ2Vjb2xvcj0iI2ZmZmZmZiIgc2hvd2dyaWQ9ImZhbHNlIj4mI3hhOwk8L3NvZGlwb2RpOm5hbWVkdmlldz4mI3hhOzxnIGlkPSJnNDUzNjYiIHRyYW5zZm9ybT0idHJhbnNsYXRlKC0yLjY2NjI5MzllLTUsMC4wMDIzKSI+JiN4YTsJPHRpdGxlIGlkPSJ0aXRsZTQ1Mjg2Ij5QYWdlLTE8L3RpdGxlPiYjeGE7CTxnIGlkPSJncm91cDU5NS0xIj4mI3hhOwkJPHRpdGxlIGlkPSJ0aXRsZTQ1Mjg4Ij5EYXRhPC90aXRsZT4mI3hhOwkJPGcgaWQ9InNoYXBlNTk2LTIiIHRyYW5zZm9ybT0idHJhbnNsYXRlKDEzLjYwODkpIj4mI3hhOwkJCTx0aXRsZSBpZD0idGl0bGU0NTI5MCI+U2hlZXQuNTk2PC90aXRsZT4mI3hhOwkJCTxwYXRoIGlkPSJwYXRoNDUyOTIiIGlua3NjYXBlOmNvbm5lY3Rvci1jdXJ2YXR1cmU9IjAiIHN0eWxlPSJmaWxsOiM5OTZEQUQ7IiBkPSJNMS4yLDIxLjg4Yy0wLjM1LDAuMi0wLjc1LDAuMzUtMS4yLDAuNDggICAgIGMwLDEuMzgsMCwxLjM4LDAsMS4zOGMwLjE1LTAuMDMsMC4zLTAuMDUsMC40NS0wLjFjMC4xNS0wLjAzLDAuMy0wLjA4LDAuNDMtMC4xM2MwLjEyLTAuMDUsMC4yNy0wLjE1LDAuNC0wLjIgICAgIGMwLjEtMC4wNywwLjIyLTAuMTUsMC4zMi0wLjJjMCw1LjczLDAsNS43MywwLDUuNzNjMS42LDAsMS42LDAsMS42LDBjMC03LjYxLDAtNy42MSwwLTcuNjFjLTAuOTUsMC0wLjk1LDAtMC45NSwwICAgICBDMS45MywyMS40NiwxLjYsMjEuNjgsMS4yLDIxLjg4eiIvPiYjeGE7CQk8L2c+JiN4YTsJCTxnIGlkPSJzaGFwZTU5Ny00IiB0cmFuc2Zvcm09InRyYW5zbGF0ZSgwLC0xMC40MTU4KSI+JiN4YTsJCQk8dGl0bGUgaWQ9InRpdGxlNDUyOTUiPlNoZWV0LjU5NzwvdGl0bGU+JiN4YTsJCQk8cGF0aCBpZD0icGF0aDQ1Mjk3IiBpbmtzY2FwZTpjb25uZWN0b3ItY3VydmF0dXJlPSIwIiBzdHlsZT0iZmlsbDojNTU2QThBOyIgZD0iTTIuOTMsMjAuODNjLTAuOTUsMC0xLjY4LDAuMzgtMi4xOCwxLjA4ICAgICBDMC4yMywyMi42MSwwLDIzLjY0LDAsMjQuOTljMCwyLjU4LDAuOSwzLjg1LDIuNzUsMy44NWMwLjkzLDAsMS42My0wLjMyLDIuMTMtMS4wMmMwLjQ3LTAuNywwLjcyLTEuNzEsMC43Mi0zLjAzICAgICBDNS42LDIyLjE2LDQuNzMsMjAuODMsMi45MywyMC44M3ogTTIuOCwyNy41N2MtMC43MiwwLTEuMDUtMC45LTEuMDUtMi42M2MwLTEuODUsMC4zNS0yLjc4LDEuMS0yLjc4YzAuNywwLDEuMDMsMC45LDEuMDMsMi42OCAgICAgQzMuODgsMjYuNjQsMy41NSwyNy41NywyLjgsMjcuNTd6Ii8+JiN4YTsJCTwvZz4mI3hhOwkJPGcgaWQ9InNoYXBlNTk4LTYiIHRyYW5zZm9ybT0idHJhbnNsYXRlKDcuNjA1LC0xMC44MTY1KSI+JiN4YTsJCQk8dGl0bGUgaWQ9InRpdGxlNDUzMDAiPlNoZWV0LjU5ODwvdGl0bGU+JiN4YTsJCQk8cGF0aCBpZD0icGF0aDQ1MzAyIiBpbmtzY2FwZTpjb25uZWN0b3ItY3VydmF0dXJlPSIwIiBzdHlsZT0iZmlsbDojOTk2REFEOyIgZD0iTTMuMiwyOC44NGMwLTcuNjEsMC03LjYxLDAtNy42MSAgICAgYy0wLjk3LDAtMC45NywwLTAuOTcsMGMtMC4zLDAuMjMtMC42NSwwLjQ1LTEuMDMsMC42M2MtMC4zNSwwLjIyLTAuNzUsMC4zNS0xLjIsMC41YzAsMS4zOCwwLDEuMzgsMCwxLjM4ICAgICBjMC4xOCwwLDAuMy0wLjAzLDAuNDgtMC4xYzAuMTItMC4wMywwLjI3LTAuMDgsMC40Mi0wLjEzYzAuMTMtMC4wNSwwLjI1LTAuMTIsMC4zOC0wLjJjMC4xMi0wLjA3LDAuMjItMC4xNSwwLjMtMC4yMiAgICAgYzAsNS43NSwwLDUuNzUsMCw1Ljc1TDMuMiwyOC44NHoiLz4mI3hhOwkJPC9nPiYjeGE7CQk8ZyBpZD0ic2hhcGU1OTktOCIgdHJhbnNmb3JtPSJ0cmFuc2xhdGUoNi44MDQ0NywtMjEuMjMyMykiPiYjeGE7CQkJPHRpdGxlIGlkPSJ0aXRsZTQ1MzA1Ij5TaGVldC41OTk8L3RpdGxlPiYjeGE7CQkJPHBhdGggaWQ9InBhdGg0NTMwNyIgaW5rc2NhcGU6Y29ubmVjdG9yLWN1cnZhdHVyZT0iMCIgc3R5bGU9ImZpbGw6IzU1NkE4QTsiIGQ9Ik0yLjcsMjEuMjNjLTAuODcsMC0xLjU1LDAuMzUtMiwxLjAzICAgICBDMC4yNSwyMi45MSwwLDIzLjg5LDAsMjUuMTZjMCwyLjQ4LDAuODgsMy42OCwyLjU4LDMuNjhjMC44MiwwLDEuNS0wLjMsMS45NS0wLjk3YzAuNDUtMC42NSwwLjY3LTEuNjMsMC42Ny0yLjg4ICAgICBDNS4yLDIyLjQ4LDQuMzUsMjEuMjMsMi43LDIxLjIzeiBNMi42MywyNy42MmMtMC42OCwwLTEtMC44My0xLTIuNDhjMC0xLjc1LDAuMzItMi42OCwxLTIuNjhjMC42NSwwLDAuOTUsMC44OCwwLjk1LDIuNTggICAgIFMzLjI4LDI3LjYyLDIuNjMsMjcuNjJ6Ii8+JiN4YTsJCTwvZz4mI3hhOwkJPGcgaWQ9InNoYXBlNjAwLTEwIiB0cmFuc2Zvcm09InRyYW5zbGF0ZSgyNi40MTc0LC0yMS4yMzIzKSI+JiN4YTsJCQk8dGl0bGUgaWQ9InRpdGxlNDUzMTAiPlNoZWV0LjYwMDwvdGl0bGU+JiN4YTsJCQk8cGF0aCBpZD0icGF0aDQ1MzEyIiBpbmtzY2FwZTpjb25uZWN0b3ItY3VydmF0dXJlPSIwIiBzdHlsZT0iZmlsbDojOTk2REFEOyIgZD0iTTAuODgsMjMuNTRjMC4xMi0wLjA4LDAuMjctMC4xNSwwLjQtMC4yMyAgICAgYzAuMS0wLjA1LDAuMjItMC4xMiwwLjMyLTAuMmMwLDUuNzMsMCw1LjczLDAsNS43M2MxLjYsMCwxLjYsMCwxLjYsMGMwLTcuNjEsMC03LjYxLDAtNy42MWMtMC45NywwLTAuOTcsMC0wLjk3LDAgICAgIGMtMC4zLDAuMjUtMC42NSwwLjQ4LTEuMDMsMC42NWMtMC4zNywwLjItMC43NSwwLjM1LTEuMiwwLjVjMCwxLjM2LDAsMS4zNiwwLDEuMzZjMC4xNSwwLDAuMy0wLjAzLDAuNDUtMC4wOCAgICAgQzAuNiwyMy42NCwwLjc1LDIzLjU5LDAuODgsMjMuNTR6Ii8+JiN4YTsJCTwvZz4mI3hhOwkJPGcgaWQ9InNoYXBlNjAxLTEyIj4mI3hhOwkJCTx0aXRsZSBpZD0idGl0bGU0NTMxNSI+U2hlZXQuNjAxPC90aXRsZT4mI3hhOwkJCTxwYXRoIGlkPSJwYXRoNDUzMTciIGlua3NjYXBlOmNvbm5lY3Rvci1jdXJ2YXR1cmU9IjAiIHN0eWxlPSJmaWxsOiM1NTZBOEE7IiBkPSJNMi45MywyMS4yM2MtMC45NSwwLTEuNjgsMC4zNS0yLjE4LDEuMDMgICAgIEMwLjIzLDIyLjkxLDAsMjMuOTEsMCwyNS4xOWMwLDIuNDUsMC45LDMuNjUsMi43NSwzLjY1YzAuOTMsMCwxLjYzLTAuMywyLjEzLTAuOTdjMC40Ny0wLjY1LDAuNzItMS42MywwLjcyLTIuODggICAgIEM1LjYsMjIuNDgsNC43MywyMS4yMywyLjkzLDIxLjIzeiBNMi44LDI3LjY0Yy0wLjcyLDAtMS4wNS0wLjgyLTEuMDUtMi41YzAtMS43NSwwLjM1LTIuNjYsMS4xLTIuNjZjMC43LDAsMS4wMywwLjg2LDEuMDMsMi41NiAgICAgQzMuODgsMjYuNzksMy41NSwyNy42NCwyLjgsMjcuNjR6Ii8+JiN4YTsJCTwvZz4mI3hhOwkJPGcgaWQ9InNoYXBlNjAyLTE0IiB0cmFuc2Zvcm09InRyYW5zbGF0ZSgxMy42MDg5LC0yMS4yMzIzKSI+JiN4YTsJCQk8dGl0bGUgaWQ9InRpdGxlNDUzMjAiPlNoZWV0LjYwMjwvdGl0bGU+JiN4YTsJCQk8cGF0aCBpZD0icGF0aDQ1MzIyIiBpbmtzY2FwZTpjb25uZWN0b3ItY3VydmF0dXJlPSIwIiBzdHlsZT0iZmlsbDojOTk2REFEOyIgZD0iTTAuODgsMjMuNTRjMC4xMi0wLjA4LDAuMjctMC4xNSwwLjQtMC4yMyAgICAgYzAuMS0wLjA1LDAuMjItMC4xMiwwLjMyLTAuMmMwLDUuNzMsMCw1LjczLDAsNS43M2MxLjYsMCwxLjYsMCwxLjYsMGMwLTcuNjEsMC03LjYxLDAtNy42MWMtMC45NSwwLTAuOTUsMC0wLjk1LDAgICAgIGMtMC4zMiwwLjI1LTAuNjUsMC40OC0xLjA1LDAuNjVjLTAuMzUsMC4yLTAuNzUsMC4zNS0xLjIsMC41YzAsMS4zNiwwLDEuMzYsMCwxLjM2YzAuMTUsMCwwLjMtMC4wMywwLjQ1LTAuMDggICAgIEMwLjYsMjMuNjQsMC43NSwyMy41OSwwLjg4LDIzLjU0eiIvPiYjeGE7CQk8L2c+JiN4YTsJCTxnIGlkPSJzaGFwZTYwMy0xNiIgdHJhbnNmb3JtPSJ0cmFuc2xhdGUoMjUuNjE2OCwtMTAuNDE1OCkiPiYjeGE7CQkJPHRpdGxlIGlkPSJ0aXRsZTQ1MzI1Ij5TaGVldC42MDM8L3RpdGxlPiYjeGE7CQkJPHBhdGggaWQ9InBhdGg0NTMyNyIgaW5rc2NhcGU6Y29ubmVjdG9yLWN1cnZhdHVyZT0iMCIgc3R5bGU9ImZpbGw6IzU1NkE4QTsiIGQ9Ik0yLjc4LDI4Ljg0YzAuOTIsMCwxLjYtMC4zMiwyLjA3LTEuMDIgICAgIGMwLjUtMC43LDAuNzUtMS43MSwwLjc1LTMuMDNjMC0yLjYzLTAuODctMy45Ni0yLjctMy45NmMtMC45NSwwLTEuNjIsMC4zOC0yLjEyLDEuMDhDMC4yNSwyMi42MSwwLDIzLjY0LDAsMjQuOTkgICAgIEMwLDI3LjU3LDAuOTMsMjguODQsMi43OCwyOC44NHogTTIuODUsMjIuMTZjMC42OCwwLDEuMDMsMC45LDEuMDMsMi42OGMwLDEuOC0wLjM1LDIuNzMtMS4wNSwyLjczYy0wLjczLDAtMS4wOC0wLjktMS4wOC0yLjYzICAgICBDMS43NSwyMy4wOSwyLjEsMjIuMTYsMi44NSwyMi4xNnoiLz4mI3hhOwkJPC9nPiYjeGE7CQk8ZyBpZD0ic2hhcGU2MDQtMTgiIHRyYW5zZm9ybT0idHJhbnNsYXRlKDAuODAwNTI2LC0yMS4yMzIzKSI+JiN4YTsJCQk8dGl0bGUgaWQ9InRpdGxlNDUzMzAiPlNoZWV0LjYwNDwvdGl0bGU+JiN4YTsJCQk8cGF0aCBpZD0icGF0aDQ1MzMyIiBpbmtzY2FwZTpjb25uZWN0b3ItY3VydmF0dXJlPSIwIiBzdHlsZT0iZmlsbDojOTk2REFEOyIgZD0iTTAuOSwyMy41NGMwLjEzLTAuMDgsMC4yNS0wLjE1LDAuMzgtMC4yMyAgICAgYzAuMTItMC4wNSwwLjIyLTAuMTIsMC4zLTAuMmMwLDUuNzMsMCw1LjczLDAsNS43M2MxLjYyLDAsMS42MiwwLDEuNjIsMGMwLTcuNjEsMC03LjYxLDAtNy42MWMtMC45NywwLTAuOTcsMC0wLjk3LDAgICAgIGMtMC4zLDAuMjUtMC42NSwwLjQ4LTEuMDMsMC42NWMtMC4zNSwwLjItMC43NSwwLjM1LTEuMiwwLjVjMCwxLjM2LDAsMS4zNiwwLDEuMzZjMC4xOCwwLDAuMy0wLjAzLDAuNDgtMC4wOCAgICAgQzAuNiwyMy42NCwwLjczLDIzLjU5LDAuOSwyMy41NHoiLz4mI3hhOwkJPC9nPiYjeGE7CQk8ZyBpZD0ic2hhcGU2MDUtMjAiIHRyYW5zZm9ybT0idHJhbnNsYXRlKDYuODA0NDcpIj4mI3hhOwkJCTx0aXRsZSBpZD0idGl0bGU0NTMzNSI+U2hlZXQuNjA1PC90aXRsZT4mI3hhOwkJCTxwYXRoIGlkPSJwYXRoNDUzMzciIGlua3NjYXBlOmNvbm5lY3Rvci1jdXJ2YXR1cmU9IjAiIHN0eWxlPSJmaWxsOiM1NTZBOEE7IiBkPSJNMi43LDIxLjIzYy0wLjg3LDAtMS41NSwwLjM1LTIsMS4wMyAgICAgQzAuMjUsMjIuOTEsMCwyMy45MSwwLDI1LjE5YzAsMi40NSwwLjg4LDMuNjUsMi41OCwzLjY1YzAuODIsMCwxLjUtMC4zLDEuOTUtMC45N2MwLjQ1LTAuNjUsMC42Ny0xLjYzLDAuNjctMi44OCAgICAgQzUuMiwyMi40OCw0LjM1LDIxLjIzLDIuNywyMS4yM3ogTTIuNjMsMjcuNjRjLTAuNjgsMC0xLTAuODItMS0yLjVjMC0xLjc1LDAuMzItMi42NiwxLTIuNjZjMC42NSwwLDAuOTUsMC44NiwwLjk1LDIuNTYgICAgIEMzLjU4LDI2Ljc5LDMuMjgsMjcuNjQsMi42MywyNy42NHoiLz4mI3hhOwkJPC9nPiYjeGE7CQk8ZyBpZD0ic2hhcGU2MDYtMjIiIHRyYW5zZm9ybT0idHJhbnNsYXRlKDIwLjAxMzIsLTEwLjgxNjUpIj4mI3hhOwkJCTx0aXRsZSBpZD0idGl0bGU0NTM0MCI+U2hlZXQuNjA2PC90aXRsZT4mI3hhOwkJCTxwYXRoIGlkPSJwYXRoNDUzNDIiIGlua3NjYXBlOmNvbm5lY3Rvci1jdXJ2YXR1cmU9IjAiIHN0eWxlPSJmaWxsOiM5OTZEQUQ7IiBkPSJNMy4yLDI4Ljg0YzAtNy42MSwwLTcuNjEsMC03LjYxICAgICBjLTAuOTcsMC0wLjk3LDAtMC45NywwYy0wLjMsMC4yMy0wLjY1LDAuNDUtMS4wMywwLjYzYy0wLjM1LDAuMjItMC43NSwwLjM1LTEuMiwwLjVjMCwxLjM4LDAsMS4zOCwwLDEuMzggICAgIGMwLjE4LDAsMC4zLTAuMDMsMC40OC0wLjFjMC4xMi0wLjAzLDAuMjctMC4wOCwwLjQyLTAuMTNjMC4xMy0wLjA1LDAuMjUtMC4xMiwwLjM4LTAuMmMwLjEyLTAuMDcsMC4yMi0wLjE1LDAuMy0wLjIyICAgICBjMCw1Ljc1LDAsNS43NSwwLDUuNzVMMy4yLDI4Ljg0eiIvPiYjeGE7CQk8L2c+JiN4YTsJCTxnIGlkPSJzaGFwZTYwNy0yNCIgdHJhbnNmb3JtPSJ0cmFuc2xhdGUoMTkuMjEyNikiPiYjeGE7CQkJPHRpdGxlIGlkPSJ0aXRsZTQ1MzQ1Ij5TaGVldC42MDc8L3RpdGxlPiYjeGE7CQkJPHBhdGggaWQ9InBhdGg0NTM0NyIgaW5rc2NhcGU6Y29ubmVjdG9yLWN1cnZhdHVyZT0iMCIgc3R5bGU9ImZpbGw6IzU1NkE4QTsiIGQ9Ik0yLjksMjEuMjNjLTAuOTUsMC0xLjY1LDAuMzUtMi4xMiwxLjAzICAgICBDMC4yNSwyMi45MSwwLDIzLjkxLDAsMjUuMTljMCwyLjQ1LDAuOTMsMy42NSwyLjc4LDMuNjVjMC44NywwLDEuNi0wLjMsMi4wNy0wLjk3YzAuNS0wLjY1LDAuNzUtMS42MywwLjc1LTIuODggICAgIEM1LjYsMjIuNDgsNC43LDIxLjIzLDIuOSwyMS4yM3ogTTIuOCwyNy42NGMtMC43LDAtMS4wNS0wLjgyLTEuMDUtMi41YzAtMS43NSwwLjM1LTIuNjYsMS4wOC0yLjY2YzAuNywwLDEuMDIsMC44NiwxLjAyLDIuNTYgICAgIEMzLjg1LDI2Ljc5LDMuNTMsMjcuNjQsMi44LDI3LjY0eiIvPiYjeGE7CQk8L2c+JiN4YTsJCTxnIGlkPSJzaGFwZTYwOC0yNiIgdHJhbnNmb3JtPSJ0cmFuc2xhdGUoMTkuMjEyNiwtMjEuMjMyMykiPiYjeGE7CQkJPHRpdGxlIGlkPSJ0aXRsZTQ1MzUwIj5TaGVldC42MDg8L3RpdGxlPiYjeGE7CQkJPHBhdGggaWQ9InBhdGg0NTM1MiIgaW5rc2NhcGU6Y29ubmVjdG9yLWN1cnZhdHVyZT0iMCIgc3R5bGU9ImZpbGw6IzU1NkE4QTsiIGQ9Ik0yLjksMjEuMjNjLTAuOTUsMC0xLjY1LDAuMzUtMi4xMiwxLjAzICAgICBDMC4yNSwyMi45MSwwLDIzLjg5LDAsMjUuMTZjMCwyLjQ4LDAuOTMsMy42OCwyLjc4LDMuNjhjMC44NywwLDEuNi0wLjMsMi4wNy0wLjk3YzAuNS0wLjY1LDAuNzUtMS42MywwLjc1LTIuODggICAgIEM1LjYsMjIuNDgsNC43LDIxLjIzLDIuOSwyMS4yM3ogTTIuOCwyNy42MmMtMC43LDAtMS4wNS0wLjgzLTEuMDUtMi40OGMwLTEuNzUsMC4zNS0yLjY4LDEuMDgtMi42OGMwLjcsMCwxLjAyLDAuODgsMS4wMiwyLjU4ICAgICBTMy41MywyNy42MiwyLjgsMjcuNjJ6Ii8+JiN4YTsJCTwvZz4mI3hhOwkJPGcgaWQ9InNoYXBlNjA5LTI4IiB0cmFuc2Zvcm09InRyYW5zbGF0ZSgxMi44MDg0LC0xMC40MTU4KSI+JiN4YTsJCQk8dGl0bGUgaWQ9InRpdGxlNDUzNTUiPlNoZWV0LjYwOTwvdGl0bGU+JiN4YTsJCQk8cGF0aCBpZD0icGF0aDQ1MzU3IiBpbmtzY2FwZTpjb25uZWN0b3ItY3VydmF0dXJlPSIwIiBzdHlsZT0iZmlsbDojNTU2QThBOyIgZD0iTTIuOSwyMC44M2MtMC45LDAtMS42MiwwLjM4LTIuMTIsMS4wOCAgICAgQzAuMjUsMjIuNjEsMCwyMy42NCwwLDI0Ljk5YzAsMi41OCwwLjkzLDMuODUsMi43OCwzLjg1YzAuOTIsMCwxLjYtMC4zMiwyLjEtMS4wMmMwLjQ3LTAuNywwLjcyLTEuNzEsMC43Mi0zLjAzICAgICBDNS42LDIyLjE2LDQuNzMsMjAuODMsMi45LDIwLjgzeiBNMi44MywyNy41N2MtMC43MywwLTEuMDgtMC45LTEuMDgtMi42M2MwLTEuODUsMC4zNS0yLjc4LDEuMS0yLjc4YzAuNjgsMCwxLjAzLDAuOSwxLjAzLDIuNjggICAgIEMzLjg4LDI2LjY0LDMuNTMsMjcuNTcsMi44MywyNy41N3oiLz4mI3hhOwkJPC9nPiYjeGE7CQk8ZyBpZD0ic2hhcGU2MTAtMzAiIHRyYW5zZm9ybT0idHJhbnNsYXRlKDI1LjYxNjgpIj4mI3hhOwkJCTx0aXRsZSBpZD0idGl0bGU0NTM2MCI+U2hlZXQuNjEwPC90aXRsZT4mI3hhOwkJCTxwYXRoIGlkPSJwYXRoNDUzNjIiIGlua3NjYXBlOmNvbm5lY3Rvci1jdXJ2YXR1cmU9IjAiIHN0eWxlPSJmaWxsOiM1NTZBOEE7IiBkPSJNMi45LDIxLjIzYy0wLjk1LDAtMS42MiwwLjM1LTIuMTIsMS4wMyAgICAgQzAuMjUsMjIuOTEsMCwyMy45MSwwLDI1LjE5YzAsMi40NSwwLjkzLDMuNjUsMi43OCwzLjY1YzAuOTIsMCwxLjYtMC4zLDIuMDctMC45N2MwLjUtMC42NSwwLjc1LTEuNjMsMC43NS0yLjg4ICAgICBDNS42LDIyLjQ4LDQuNzMsMjEuMjMsMi45LDIxLjIzeiBNMi44MywyNy42NGMtMC43MywwLTEuMDgtMC44Mi0xLjA4LTIuNWMwLTEuNzUsMC4zNS0yLjY2LDEuMS0yLjY2YzAuNjgsMCwxLjAzLDAuODYsMS4wMywyLjU2ICAgICBDMy44OCwyNi43OSwzLjUzLDI3LjY0LDIuODMsMjcuNjR6Ii8+JiN4YTsJCTwvZz4mI3hhOwk8L2c+JiN4YTs8L2c+JiN4YTs8L3N2Zz4=;" vertex="1" parent="CdcvYIRpf1g7k5c3ap87-54">
          <mxGeometry x="7.240000000000009" width="42.76" height="40" as="geometry" />
        </mxCell>
        <mxCell id="CdcvYIRpf1g7k5c3ap87-38" value="Estandarizar" style="text;strokeColor=none;align=center;fillColor=none;html=1;verticalAlign=middle;whiteSpace=wrap;rounded=0;" vertex="1" parent="CdcvYIRpf1g7k5c3ap87-54">
          <mxGeometry y="44.57999999999997" width="60" height="30" as="geometry" />
        </mxCell>
        <mxCell id="CdcvYIRpf1g7k5c3ap87-55" value="" style="group" connectable="0" vertex="1" parent="1">
          <mxGeometry x="400" y="-180.83" width="60" height="90" as="geometry" />
        </mxCell>
        <mxCell id="CdcvYIRpf1g7k5c3ap87-2" value="" style="shape=image;verticalLabelPosition=bottom;labelBackgroundColor=#ffffff;verticalAlign=top;aspect=fixed;imageAspect=0;image=data:image/svg+xml,PHN2ZyB4bWxuczpjYz0iaHR0cDovL2NyZWF0aXZlY29tbW9ucy5vcmcvbnMjIiB4bWxuczpkYz0iaHR0cDovL3B1cmwub3JnL2RjL2VsZW1lbnRzLzEuMS8iIHhtbG5zOmlua3NjYXBlPSJodHRwOi8vd3d3Lmlua3NjYXBlLm9yZy9uYW1lc3BhY2VzL2lua3NjYXBlIiB4bWxuczpyZGY9Imh0dHA6Ly93d3cudzMub3JnLzE5OTkvMDIvMjItcmRmLXN5bnRheC1ucyMiIHhtbG5zOnNvZGlwb2RpPSJodHRwOi8vc29kaXBvZGkuc291cmNlZm9yZ2UubmV0L0RURC9zb2RpcG9kaS0wLmR0ZCIgeG1sbnM6c3ZnPSJodHRwOi8vd3d3LnczLm9yZy8yMDAwL3N2ZyIgeG1sbnM9Imh0dHA6Ly93d3cudzMub3JnLzIwMDAvc3ZnIiB4bWxuczp4bGluaz0iaHR0cDovL3d3dy53My5vcmcvMTk5OS94bGluayIgdmVyc2lvbj0iMS4xIiBpZD0ic3ZnOTc2MzAiIGlua3NjYXBlOnZlcnNpb249IjAuOTIuMyAoMjQwNTU0NiwgMjAxOC0wMy0xMSkiIHNvZGlwb2RpOmRvY25hbWU9InN0b3JhZ2VfZXhwbG9yZXIuc3ZnIiB4PSIwcHgiIHk9IjBweCIgdmlld0JveD0iMCAwIDk5Ljk2IDkzLjM5IiBzdHlsZT0iZW5hYmxlLWJhY2tncm91bmQ6bmV3IDAgMCA5OS45NiA5My4zOTsiIHhtbDpzcGFjZT0icHJlc2VydmUiPiYjeGE7PHNvZGlwb2RpOm5hbWVkdmlldyBib3JkZXJjb2xvcj0iIzY2NjY2NiIgYm9yZGVyb3BhY2l0eT0iMSIgZml0LW1hcmdpbi1ib3R0b209IjAiIGZpdC1tYXJnaW4tbGVmdD0iMCIgZml0LW1hcmdpbi1yaWdodD0iMCIgZml0LW1hcmdpbi10b3A9IjAiIGdyaWR0b2xlcmFuY2U9IjEwIiBndWlkZXRvbGVyYW5jZT0iMTAiIGlkPSJuYW1lZHZpZXc5NzYzMiIgaW5rc2NhcGU6Y3VycmVudC1sYXllcj0ic3ZnOTc2MzAiIGlua3NjYXBlOmN4PSIxMTYuMjY4MTgiIGlua3NjYXBlOmN5PSIzMi4zOTc4ODgiIGlua3NjYXBlOnBhZ2VvcGFjaXR5PSIwIiBpbmtzY2FwZTpwYWdlc2hhZG93PSIyIiBpbmtzY2FwZTp3aW5kb3ctaGVpZ2h0PSIxMDE3IiBpbmtzY2FwZTp3aW5kb3ctbWF4aW1pemVkPSIxIiBpbmtzY2FwZTp3aW5kb3ctd2lkdGg9IjE5MjAiIGlua3NjYXBlOndpbmRvdy14PSItOCIgaW5rc2NhcGU6d2luZG93LXk9Ii04IiBpbmtzY2FwZTp6b29tPSIyLjk5MTI5MjMiIG9iamVjdHRvbGVyYW5jZT0iMTAiIHBhZ2Vjb2xvcj0iI2ZmZmZmZiIgc2hvd2dyaWQ9ImZhbHNlIj4mI3hhOwk8L3NvZGlwb2RpOm5hbWVkdmlldz4mI3hhOzxnIGlkPSJnOTc2MjgiIHRyYW5zZm9ybT0idHJhbnNsYXRlKC03LjY1MDUyMjksLTcuNjQ1NzU2KSI+JiN4YTsJPHRpdGxlIGlkPSJ0aXRsZTk3NTY1Ij5QYWdlLTE8L3RpdGxlPiYjeGE7CTxnIGlkPSJncm91cDUyMzEtMSIgdHJhbnNmb3JtPSJ0cmFuc2xhdGUoNy4wMzI4NCwtNy42NSkiPiYjeGE7CQk8dGl0bGUgaWQ9InRpdGxlOTc1NjciPlN0b3JhZ2UgRXhwbG9yZXI8L3RpdGxlPiYjeGE7CQk8ZyBpZD0iZ3JvdXA1MjMyLTIiIHRyYW5zZm9ybT0idHJhbnNsYXRlKDIxLjY2MjcsLTI3LjYyMjYpIj4mI3hhOwkJCTx0aXRsZSBpZD0idGl0bGU5NzU2OSI+U2hlZXQuNTIzMjwvdGl0bGU+JiN4YTsJCQk8ZyBpZD0ic2hhcGU1MjMzLTMiPiYjeGE7CQkJCTx0aXRsZSBpZD0idGl0bGU5NzU3MSI+U2hlZXQuNTIzMzwvdGl0bGU+JiN4YTsJCQkJPHBhdGggaWQ9InBhdGg5NzU3MyIgaW5rc2NhcGU6Y29ubmVjdG9yLWN1cnZhdHVyZT0iMCIgc3R5bGU9ImZpbGw6I0EwQTFBMjsiIGQ9Ik0wLDEwNS43OWMwLDEuNTIsMS4yNiwyLjksMi44NCwyLjloNzMuMDggICAgICBjMS41OCwwLDMtMS4yMiwzLTIuOVY1NS4xNkgwVjEwNS43OXoiLz4mI3hhOwkJCTwvZz4mI3hhOwkJCTxnIGlkPSJzaGFwZTUyMzQtNSIgdHJhbnNmb3JtPSJ0cmFuc2xhdGUoMCwtNTMuNTMyNikiPiYjeGE7CQkJCTx0aXRsZSBpZD0idGl0bGU5NzU3NiI+U2hlZXQuNTIzNDwvdGl0bGU+JiN4YTsJCQkJPHBhdGggaWQ9InBhdGg5NzU3OCIgaW5rc2NhcGU6Y29ubmVjdG9yLWN1cnZhdHVyZT0iMCIgc3R5bGU9ImZpbGw6IzdBN0E3QTsiIGQ9Ik03NS45Miw5Ni42MUgyLjg0Yy0xLjU4LDAtMi44NCwxLjM4LTIuODQsMi45ICAgICAgdjkuMThoNzguOTJ2LTkuMThjMC0xLjUyLTEuMjgtMi43My0zLjAyLTIuNzNMNzUuOTIsOTYuNjF6Ii8+JiN4YTsJCQkJPHBhdGggaWQ9InBhdGg5NzU4MCIgaW5rc2NhcGU6Y29ubmVjdG9yLWN1cnZhdHVyZT0iMCIgc3R5bGU9ImZpbGw6bm9uZTsiIGQ9Ik03NS45Miw5Ni42MUgyLjg0Yy0xLjU4LDAtMi44NCwxLjM4LTIuODQsMi45ICAgICAgdjkuMThoNzguOTJ2LTkuMThjMC0xLjUyLTEuMjgtMi43My0zLjAyLTIuNzMiLz4mI3hhOwkJCTwvZz4mI3hhOwkJCTxnIGlkPSJzaGFwZTUyMzUtOCIgdHJhbnNmb3JtPSJ0cmFuc2xhdGUoNi4zMTM3NCwtMjIuMTc3KSI+JiN4YTsJCQkJPHRpdGxlIGlkPSJ0aXRsZTk3NTgzIj5TaGVldC41MjM1PC90aXRsZT4mI3hhOwkJCQk8cmVjdCBpZD0icmVjdDk3NTg1IiB4PSIwIiB5PSI5Ny45OCIgc3R5bGU9ImZpbGw6I0I4RDQzMjsiIHdpZHRoPSI2Ni4yOSIgaGVpZ2h0PSIxMC43MSIvPiYjeGE7CQkJPC9nPiYjeGE7CQkJPGcgaWQ9InNoYXBlNTIzNi0xMCIgdHJhbnNmb3JtPSJ0cmFuc2xhdGUoNi4zMTM3NCwtMzguMjM2MykiPiYjeGE7CQkJCTx0aXRsZSBpZD0idGl0bGU5NzU4OCI+U2hlZXQuNTIzNjwvdGl0bGU+JiN4YTsJCQkJPHJlY3QgaWQ9InJlY3Q5NzU5MCIgeD0iMCIgeT0iOTcuOTgiIHN0eWxlPSJmaWxsOiNGRkZGRkY7IiB3aWR0aD0iNjYuMjkiIGhlaWdodD0iMTAuNzEiLz4mI3hhOwkJCTwvZz4mI3hhOwkJCTxnIGlkPSJzaGFwZTUyMzctMTIiIHRyYW5zZm9ybT0idHJhbnNsYXRlKDYuMzEzNzQsLTYuMTE3NzUpIj4mI3hhOwkJCQk8dGl0bGUgaWQ9InRpdGxlOTc1OTMiPlNoZWV0LjUyMzc8L3RpdGxlPiYjeGE7CQkJCTxyZWN0IGlkPSJyZWN0OTc1OTUiIHg9IjAiIHk9Ijk3Ljk4IiBzdHlsZT0iZmlsbDojQjhENDMyOyIgd2lkdGg9IjY2LjI5IiBoZWlnaHQ9IjEwLjcxIi8+JiN4YTsJCQk8L2c+JiN4YTsJCQk8ZyBpZD0ic2hhcGU1MjM4LTE0IiB0cmFuc2Zvcm09InRyYW5zbGF0ZSgwLC0wLjYxMTY0NCkiPiYjeGE7CQkJCTx0aXRsZSBpZD0idGl0bGU5NzU5OCI+U2hlZXQuNTIzODwvdGl0bGU+JiN4YTsJCQkJPHBhdGggaWQ9InBhdGg5NzYwMCIgaW5rc2NhcGU6Y29ubmVjdG9yLWN1cnZhdHVyZT0iMCIgc3R5bGU9ImZpbGw6I0ZGRkZGRjtmaWxsLW9wYWNpdHk6MC4yOyIgZD0iTTMuMTYsNDMuNTMgICAgICBDMS40Miw0My41MywwLDQ0LjkxLDAsNDYuNTl2MTEuMTd2NS4wNXY0Mi44MmMwLDEuNjgsMS40MiwzLjA2LDMuMTYsMy4wNmgzLjQ3bDYyLjE5LTY1LjE2SDMuMTZ6Ii8+JiN4YTsJCQk8L2c+JiN4YTsJCTwvZz4mI3hhOwkJPGcgaWQ9Imdyb3VwNTIzOS0xNiI+JiN4YTsJCQk8dGl0bGUgaWQ9InRpdGxlOTc2MDQiPlNoZWV0LjUyMzk8L3RpdGxlPiYjeGE7CQkJPGcgaWQ9InNoYXBlNTI0MC0xNyI+JiN4YTsJCQkJPHRpdGxlIGlkPSJ0aXRsZTk3NjA2Ij5TaGVldC41MjQwPC90aXRsZT4mI3hhOwkJCQk8cGF0aCBpZD0icGF0aDk3NjA4IiBpbmtzY2FwZTpjb25uZWN0b3ItY3VydmF0dXJlPSIwIiBzdHlsZT0iZmlsbDojM0UzRTNFOyIgZD0iTTYyLjU2LDU0Ljg0Yy0zLjM1LTUuNTMtOC42NC05LjQzLTE0LjkyLTEwLjk4ICAgICAgYy0xLjkxLTAuNDctMy44Ni0wLjcxLTUuODEtMC43MWMtMTEuMTUsMC0yMC44MSw3LjU5LTIzLjUsMTguNDVjLTEuNDgsNi4wMy0wLjUxLDEyLjQyLDIuNiwxNy44MkwyLjQyLDk4LjA3ICAgICAgYy0yLjQyLDIuNDUtMi40LDYuMzksMC4wNCw4LjgyYzEuMjIsMS4yLDIuODEsMS44LDQuMzksMS44YzEuNjEsMCwzLjIxLTAuNjIsNC40My0xLjg1TDI5LjcsODguMjggICAgICBjMi4wMSwxLjE3LDQuMTMsMi4wNiw2LjM1LDIuNmMxLjksMC40NywzLjg1LDAuNzEsNS44LDAuNzFjMTEuMTYsMCwyMC44My03LjU4LDIzLjUtMTguNDNDNjYuOSw2Ni44OSw2NS45MSw2MC4zOCw2Mi41Niw1NC44NHogICAgICAiLz4mI3hhOwkJCTwvZz4mI3hhOwkJCTxnIGlkPSJzaGFwZTUyNDEtMTkiIHRyYW5zZm9ybT0idHJhbnNsYXRlKDI0LjE4ODIsLTI0LjM1NzkpIj4mI3hhOwkJCQk8dGl0bGUgaWQ9InRpdGxlOTc2MTEiPlNoZWV0LjUyNDE8L3RpdGxlPiYjeGE7CQkJCTxwYXRoIGlkPSJwYXRoOTc2MTMiIGlua3NjYXBlOmNvbm5lY3Rvci1jdXJ2YXR1cmU9IjAiIHN0eWxlPSJmaWxsOiNCQUQ4MEE7IiBkPSJNMzQuMTIsOTUuNzljLTEuODcsNy41OS04LjY0LDEyLjktMTYuNDYsMTIuOSAgICAgIGMtMS4zNiwwLTIuNzMtMC4xNi00LjA2LTAuNDljLTIuMDUtMC41MS0zLjkxLTEuMzgtNS41NS0yLjUyYy0xLjczLTEuMi0zLjIxLTIuNy00LjM3LTQuNDFDMS4wNiw5Ny40MiwwLDkyLjU0LDEuMTksODcuNjggICAgICBjMS44OC03LjYsOC42NS0xMi45MSwxNi40Ni0xMi45MWMxLjM2LDAsMi43MywwLjE2LDQuMDcsMC40OWM0LjM5LDEuMDksOC4xLDMuODIsMTAuNDUsNy43ICAgICAgQzM0LjUxLDg2LjgzLDM1LjIxLDkxLjM5LDM0LjEyLDk1Ljc5eiIvPiYjeGE7CQkJPC9nPiYjeGE7CQkJPGcgaWQ9InNoYXBlNTI0Mi0yMSIgdHJhbnNmb3JtPSJ0cmFuc2xhdGUoMjQuMTg4MiwtMjkuODY5MykiPiYjeGE7CQkJCTx0aXRsZSBpZD0idGl0bGU5NzYxNiI+U2hlZXQuNTI0MjwvdGl0bGU+JiN4YTsJCQkJPHBhdGggaWQ9InBhdGg5NzYxOCIgaW5rc2NhcGU6Y29ubmVjdG9yLWN1cnZhdHVyZT0iMCIgc3R5bGU9ImZpbGw6I0ZGRkZGRjtmaWxsLW9wYWNpdHk6MC4zNDsiIGQ9Ik0yNi44Miw4Mi45OSAgICAgIGMtMS41NS0xLjAxLTMuMjYtMS43Ni01LjEtMi4yMmMtMS4zNC0wLjMzLTIuNzEtMC40OS00LjA3LTAuNDljLTcuODEsMC0xNC41OCw1LjMxLTE2LjQ2LDEyLjkxICAgICAgYy0xLjE5LDQuODYtMC4xMyw5Ljc1LDIuNDksMTMuNTljMC40NiwwLjY4LDAuOTgsMS4zMSwxLjUzLDEuOTFDOC44MSw5Ny41NywxNi42NCw4OC4zNywyNi44Miw4Mi45OXoiLz4mI3hhOwkJCTwvZz4mI3hhOwkJCTxnIGlkPSJzaGFwZTUyNDMtMjMiIHRyYW5zZm9ybT0idHJhbnNsYXRlKDE4Ljk5NTIsLTE4LjY0NzkpIj4mI3hhOwkJCQk8dGl0bGUgaWQ9InRpdGxlOTc2MjEiPlNoZWV0LjUyNDM8L3RpdGxlPiYjeGE7CQkJCTxwYXRoIGlkPSJwYXRoOTc2MjMiIGlua3NjYXBlOmNvbm5lY3Rvci1jdXJ2YXR1cmU9IjAiIHN0eWxlPSJmaWxsOiMxRTFFMUU7ZmlsbC1vcGFjaXR5OjAuNTsiIGQ9Ik05LjEzLDEwNS45NCAgICAgIGMtMi40NS0xLjctNC41Ni0zLjgyLTYuMjQtNi4zYy0wLjM1LTAuNTEtMC42NS0xLjA0LTAuOTYtMS41OGwtMS43NCwxLjc2TDAsMTAwLjAxYzAuMjMsMC4zOCwwLjQ3LDAuNzUsMC43MSwxLjExICAgICAgYzEuODcsMi43NSw0LjIsNS4xLDYuOTIsNi45OGMwLjI0LDAuMTYsMC44MiwwLjM4LDEuMzIsMC41OWwxLjc2LTEuNzZDMTAuMTcsMTA2LjYxLDkuNjQsMTA2LjI5LDkuMTMsMTA1Ljk0eiIvPiYjeGE7CQkJPC9nPiYjeGE7CQk8L2c+JiN4YTsJPC9nPiYjeGE7PC9nPiYjeGE7PC9zdmc+;align=center;" vertex="1" parent="CdcvYIRpf1g7k5c3ap87-55">
          <mxGeometry x="5.720000000000027" width="48.56" height="45.16" as="geometry" />
        </mxCell>
        <mxCell id="CdcvYIRpf1g7k5c3ap87-41" value="Extraer y seleccionar features" style="text;strokeColor=none;align=center;fillColor=none;html=1;verticalAlign=middle;whiteSpace=wrap;rounded=0;" vertex="1" parent="CdcvYIRpf1g7k5c3ap87-55">
          <mxGeometry y="50" width="60" height="40" as="geometry" />
        </mxCell>
        <mxCell id="CdcvYIRpf1g7k5c3ap87-56" value="" style="group" connectable="0" vertex="1" parent="1">
          <mxGeometry x="510" y="-183.83" width="90" height="75.67" as="geometry" />
        </mxCell>
        <mxCell id="CdcvYIRpf1g7k5c3ap87-15" value="" style="shape=image;verticalLabelPosition=bottom;labelBackgroundColor=#ffffff;verticalAlign=top;aspect=fixed;imageAspect=0;image=data:image/svg+xml,PHN2ZyB4bWxuczpkYz0iaHR0cDovL3B1cmwub3JnL2RjL2VsZW1lbnRzLzEuMS8iIHhtbG5zOmNjPSJodHRwOi8vY3JlYXRpdmVjb21tb25zLm9yZy9ucyMiIHhtbG5zOnJkZj0iaHR0cDovL3d3dy53My5vcmcvMTk5OS8wMi8yMi1yZGYtc3ludGF4LW5zIyIgeG1sbnM6c3ZnPSJodHRwOi8vd3d3LnczLm9yZy8yMDAwL3N2ZyIgeG1sbnM9Imh0dHA6Ly93d3cudzMub3JnLzIwMDAvc3ZnIiB4bWxuczp4bGluaz0iaHR0cDovL3d3dy53My5vcmcvMTk5OS94bGluayIgeG1sbnM6c29kaXBvZGk9Imh0dHA6Ly9zb2RpcG9kaS5zb3VyY2Vmb3JnZS5uZXQvRFREL3NvZGlwb2RpLTAuZHRkIiB4bWxuczppbmtzY2FwZT0iaHR0cDovL3d3dy5pbmtzY2FwZS5vcmcvbmFtZXNwYWNlcy9pbmtzY2FwZSIgdmVyc2lvbj0iMS4xIiBpZD0iTGF5ZXJfMSIgeD0iMHB4IiB5PSIwcHgiIHZpZXdCb3g9IjAgMCAzNS45Mzk5OTkgMzUuOTM5OTk1IiB4bWw6c3BhY2U9InByZXNlcnZlIiBzb2RpcG9kaTpkb2NuYW1lPSJzYXBfd29ya2Zsb3cuc3ZnIiB3aWR0aD0iMzUuOTM5OTk5IiBoZWlnaHQ9IjM1LjkzOTk5NSIgaW5rc2NhcGU6dmVyc2lvbj0iMC45Mi4zICgyNDA1NTQ2LCAyMDE4LTAzLTExKSI+PG1ldGFkYXRhIGlkPSJtZXRhZGF0YTYyNTY0Ij48cmRmOlJERj48Y2M6V29yayByZGY6YWJvdXQ9IiI+PGRjOmZvcm1hdD5pbWFnZS9zdmcreG1sPC9kYzpmb3JtYXQ+PGRjOnR5cGUgcmRmOnJlc291cmNlPSJodHRwOi8vcHVybC5vcmcvZGMvZGNtaXR5cGUvU3RpbGxJbWFnZSIvPjxkYzp0aXRsZS8+PC9jYzpXb3JrPjwvcmRmOlJERj48L21ldGFkYXRhPjxkZWZzIGlkPSJkZWZzNjI1NjIiLz48c29kaXBvZGk6bmFtZWR2aWV3IHBhZ2Vjb2xvcj0iI2ZmZmZmZiIgYm9yZGVyY29sb3I9IiM2NjY2NjYiIGJvcmRlcm9wYWNpdHk9IjEiIG9iamVjdHRvbGVyYW5jZT0iMTAiIGdyaWR0b2xlcmFuY2U9IjEwIiBndWlkZXRvbGVyYW5jZT0iMTAiIGlua3NjYXBlOnBhZ2VvcGFjaXR5PSIwIiBpbmtzY2FwZTpwYWdlc2hhZG93PSIyIiBpbmtzY2FwZTp3aW5kb3ctd2lkdGg9IjE5MjAiIGlua3NjYXBlOndpbmRvdy1oZWlnaHQ9IjEwMTciIGlkPSJuYW1lZHZpZXc2MjU2MCIgc2hvd2dyaWQ9ImZhbHNlIiBmaXQtbWFyZ2luLXRvcD0iMCIgZml0LW1hcmdpbi1sZWZ0PSIwIiBmaXQtbWFyZ2luLXJpZ2h0PSIwIiBmaXQtbWFyZ2luLWJvdHRvbT0iMCIgaW5rc2NhcGU6em9vbT0iMS4wMzAzMDMiIGlua3NjYXBlOmN4PSIzLjEyNSIgaW5rc2NhcGU6Y3k9Ii0xODAuNzEiIGlua3NjYXBlOndpbmRvdy14PSItOCIgaW5rc2NhcGU6d2luZG93LXk9Ii04IiBpbmtzY2FwZTp3aW5kb3ctbWF4aW1pemVkPSIxIiBpbmtzY2FwZTpjdXJyZW50LWxheWVyPSJMYXllcl8xIi8+JiN4YTsmI3hhOzxnIGlkPSJnNjI1NTciIHRyYW5zZm9ybT0idHJhbnNsYXRlKC0yOTQuMjUsLTIwNC4xMDAwMSkiPiYjeGE7CTxkZWZzIGlkPSJkZWZzNjI1MzYiPiYjeGE7CQk8cmVjdCBpZD0iU1ZHSURfM18iIHg9IjI5NC4yNSIgeT0iMjA0LjEwMDAxIiB3aWR0aD0iMzYuODIiIGhlaWdodD0iMzYuODIiLz4mI3hhOwk8L2RlZnM+JiN4YTsJPGNsaXBQYXRoIGlkPSJTVkdJRF80XyI+JiN4YTsJCTx1c2UgeGxpbms6aHJlZj0iI1NWR0lEXzNfIiBzdHlsZT0ib3ZlcmZsb3c6dmlzaWJsZSIgaWQ9InVzZTYyNTM4IiB4PSIwIiB5PSIwIiB3aWR0aD0iMTAwJSIgaGVpZ2h0PSIxMDAlIi8+JiN4YTsJPC9jbGlwUGF0aD4mI3hhOwk8ZyBjbGlwLXBhdGg9InVybCgjU1ZHSURfNF8pIiBpZD0iZzYyNTU1Ij4mI3hhOwkJPGRlZnMgaWQ9ImRlZnM2MjU0MiI+JiN4YTsJCQk8cmVjdCBpZD0iU1ZHSURfNV8iIHg9IjI5NC4yNSIgeT0iMjA0LjEwMDAxIiB3aWR0aD0iMzYuODIiIGhlaWdodD0iMzYuODIiLz4mI3hhOwkJPC9kZWZzPiYjeGE7CQk8Y2xpcFBhdGggaWQ9IlNWR0lEXzZfIj4mI3hhOwkJCTx1c2UgeGxpbms6aHJlZj0iI1NWR0lEXzVfIiBzdHlsZT0ib3ZlcmZsb3c6dmlzaWJsZSIgaWQ9InVzZTYyNTQ0IiB4PSIwIiB5PSIwIiB3aWR0aD0iMTAwJSIgaGVpZ2h0PSIxMDAlIi8+JiN4YTsJCTwvY2xpcFBhdGg+JiN4YTsJCTxwYXRoIHN0eWxlPSJmaWxsOiM1YTdhOTQiIGQ9Im0gMzE4Ljc1LDIxMy4wOCBoIDkuNCBjIDEuMTQsMCAyLjA0LC0wLjkgMi4wNCwtMi4wNCB2IC00LjkxIGMgMCwtMS4xNCAtMC45LC0yLjA0IC0yLjA0LC0yLjA0IGggLTkuNCBjIC0xLjE0LDAgLTIuMDQsMC45IC0yLjA0LDIuMDQgdiAyLjQ2IGggLTMuNzcgdiAxMC4xMiBjIC0wLjEyLDAuMDYgLTAuMTgsMC4xMiAtMC4yNCwwLjE4IGwgLTIuNCwyLjQgYyAtMC4wNiwwLjA2IC0wLjEyLDAuMTIgLTAuMTgsMC4yNCBoIC0yLjQgdiAtMS45MiBjIDAsLTEuMTQgLTAuOSwtMi4wNCAtMi4wNCwtMi4wNCBoIC05LjQgYyAtMS4xNCwwIC0yLjA0LDAuOSAtMi4wNCwyLjA0IHYgNC45MSBjIDAsMS4xNCAwLjksMi4wNCAyLjA0LDIuMDQgaCA5LjQgYyAxLjE0LDAgMi4wNCwtMC45IDIuMDQsLTIuMDQgdiAtMS45MiBoIDIuNCBjIDAuMDYsMC4xMiAwLjEyLDAuMTggMC4xOCwwLjI0IGwgMi40LDIuNCBjIDAuMDYsMC4wNiAwLjEyLDAuMTIgMC4yNCwwLjE4IHYgMTAuMjQgaCAzLjc3IFYgMjM4IGMgMCwxLjE0IDAuOSwyLjA0IDIuMDQsMi4wNCBoIDkuNCBjIDEuMTQsMCAyLjA0LC0wLjkgMi4wNCwtMi4wNCB2IC00LjkxIGMgMCwtMS4xNCAtMC45LC0yLjA0IC0yLjA0LC0yLjA0IGggLTkuNCBjIC0xLjE0LDAgLTIuMDQsMC45IC0yLjA0LDIuMDQgdiAxLjQ0IGggLTIuNyB2IC05LjExIGMgMC4xMiwtMC4wNiAwLjE4LC0wLjEyIDAuMjQsLTAuMTggbCAyLjQsLTIuNCBjIDAuNDIsLTAuNDIgMC40MiwtMS4xNCAwLC0xLjU2IGwgLTIuNCwtMi40IGMgLTAuMDYsLTAuMDYgLTAuMTIsLTAuMTIgLTAuMjQsLTAuMTggdiAtOC45OSBoIDIuNyB2IDEuMzIgYyAwLDEuMTYgMC45LDIuMDUgMi4wNCwyLjA1IHoiIGNsaXAtcGF0aD0idXJsKCNTVkdJRF82XykiIGlkPSJwYXRoNjI1NDciIGlua3NjYXBlOmNvbm5lY3Rvci1jdXJ2YXR1cmU9IjAiLz4mI3hhOwkJPHBhdGggc3R5bGU9ImZpbGw6IzAwOTJkMSIgZD0ibSAzMTguNzUsMjA0LjEgaCA5LjQgYyAxLjE0LDAgMi4wNCwwLjkgMi4wNCwyLjA0IHYgNC45MSBjIDAsMS4xNCAtMC45LDIuMDQgLTIuMDQsMi4wNCBoIC05LjQgYyAtMS4xNCwwIC0yLjA0LC0wLjkgLTIuMDQsLTIuMDQgdiAtNC45MSBjIDAsLTEuMTQgMC45LC0yLjA0IDIuMDQsLTIuMDQgeiIgY2xpcC1wYXRoPSJ1cmwoI1NWR0lEXzZfKSIgaWQ9InBhdGg2MjU0OSIgaW5rc2NhcGU6Y29ubmVjdG9yLWN1cnZhdHVyZT0iMCIvPiYjeGE7CQk8cGF0aCBzdHlsZT0iZmlsbDojMDA5MmQxIiBkPSJtIDMxOC43NSwyMzEuMDYgaCA5LjQgYyAxLjE0LDAgMi4wNCwwLjkgMi4wNCwyLjA0IHYgNC45IGMgMCwxLjE0IC0wLjksMi4wNCAtMi4wNCwyLjA0IGggLTkuNCBjIC0xLjE0LDAgLTIuMDQsLTAuOSAtMi4wNCwtMi4wNCB2IC00LjkxIGMgMCwtMS4xNCAwLjksLTIuMDMgMi4wNCwtMi4wMyB6IiBjbGlwLXBhdGg9InVybCgjU1ZHSURfNl8pIiBpZD0icGF0aDYyNTUxIiBpbmtzY2FwZTpjb25uZWN0b3ItY3VydmF0dXJlPSIwIi8+JiN4YTsJCTxwYXRoIHN0eWxlPSJmaWxsOiMwMDkyZDEiIGQ9Im0gMjk2LjI5LDIxNy41OCBoIDkuNCBjIDEuMTQsMCAyLjA0LDAuOSAyLjA0LDIuMDQgdiA0LjkxIGMgMCwxLjE0IC0wLjksMi4wNCAtMi4wNCwyLjA0IGggLTkuNCBjIC0xLjE0LDAgLTIuMDQsLTAuOSAtMi4wNCwtMi4wNCB2IC00LjkxIGMgMCwtMS4xNCAwLjksLTIuMDQgMi4wNCwtMi4wNCB6IiBjbGlwLXBhdGg9InVybCgjU1ZHSURfNl8pIiBpZD0icGF0aDYyNTUzIiBpbmtzY2FwZTpjb25uZWN0b3ItY3VydmF0dXJlPSIwIi8+JiN4YTsJPC9nPiYjeGE7PC9nPiYjeGE7PC9zdmc+;" vertex="1" parent="CdcvYIRpf1g7k5c3ap87-56">
          <mxGeometry x="20.720000000000027" y="3" width="44.84" height="44.84" as="geometry" />
        </mxCell>
        <mxCell id="CdcvYIRpf1g7k5c3ap87-42" value="Train Test split " style="text;whiteSpace=wrap;" vertex="1" parent="CdcvYIRpf1g7k5c3ap87-56">
          <mxGeometry y="50" width="90" height="25.67" as="geometry" />
        </mxCell>
        <mxCell id="CdcvYIRpf1g7k5c3ap87-57" value="" style="group" connectable="0" vertex="1" parent="1">
          <mxGeometry x="150" y="-53.04999999999998" width="60" height="83.05000000000001" as="geometry" />
        </mxCell>
        <mxCell id="CdcvYIRpf1g7k5c3ap87-31" value="" style="shape=image;verticalLabelPosition=bottom;labelBackgroundColor=default;verticalAlign=top;aspect=fixed;imageAspect=0;image=data:image/png,iVBORw0KGgoAAAANSUhEUgAAAEAAAABACAYAAACqaXHeAAAABGdBTUEAALGPC/xhBQAAACBjSFJNAAB6JgAAgIQAAPoAAACA6AAAdTAAAOpgAAA6mAAAF3CculE8AAAACXBIWXMAACxLAAAsSwGlPZapAAARjElEQVR4AeVbaXBUV3Y+9y3drdYuBAgQFggJMJtsQwLCuMyAPcYLYLCBAPG4ZjyZKv/IVCbjcs0WRxPHsSeZOHGlXIlddjKMbfDGvjiYyXghEgKbgBEMi0FIBoPFJgktvbzl5juv9aRWq1vdLYmMkxzV03vv3nOX891zzzn33teCQOcqiwu8puaxfJplmkHLb/vMkNlpNgfzzSnHjhmCSDLf/yl6+5iHVk4NC3lvmfd8i/WxVxETw7Y0IKklBBlSkqGQCJKQAYjfAeGvS0EtJMVVkvKSUMRFIe0LCikXSIimkZ6x18SHH5r/K0Dad/QHGNO76NzxJRhcEhcqxy2FsK+risg0ITmTcP6cR8hHpDhpnB4h5jLxD5cphWwRki6gzGnw1tlkH1I1eWTkx42N4Le7inw9btV1j5Pf/yIFAycpeHm6Kw+dm1Nyr66oG5CQy8OfKnEFDJAKaFTcGShWA6hSu5DyuFDoIyGV95ra2/dXHGliTfr9UU3dY6Tr/0KqqlEodIh2vzuL+99NjXNK7/Iq8i2MZEE6IHRXEPXAQGhARkMLoQigJwDrRkyj18ZUnz0Zxfo/81hz9Fvk0V8hy9IBAEbIOECV02ZzP7uppLb+N6ZlP4yOXtF5WAdBrPdhCN5pS7JQIUCd7BPip4oUn3w1d/xL52aXlg+i+vSK1hxZQ7r2Mtm2jiuisugeV9ILAE4o3t/4gWWLB22SlzyDBIHrc4ltC4MhpcxGvd/TVLnvfGXpnwGbPn1wywzJvfbYw6R7X0XDXox+V5XO4Ib4JW7jY2rPVIfIZhAueJTBaUKsEKwZDARoWIZC/3Bh7vj1Z2aW5sbyDcl7Td0yUpV1JG1fj/CoOSJSgNuICwBnjKtp3GdbyhLLpvNwkZw0pMTTIgAgMoRY5ffSxtZ7KguGtIHquvuh9q/Bbft7Ce80wvIIxyAnBID5Ru8/czBE1hKob8ONAIHbYG3wCFpoUPtG+eNvD+e0QVPNsUUweOshZCZZcUITZ2rLNm6nXwCYYdy+xkMGKYstKetvFAisCUpnYL5x+eJm+cx3R3K7A6bqYwtIVzegfA6ZcYTnih2Flq38mBQAZrqp5szRoG0/ANd4yncDpgO30REyyLrWfDu1dWyVP1gxhtPSppojd5KuvINyeQmF765UucaPKQHAjONqG48HTLEY4fKJGwECQmtqvoI+WdZs8mhb5ZNri7ndlKmmbi7pnndIUQqSCs9xibSuct0pA8DMEw7UnzJM635oQt2Qg4B5aYcNCrViamrqTMST2+UTK8Zzu0lp32ezSdM2ISQdjgAnKbsTC9jiMjOmBQAXKPnki/qgLZcgyDk81CAgRiArCPdswl+r6i2kqNvkj9aUcrsJae+RmaR6N4J3ZErCc0WObVAu8WPaAHCh8bUNDR2WuhggfJoxlDYBmon1eMRIOSAo0+DDd8onV0zidvvQ3qMV5NW3QO3HkOEEdn1Y+iSwB7DtIElj4ABwpeX7T583hbkUINQOLQhOkBTpN4OgKJOhDtvlk6tu7iVM9WfTyKtthqYUpyw8V6A4Y95Cqn7Fee1VaZovN1WfwxJYWYrFzn8yCKptkW7BacqBr4AFL1SiKaIJWDeInfKJ1TOcrE9OTEJ4uwXCj6dwiiPv1skASPqKzk9J3Q26ZePdi2rOXOpQ1eUiHNj9Vf5YOlxcQe3eLPIZvJcSNZrxCsemQTtVXe+7/xQBYTzUdtsL//x3K7HDwCM/gcJOOB9bS//vjgbIBlopnIWB1j93arnle09fnvGrU+tacgvvvubLVcZea6S1n75Bjxz4NYAIkKFCqBRIoHOq1wvOOMA500GULGj+8q1M26COsLuwSaHiaJbIFDjuJg3ICLqF3XvmTrno86Lyl6748xUpFTo7bDw9dd/P6Nt//Cv6Ir+EvGYKIwVtUXSNNJ8nrvxOW9hMGN3RQv5QZ1c05/YgjTsvhxVxxC0xaAAy35MLhU4bVIWyFQwKR5ka2vDDHX9UNpce+dbr9LuiqUlB4NmiZfgAAk+BOBrAPYaNOZRXRFd9WYl5XMni3dkDhBByKqLOzR4UAFm75J2osyv0dKvsuWcAhDPDx9GfrHmFzhSWkcfqx2BBaE9ONoxA4i5J7K89XzabbCXGUPY02f9TxMA2UlPgrMuYuDWXI8E9e5e8HRuBCD0p39kETMDnhVuvH3YTff/hF6nZX+B4iris8CK+vJzE6m+G6V9LZ9Ku0fCK8VZ4cSuNSdTY5MlPafEszKEIDQiAjJ1ytlQJ0RcN7094txEfQPi0ZBr9/N6/gmewMU1iVByjr/m8pGdDtXmOxhJc60dFZfTnFfcMTPWj6xPKnujXtAHw75SzsKe6CcIj9Iyuqv9nP7T/3VsfpLdmrnFcZDS3xHLYl58bmf/RGfxsGlSDabRqzgq6rvsAQByAYsvEe2frHwy1U8j8IDo7LQAyt8sKRaPNQqPRxF6IS7sXT0t+ZiuYgFT0/ZcLn6T6wgkwlFCLLuKVYEbhMPc1cmdDCOG3jZ1CS25fS00+2AcYwQFTxLhW050V3fOf60oZgMyP5HTSaKsdoGKjMUTh+gCFTnVQ6GQHhU93ktEQJLMpTHabhZUmOs9AxADCAFzIHUb/OP+HpHQJwwsgPdNPnlwWsGt0kWeh/LNT59OKylV01ZMxOOFd1KR83X107/2Ml8tClL09NDl8Rd1hXTMnWM2wH1DZPsRJjtDYAPfgwCxLJTUXW/B5Gil+qAfngccpKS16Y91aur1+LwXhQ/PKSijrpjGRVSDm+wm4uh9WLILBwxqIgWJtGAyx8TONsyR8t9Cc8uvRVSX1J96/bS0PNsnt1hWrXLZjI5V9abwLauykc+04L5OdGMVmg8zLBtktBrQCCgFghC4orCt0OWsULavbgj0MnXLLxgEfm9o1L70waS49NmsZHckfNXBrHy0hP3sQXZrWX1Pl5A9js/oPhX/aXBJuJ15uTsRCHRLwMKZAzMYgMUFbrBYTl0EGAFALdNKKfFQ7bjatG/OHNN84R1kZfto8ahL9YvI8+iwfmsCjPlBXF2m15z/P/WDgOIn2V3oSe54SA/CEzBSi5XVSPVMI8fygyLE0cH44MDS/CpFxWdCowH/Rns422mfn0KXJi6h66uwuwdNwLck6xYMA/Mmyn6B5c3qpvls0oRFUvFefIo9/3qCFd1ty7uiQDXX0dJBRdAibt2FqzymgwyUIbti9DdWou2364DZN8zmaN2OXmxR7j68Bf3F5phSe7w+p8DiTJC1MouxDUqe+T825F2nvcEyJHITIE28mNdhJ4U5cgQDZ7na2O41ie53Kuw+eIxB8leZM+cv+2OMCIKT6M9IQdQxW9bllrOAIZ5Ki6ASJW7FvOfIUEmF7r0tqy0aeOEg5rSdIy56EJnXyZWeTGYKbBRB8t7vP81AsFUDgMURWFmmm+ZqhBx5HmX6DB/Qghn7ScptQRS1UkpdlMZlpvtrAVwuRMmMHiZv3OBpArAkQxDp3nWQrL5MN0gsqKav8R2gu0leBfG5ZQngTOz4GgOA7gyE5VojnFlFGwWLHk59PmqQNhfrI7zSMxxcuSaiPBijCfkxqfp2M7vVCkioSZLOgUHNl7jqMPvYfLKzzHeHR/5BJsh3GzvEqHjKaDziXp2AuBAxBvgjwvEHiychwLk5jANyLgXD5FPAp8PVaTi6JcGhjTnHudxpEcuG5570BqGrOk6a9lPpbtiaQt1ey6SEx6jgp8+B5snD+YMLwucSjex0LA5y69rhVSYHzb2AaTCWh+YFQV0SIMq6QXJxHmAXtq7bIhCuVgc4tenPo0YaxeUlHnutj6u0FbHkH9qTGwApFcgfyH6MsiutI+caLRJl80gNNiCbEBbINAACIbsLiwuo8S4Ev30Ry7zHp5nEfoAkMSvRFMHgyGNil+YxHmiqK0voMpxcAiqT7ALHbVPp3Fn74GVLueBmujkPmmLogswxC/XH1GUbFQ6GmXRS6upeEEqUxSXoheOSDwd0iaK2+PGJEexL2Ptk9AFRJD4C9g7DhOCDCXiD5rpNSuQ53HG/ZcaJsVn+e+/HWEl2Lhc6Gl8ns+BwgwGYkIRaeQsHf2rJ19bXyYXEDnSRVRE0Bs208hqVswOoPgZUp7+O7j8a+au/2glW3EwBAE+KSUEmaLdRx+nlE3vj8sB8QIiMf+NgksaK1pKQ5bn0pJPZogDRuIQ170uhk2sSj728hUVqbWHiu1ITlDsHVRc//2MawOrQCX1D7qWede7zpIOAZZDhUY4RDK66PzYWhGTh1A4B12m2AfGA1AQDB1j4TWshgxCNW/zCsO0BIShh5q7OB2k78nMLN+yOaAGC4fwJ7AzJs1IbDweXtZUXO+V7S+vph6O4t+j012v30U6ZvlsDIduDrlo68EMUY/W5mVnse/bjzv5ur50HBF23hK9T++XPUceYFMttPIDDqILP1aEf4i43f6ygd2dTDPPCnyGz808+9IqfgMFZ+kwdkBHU/iU7z35SlT70iCy6uF5paQrEnNwh6bHwoal+Cd0h1We3IhSnJhhmeQeg5mKHtWN+FfovYYjWtfM854x+4+G4ckJE3DIapyA1F06qQhTeD6+3Oi4+bc5+vUQ1agi2xevLG8QK8VZY2YYwcYwgtC8PWmabABsdC0u1NtOmbI9KuLqZAZApoEJ4UhjcmO8krhCcz8K6t5j5G/1TunH+Fp284oobNBzDXT/UBIVX1j9ssgHBsFO48lXRlHozpNtp69+i47CkmRgBQ1NE4lsVzGgCw8EZgi1QDj1JV77g7PP2t42rQWIKtseO9QIhMuBS7loQtAgKOicRW2nhvcRLuhNldRlAZhUA7IVOfjMjI75Sa8QhVjY67agpVvHNSC8kH8Nn4UfJ11d3PsVefNlJJYBA0dRa2mHfQhkXjUikSyxMBQFrYgUxxeBzhg7ulaq+hqv5Dz+CM9fWmtBZT2D7sgOBJA+TYniZ6Z2OriQry2dvozQUTErElSncAwHIytS80I8L/hzRaV1NViqHnzW82mCEBEKyDSgG2qPhHBUNNHF9oynTy6Tto08KJ6VTfpQESxzJJ5j8LbwU/lqpYSc+lGXpWvHHetO0lULJawSAMyhgmEI9BUMVk+Mrt9PbCKQm4+iQ7AGDXKq9fD6Bjf80MVcvO4AqqGmDoOfnNC6YuH1R8WjX5Y1aJfbo1wARHE2gifhWyHS5yWiq1dGkAZScEgIW3wgekFXyIfjnI0LN0Q5OV730QZ0cf9PIOqfQ0VR5HE6gULnIHbMJtyYopVOUE75lxp0Bk5A9Ky1hOfzM0oSdN2nBFqtbDZNh7ur1Dsl6mm28406EENmErvXv3rP6KswZoGH2sMGJsgIa5aoWOSNtaRs8UftlfJWnnLdp9DaHtQxSyf004LbohhpFBUEQxjOM22rSoMlEfIwAIgS2YKABYeNs8KsNyKT0z7FyiwoNKX7qtjZbvfhQR43fR9HlHG9JaI6TQOoMgBGIcuZnevmtevBIKBZqxj8VruC4AnJE3TspwcBk9l98Qr9CQpi17/1UEMrPhJp9FvRcd28BB6VB5S15+CzESX6Bvpo33fCO274KqWguEZR0joRY5+4G2eVoa4fvp2eGnYplv+PvGezBa9BDaWYUp+QfkUSMbNLyIYtcZpaRp90UDqFJew0/Z/ohWvr/HLS/ox23DhWr8jnR/Ieb8WSnNxfT0sGMuw+/pLuDGpuJUegEEX4APi25FzF8Me4EdEfSI7RUDgsF1nlMFhn/EKKkVtmcNrdqzi2UT9JOOUUIJN2D0L0lp3EdPF9RxxteK3r4rF6u/MnQevl3MQN8mQZISvI/EMz4uEh7nF5q81eYA1NV7Bxj8cwHiO0eiFr4Wt8RaWv7vmzTyBDuEQZttGfp7errw6yc8y7LyN/xh88Gui1OIXpqp09gReRQ0CnH+OAInbCNwHw6NKAQgeeDIxTvHN5kABVad2NDjGAp7ax5sMEj7m0jbhOv/GVVVKfTBfA5FWVfovwFig85itBPjvgAAAABJRU5ErkJggg==;" vertex="1" parent="CdcvYIRpf1g7k5c3ap87-57">
          <mxGeometry x="10" y="6" width="40" height="40" as="geometry" />
        </mxCell>
        <mxCell id="CdcvYIRpf1g7k5c3ap87-48" value="Deplegar modelo" style="text;strokeColor=none;align=center;fillColor=none;html=1;verticalAlign=middle;whiteSpace=wrap;rounded=0;" vertex="1" parent="CdcvYIRpf1g7k5c3ap87-57">
          <mxGeometry y="53.050000000000004" width="60" height="30" as="geometry" />
        </mxCell>
        <mxCell id="CdcvYIRpf1g7k5c3ap87-61" value="" style="group" connectable="0" vertex="1" parent="1">
          <mxGeometry x="389" y="51.94" width="102.88000000000011" height="73.66000000000001" as="geometry" />
        </mxCell>
        <mxCell id="CdcvYIRpf1g7k5c3ap87-46" value="Registrar modelo" style="text;strokeColor=none;align=center;fillColor=none;html=1;verticalAlign=middle;whiteSpace=wrap;rounded=0;" vertex="1" parent="CdcvYIRpf1g7k5c3ap87-61">
          <mxGeometry y="43.66000000000001" width="100" height="30" as="geometry" />
        </mxCell>
        <mxCell id="CdcvYIRpf1g7k5c3ap87-49" value="" style="shape=image;verticalLabelPosition=bottom;labelBackgroundColor=default;verticalAlign=top;aspect=fixed;imageAspect=0;image=data:image/png,iVBORw0KGgoAAAANSUhEUgAAAhAAAADMCAYAAAAiY5r0AAAACXBIWXMAAAsTAAALEwEAmpwYAAAgAElEQVR4nO3dT3Ic15Uu8O9kJigOuu3ik/kiPCCZWIGKE9t8PUBSWoCgFRCM6IlDgkisAMAKihSIp4kjAK5A1AJkFgYvGJZfNOEVZFJwByPabakUHjSbqMzTg6oCQaAAVOU9+Q/5/SLUbkqom7cAsPLkueeeCxARERERERERERERERERERERERERERERERERERERERERERERERERERERERERERERERHZkKonQEQl+joO3/vzGwywtjioZjJE1GQMIIgum+1/7yJNu+LJRyoaQqULRUdEO+e9TCEJoAMAA4Hsa6avILKP1Rv9UuZNRI3CAIKo6XpxB76/LL4saYbliwKFeanKAKL70HQTq4t9y7GJqLmCqidARDltHUQi+FQVKyLagSqkgEeCcUASKfDYfnQiaioGEERNs3UQQXRdoBGAQoKGqYbYL+lKRNQADCCImqIXhwj8nogul31pBfaxtpiUfV0iqi+v6gkQ0Qy2//oAQfBSBKUHDwAA1b1KrktEtcUMBFGd9eIOAn9HNFuutuQ561d5dSKqHwYQRHXVi0MsBM8FGlY9FQzRr3oKRFQvXMIgqqNe3K1L8DCuf2CzKSJ6DzMQRHXTi7sIgucC234OubH+gYimYABBVCejZYtvahM8AACyZ1XPgIjqh0sYRHVRp5qH49j/gYimYABBVBcL/k7dggcF+qx/IKJpGEAQ1cH2wboAUdXTOIX1D0R0BgYQRFXrxaGoblQ9jenY/4GIpmMRJVHVFoLngJZ2uaPTNUUSZNkrqAyAdLxM4Xcg2oV4SwINefomEZ2FAQRRlb6KV8qoe1CgjwzfYiF9ht/PdqaFfh2Hxc6KiJqs0ua4RK335CAuMoBQoA9NN5lJICJrzEAQVaXA7INCEujwPgMHIioKiyiJquIF60UMq6qPcTi8zeCBiIrEDARRFQrKPqjqJlZvbViPS0R0EjMQRFXw/HvWQzJ4IKIysYiSqGy9OJQFP7YcUlUfY/XWQ8sxiYjOwwwEUdl8246TCkkwzDYsxyQiuggDCKKyWS9fHA7v8rwKIiobAwiiMvXijuWZFwrZxdpsjaGIiCwxgCAqUxBEpuMdDjdNxyMimhEDCKJSZZHVSMw+EFGVGEAQlUnkI7OxmH0gogoxgCAqkVX9gwJ9Zh+IqEoMIIjKsh13zcbK8NRsLCKiHBhAEJVF/chsrDTtm41FRJQDAwiikghs6h+4fEFEdcDDtIhKokDXpHe86l8shinU1kHkPMbqjb7zGERUGAYQRGXoxR2BGtVAZM9sxilILw5F9LnLEArsA7htNCMiKgADCCpTD4DrTXQFwCv3qZQsCLqA2ow1xL7NQAUxea9S7/dIRAwgqFRdGLZxbhSxyT4oJKn/uRdZ5HzQb6Z7JlMhosKwiJKoDIolm4Gy+tc/WDTL8lNmIIhqjgEEURlEQpNxtObLF3BvlqWQAT5frP37JGo7BhBERbMtoOzbjFMQk2ZZyuCBqAEYQBAVLQjsOlDWvYDSolmWsv6BqAkYQBAVzuYETgX2a19AaVLrUfMsCxEBYABBVAKrEzi1/ttXLWo96p5lISIADCCIiicSGQ3UtxmnIAa1Ho3IshARAAYQRMXqxaFAOyZjac23NprUejQgy0JEABhAEBWrTQWUJrUeNc+yENERBhBEhWpRAaWIewFl3bMsRHSEAQRRkSy6MgJoRmpf3LMtq4t993kQURkYQBAVyuCmOhqnbzNOQbbjrmuthwJ9o9kQUQkYQBAVxeCmeqTuqf3U+ZRVQLX+53wQ0REGEERFyYLQbKy6F1CKZ5BpYQMpoiZhAEFUmDYVUHruBZR1D5KI6D1B1RMgqpJsxY/gBb8sYmxVRIAajCShbB/sGAx0Lk11D1/e3J37hSYNpCTB2mLiMgYRlYsBBLWb+A+gFjf5KUObjaMdKFaMhjtPvkOsgqDrHihlrH8gahguYVB79eKw6inUSpr2c71OLI4qr/kuEyI6hQEEtVdgWOTYcE5LCBYncNZ9lwkRncIAgtpLh2HVU6iRfu5XikGvCxZQEjUOAwhqL/HCqqdQGzr8NtfrRoeFhU6XbsIuEyI6hQEEtZhVm+lLYJgzA2FyWJgw+0DUQAwgqL0ENl0iG84tA2DQ6yLTfLs/iKhSDCCoxazOqWg4dbiBWxwW5rOAkqiJGEBQa5mdU9F42bO8rxQgcrmyQgb4fJEBBFEDMYCgdtqOmX2YyLsDwuR7qAweiBqKAQS1UxYw+4DxEdp56x/Uj9wnwPoHoqZiAEHtZNI98RJwuYFbNJDiCZxEjcUAgtpJ3XoXXB4ON3CR0PnybCBF1Fg8TIvaSbN99YJd+3GxbFGcqZAE4tAdclZfLOa7hskJnGwgRdRkbQ8gwhN/Hoz/qavwxJ/rPt/6+nJxF8Cu+bhPDroALJZH+vj8xn2DcYphcgKnvjKZS0mWXrwOkfkdeDIlQBwmuPpmsHebARG1R1sCiA5G282WMLoJd3H6ZjwxAJCM/9nD6IyAstOsEUZz/Ajv5nreU+0+RvM+Pl9+kFXA9an8Ha358dZZ5H5geT1P4Fx6GXfw5p+6vnpd8WVJBV2ZLHmdueh7BXh7BZ98//cBIPsC7Ktme8Mr/+gzqKDLqooAInR8fTLj13UALAO4h/n2qncwuml3x6+fXLMPYHOO688rAvApgBWcHyxMM7lpRQDWx///MwDfooinbJpu6yByfyofq/vplCKX6gTOUdDwi+XAl3s41C68yd9BhczzI1V0AI0UiAB5GLz9BT75/se+DvXbVN4+27vz66SA6bv52uhY+zcYVLIk1YtHP6umLod9HYf4fc6TcKfZOoggun7u11xdWMG//vqVbB/sqGqIw/SzU9+/Xhxiwd8BZB9f3FibNkzZAUQIIDYY47zUZwfAAwAPMf+N+Lxrroz/2YVtIBFhdNOPjMabWB7/s47RfHeNx6eTLHd2rOasTSiNuC9h1OA9Lr34W7Tg+5/qoa7AQwdqFAAepxqJjyjAld4n3//YH6b6dO/Oh7v2F8pHUt/1MxkAoAtYA/DIYqy5LAQvBRriyQ/nfplCknO/4GoQ4V9/Xe6yWi8OJfXjC+euMoCclVXWBF/cvHv0R284QOa9210l3gNAE6i+OzDvH29+Ho2LSIBQfX8ZJ+8RPiIBIj3n7/llW8J4AGADdoHDNCuwCSQiFBM4nBQC2AEDicIJ5COLDISWv2Q2n+24K+pWKKoux4cbWHrxtyjw/XWoRlpE0HAW1SjwEH38/Y/raaqbdQgkFJK4nqg6GqiCzq5fxSuzzv2ir9P/fnMN5z+cmpOFYH2WzwwR7eCM+5pm2HzvX4w6u777DHlycA8i+/ji5sbU1wP78HAPJ+8Nnn9vFHSdPb/Lso0zBPAco+i3rF/ilfE18zx19savjQznc5EQo0Cih/K+R62iNsWTqP3plKnB+9RqajyWXsadj//0407gec+hGlUxBwAQ1TDwsPPx9z/GSy/+vlLVPMZsUv+ed8tknLmuGZyfqp9H6pfbG6YXh4CuuAyhkARf3tx1GUNE9gWIjpaCxnMTIIJm357z0ksRQCwDeIlyb8YT4fjaD2f8+g5GgcOsX1+EhxjNOaxwDpdSawooxTN4n+U3kPr4+58eBIe/iMXxQ9vSsUBiZ+nF67CSSWhm8/um2TWTcWY1R/ZhJiU3lxtlHxxlunnxF51PU91TSIIFf+XoXwbeikJ2ccHDZtMDiAcAvkH1T9Q9XBwUhKgu0DkpxCiQCaudxiWydRCZjVWj4sKpxHMvoCyxgdTSi9fhJ9//+Fw0ezQqcqwfUV0J/A92Krq8UfGh/NJmnBn04tA0+wAAnlfu/GuQfXg3WPYUoyL+EfHuQYdPL3pZkwOIB6iiYOdsPYx2fEwTon437BD1m1NztaWA0qSBlCRYM6w6P8fS//uPru9/UOlyxWzk2XBBPqvm0hcUF84+TmgyziyuBPdMsw8AoOVlIGQheOA8iEH24cgweyRAhD+8vnX0MDTD51BTA4gu6hU8TDzC6RtyB6Msycl/XwchRkFELZ/KmmRUQOmu6uLCCwWBxfJFKUs0n/z/n+4Fgf9Saty2XAUDRbb23W//12d7t69Vsw1RjQKIsvTiUFQ37AeW0H7MKXpxqO9aBORimn0AgLXFgQJ9/Nfb+yK4hxk/h5oYQCxidEOuow5GhYrHrcOsuK4QId71jqCczAooKyounJlJpqX4BlIf//mndaTZbtHXcZGJJOmhd/ePv71e7cPQcGiynFRWoGZSOzBtXGgHf3hdfCGoRfbEMvvwzrcQWVIgggwfz/KCJgYQ66jn0/xEhHf1ECuotmByVg9Rj9qMxjIroNSa78CwOIGz4BqPj//807pk2UaR13CVqT7OFuT23r9cq8PP2y7zcbySvwgGtQPnGm3lLJZixe3lxtmHicN0d9zfZTDeCnqhJgYQUdUTmMEk69CkJ/sdcCkjH8sCSr/uBZTiHigVWEBZ9+BhsmTx/He/eljZksVJa4sDhdjM5Z+vFlqIWFT24UjRWzktdo4Uk30YdfLU7DE0nXn8y9ZIqi4m2zWbdEMOMcpEbFQ7jQayLKCcMfKvRC8OXT/8ijyB85M//ecyah08yH6aymd7dz5Mqp7LFANYfF7915tFFNWMadQqfqWQsSeK3srpzdY46iyj7MON3TlflSDTn8/8b5K++/u4emvjxBcMIDgzKGQAUZwmBQ8Tk50t9XgyagjDDpR999kUyOQEzmKWaJZevA4hsmN1FMlJKpIAWV9TfZXBSwJPB4B3D9CZiuEy1cfZFW9j7zc5sw7bf30AaAef3yjm6VN1H2KyNFzc555or7CxJ4rcyllV9uF4m+t5/hsArN46dwmeAQQd18GobqOOO1xqS4Gu67mUo4FqXkBpcQJnpnsXf9F8ll7GHf/wg+fmrZQFfR3izEOwPvn+xwcXBSwqGIjq/ee/+9WzXHPoxR0E/o5otgwAuhX/BauL+cY6l/7sfroqAPWLCSC+ilekjGL0IrdyVpJ9KNZlDiD6GB1vPekLPsC7NF2I94/4jiqY3zQJRido9nH2nLsYNfyICprDp2AAMZfWFFCKwVbVAmo8/MPOumgWWo2nIruSpk+/u3O97zSQoJ+m3v29O9eSXK/fOogg2HnvqVWCHfTiffM+GiL7OLuPzey8gjIQjjff2UlYyLB1rn1wcBkDiF0Aj3H2gUSDY/+tP/7fEKO1f/e/QPn0MTroqn/Gfz8550m/iQ3YzznCKFDhMsYsLI/wrnkBpTgGrQqZubp7Vkt/+s9l0cxmp5OgjzTb/KNr4AAgy7LN53eub+QeYPuvD0SzU4G8QDu64O8AOD/1PK8sHcDz3ccpYiundcvqcwi0o394fcv8VE6L7EM67NtNyEYTd2GcZR/AbQD3Mf9phglGqftF2B3TPYsBRh8EdzH/+neC4ubs1OSkVdpSQLkdG7xPtc8+iOe8Ln7UzOk3H951zTpkIgmy7G7u4KEXh3jyw/NpwcOEABG24ijnFKfzjXbGFFFDYN2y+iLWWzktAiDNnpbVvXUelyWAeIrRTdj1L0FiNM6s17oN98K5yTiWc3bf698SrelAqX7kPoZt/cPHf/5p3bV5kUszJz15roagny3I7dxByNZBhCB4OVOmZ7SUYbdc8NYo42h9oNb2wXpZ2Ycj1ls5Pd8pS6yQBMN6NkW7DAHEU4yexK1S7glGQURiNF4Z15hkMqyCiMhonEuvNR0oLRpIGZ7AufTidQh129KXiSRZKndzN3M6FkBMMhh5ezvIk4OeiD4Xma0QVKAhAs+uSZ3Z063hgVq9OHRtupSLZVZx6yByXfqra/YBaH4AkaCYTo8DjJZCipCgmABlAMDqMJ4QzdyGWroWFVCGzmMYNpDyg6v3XLIPR8FD3gLHY+MMh97t3O2oe3GIJwcvAZ3/c0y8B5ZZCIXBmRiGB2rJQlB+9gGwXYYRdVp+qXP2AWh+AHEXxRX79THKbljbRHHZjWQ8voXQaJzLqy0dKE1O4DRuIOWQfbAKHpClFu2oczdwEmgHC/6Kw7VP0MR9CKMHj6JbVp/HaitnLw4vc/YBaHYAsYviCx53jcfrFzDmSVZbMIvfc910RqnOInYnmDI5gVPNqtqXXvx9xSX74Gm25hw8APjj/7n+yLkd9driAIfDuw6tpD91uv5x6v4zEtj04nBpWa3OS7kSur1+PIpj2+26Zx+AZgcQZeyJ7cO2uK2MOQ9gM2cuYVzAqoCyiN0JtrLIfQy7EzgDX3IXpWWqj7/7bc6mTkVZW0zy7vE33pGRmIzieqKla/ZB0vsuZ3uYnMppkUGpefYBaG4A0Ud52y2tKscTlFdp/63BGAwgLtCaAkqR2pzAOS6ejPK8NhNJsg/8DYt5mPvy5qP8O3E8m23XmiUm47ga9bnIRSG7o2yeY1DuuJWzDdkHoLkBRBG1CWfpG41jcVOfVb/Ea7WWWQGl4e6EYhicwLm62HefBwBcifK+Mkt1szYnYE4j6Vqu13mezTKGBDbfm9GBWvmMWlZHuV9/OBxlclyXY1y2crYk+wA0N4AoM+WbGI1TZto0KfFa7WRZQOnV+Oe1HXdd17Ute1zkXb7IRJK9Ox/uWs2jEJ8v7qvO/zkhqqFzyh0AhkOrz9X8vy8OTaMUsnt00xXHXU0O9U1tyT4AzQwgjrd1LkNiNE6Zcx6AQUSx2lJAmRos01gu0eRdvkjrd47AdOnjXC97c2ixhduomVTOA7VcOzZOsg8AoI5bUvNu5WxR9gFoZgBRxYdtYvD6+qZOaW5tKaAUL6hNA6lPXvwtyv9qz2QOhVtd7OfK2FgcdLa2OHApPnw3l5xBgFX2AXDPpuTcymmQfRg0JfsANDOAaKKkJddsjbYUUJq8T6MGUqo55yLoW2zbLE2+lt+R0dUTgzHmz0BYZh8AYG0xcQuGZP652PSueNaU7APQzAAiqXoCRK0ooDRpICWJ1QeiehLmep1mZRYwG5j/d8L1TJAjatBMat70fy8OnbIPqptn/I5N+3czybWV80rgfjLyyUCo5poYQBBVqy0FlCYNpDKzDIvnebnS9OlQ+1ZzKMXqYj/X07NFIaVFw695D9S6EtzLm304t+BQHX/35tnKaXBux6llmAZgAEE0r7YUUJq8T7sGUqdOv5zR3r/87/p+j8+WzP0Kl+2TE2JwHsY8B2r14lBUN3JfKjsz++C+E2OerZw+IudzOxqWfQAYQBDNrS0FlCYncBo1kAKQqzhPTW6IFcjz9Kx+6HzdLDUoopSZ5+HWsloSfHlz9+wvcPzZzxNAOyzBAM3MPgAMIIjm1pYCSohBAynDEzglRwZCLA6IqkZSyVV9g5/XrD8n16LDi9p/u+7EmLWWw7UAFGhk9gFgAEE0t5YUUIauH4rmJ3BS8d66bzeftfFYodkHAM5P9LNu5Wxp9gFgAEE0HxZQzsFxDZrK57z9ceyigs6tg6jQ7MOYwmUZQ8ILv6TF2QeAAQTRfNpSQGlxAmeWq58BVa/4rJHA5cCsi7MPR1+c5f4dnGkrZ4uzDwADCKK5tKaA0qKzoW9YQAlAZf4bm6o09VTZ6uatBr+b5+0IcX1q1+E8h44lua8DnL+Vs+XZB4ABBNFc2lJA6XQiIgrKsGTzp9Ylb1vlquUJ4CRNbC6uP7sPcc6OEKeW1ehjdXH2A8dcjyg/bytny7MPAAMIorm0ooDSpM6jgAxLjgwEFJ2P/+0ngwZLZcuROfHMlh4So3FOc25Znd6f6+tdd5WctWS5dbDc9uwDwACCaHZtKaC0qPPId57DudIsX2dBeZPetp5LofK2ELfK+Lg+tQPTe3b04o7pgVmzeOv49+ysrZyiD1yGvQzZB4ABBNHs2lJAadFAqoAMi59zbT7zzA6aKkcQRPO+RC1PKZYgMRjldAblSvDA9MCsWYxOGE1yX3PaVs6tg8h1ie8yZB8ABhBEM2tRAWXoPIZhA6kJ8fPdCDxP3A85KpEIPp3/VQZnWEwMh4nzGCef3B3PinB6YncqCpVwyoDMPowxgCCaUSsKKE1O4CymgdTwit/P9UJFZ+nF3yLTyRSlF3cUWJ7/hXZnjpjc3E4cqCULwXrp2Yd3k8kdXJ3aytmLQ5E8P59jLkn2AWAAQTSzVhRQmjSQMnwaPmbv9rWB5mxOFfi+U8V8aXwsz9rJ8T2S9i2n4daACQDkvZuuS9Mo5yd2zdyyYce2crp0zwQuV/YBYABBNJu2FFBaNJCyfBo+QfM2BlKNll68Dm1nU4AcRYYKSQqoqXHLIMm7XSTOLatdn9hdd2JMtnK6nt0BXKrsA8AAgmg2bSmgFHEvoDR+Gj7OU529B8AJgf9B7u6Hpci/xbFvPJN8p4G+9/pxEaXrTVezp85P7K47McZ/95l9OI0BBNEMWlNACYMTOAsMkL67c72fpyMlgHEWoqa1EL04zL3FUYdPjWcDOGYgjpZhFny3ltXDbNdlHgDcd2J43i+ZfZiOAQTRDFpRQLkdd3Otvx+jRTwNnyBp9jjva33f31l6+VPt2lvnLTJUSILVxb79hFxrIABsvdpw2u6Y6abdE7vDse6qXWYfpmMAQTSDVhRQpgZBUgkB0vBq8Cjva0U19P473TCZSC/uoBe7ByPbB+u5n25nPJVybmoQQMDLvd1xrgOzZhrQ5fdSQmYfpmMAQXQRywLKAvojWBEvqGUDqZP2bl8bQPIVamZZtvn8d7966DyJrYMIC8FL/PPV6Z0KZx4nXhbVjTwvVcgAaUH1Jp57LwgRh2yWdWDkkFFxz8pdzuwDwACC6GKWBZQ1/iAxWaYpK0BK07luMJlIgiy7+/zO9Q3na28frIvoc+ezEHpxFwhcCjufFfb75Fp46MA8+wAYZVRyuqTZB4ABBNGFWlFAadJASpKyAqTv7lzvz5yFEPSzBbn93Z3rs339WXpxiCc/PH8vY/CPN7lOrvT+77/fQxA8z/uUbrK98TyjwkPzZmAzKWJZZjis5O/eZc4+AAwgiC5kWEBpfsCUGZMGUo5b/+Y0TOXCkxkV2dp3v/nw7t7ta243w62DCEHw8lRRYJ6Om9sH65qlu04pfujjEm5MpQcQhWQfAGBtMakkILrE2QeAAQTRhQwLKOubgTBZpimugdQ0e3euJciyqR/QmUgyHHq3//jb67kLLifkyUFPRHNnC45My2DkoJAEX9x0fl8XX6iCjJkO5zuuez5JgWOfctmzDwAQVD0BolrbOogAtRmrxgWUUCxBXMdIS39/w6vBI+9Q73l6rB4h06fZVe/h3m8csw69OMRC8A1cA8he3MGV4AEyPHQtyAMAHA7vOo8xE/0Zzr8Uc1xN8AxfFLAl9egC2V8gBn1OZnXJsw8AMxBE52tJAaXJB2sFAdLe7WsDL03vA4AKBops7bs7v1pxXrLY/uuD0ZKFw89/6yCSJwc9BEEsqhvOGQwAqpa9ES4g+c4dye1tulbo+CW+nzZkHwBmIIjONSqgtMhA1LqAMnTdUVDUCZyz+O7O9f7Si7/fB7z+3p0PE6fBenFHFoJ1aPbwoodvPbk18Os4xDDoimBJgeXJ91SMHuIV6GP11obNaDPI0gE8v5RLlXLDVUkgRtnEi7Qg+wAwgCA6lwJdk8//2hdQOn6wVvz+9u58uOs8SC/ujpcswpm+XtHBkx9eAtKBoiOpdiY3KOvE/3jXRZH1Aaf52LdavbtQGTfc4XAfC8UHRG3JPgBcwiA6VysKKC1O4NSS093WRksWc/V2EGhHgK5AQ4vlibOMg4e7pd+U3pazC6O0G25ZOzFakn0AGEAQna0lHSghBn0u/PILKE304g62fvhGNHtUZBCQl6oMcDj8rJIn2rKuWe4NNyly8DZlHwAGEERna0kBpdOBR2jAEeVnGbejFsFy1VOZZnQa5fAu1qr73jqdYjnL+FpKP4tjFyy4V0mLsg8AAwiiM7WiA6VJlqXG7+8sVu2oC3Js2aLi763DKZYXjTw6rrv4fhbvS4oauG3ZB4BFlERnakUBpUWWpc7v76ReHGLB3xHVqOqpnEWBPg6H92txM1J9ZbaN5NTY2dPS36NmCaSgQsqWZR8ABhBEZ2rFEd4WDaTq/P6OG2VbvjFp5lQQVX2M1Vvup4XaSYoYVCEJVm9uFDH2uQraWdLG7APAAIJourZ0oBQJnd9nnd/fRC/uANmKiNQyeFBIAh3ex2qBnRjzKOqJvYgDs2bxFgkWChhXho8LGLX2WANBNI1dAWVSVYOlC5mcwFldA6m5rC0OsHprRbP0ftGFgfNQlYGqbuJweLt2wQMASGD+sy3swKxZjE4ZTSyHVKDfyCJiAwwgiKawK6As94TKuZicwKmv3Mco0ZeLu/jixmLVgcRR4DAcLmL11kZtg7AijsGuKvswYX1ImKatq32Y4BIG0RR2BZR1Tu9nkXvPxHJP4DTz5eIugF39Kl6BF6yXtRtDVQZA9hjD9FFtg4b3mc5xlH24sWs5Zo5ZvLLqFTpqL17DzFFJGEAQTdGKAkqRJfcx0r77RCo0CSS24y4y7yHEW7IOJlRlAA/PkA2fNu5ms7Y40CcHA7PC06qzDwCg2b5ZXUeLsw8AAwii09pSQAlxPwPjsqz9jt7HCgDodtxF6kfwsQRFKMBcweQoYNA+Mv0LkPUxbEidyNkSzPk9mEaBfmW1D8cZ7cRoe/YBYABBdFpLCiih2WOnz1GtTzGiqVEwsQ/gETAOsbbjLjJ0oAgBv4NJ22uVAZAOIBjAQ4K3qO/PPC/VBOIeQNTmad1qJ0Zd3k+FCuoQQtRc8uRgB9AV13EU+i2+uFXLNslEM+vFHVyF+xLG72vUJ+HrOHQeo07vpyLMQBCd0I4CSqIZjTIqlyurwpu/CW7jJDqhFQWURESOGEAQHdeWI7yJiBwxgCA6rg0FlEREBhhAEB3Tig6UREQGGEAQHaMG+93HA3H5goguNQYQRBMGh0u9wwJKIrrcGEAQTQRBZDYWCyiJ6GdFU98AAALjSURBVJJjAEE0JoJPLcZpzBHXREQOGEAQAUAv7ihg1DWyYUdcExHlwACCCAB8LJudONjUI66JiObAAIIIALxg3WwsTVn/QESXHgMIoq2DSKCh2XgsoCSiFmAAQSTYsRpKgT4LKImoDRhAULt9Fa+YZh9U98zGIiKqMQYQ1F69ODStfQAAL3tmOh4RUU0xgKD2Wgi+scw+KCTB54usfyCiVgiqngBRFeTJQQ9mbavHNHtqOh4RUY0xA0GtMw4eHpoPPMx2zcckIqopZiCoPXpxB4G/A6hRx8l3FLKLtcXEelwiorpiAEHtsHUQQbBjuuPiOB1y+YKIWkWqngBRobYOIoiuCxAVdQkF+vji5t2ixiciqiNmIOjy6cUd+P4KPHwq0Kjw60m6Vvg1iIhqhgEE1d/WwTIEPYjuI8UeRI5vlexAtQPRUDzvlips21JfQCG73LpJRG3EAIJqTwSfAhpCEcLDMqAnvmD8f1RLXZNTSILD4WaJlyQiqg1u46Ta0wLrF5xkusmdF0TUVsxAUL1Zn5RpRCG7+PLGbtXzICKqCjMQVHOZec8GV+OlCxZOElGrMYCgehNvqeopHDcOHu7yyG4iajv2gaD66sWhLPhx1dOYOBY8JFXPhYioasxAUH359SmeZPBARPQ+BhBUX55/r+opAAweiIim4RIG1VMv7siC/1PV01DFMwzT+6x5ICJ6H7dxUj0FQXSqYVSJVGUA0U2s3nxU2SSIiGqMAQTV0qj7ZDUU6GM4vM8lCyKiszGAoFpSICp7fU2BPjTdxOpiv+RLExE1DgMIqp+Su08ycCAimh8DCKof1W7R5b2joEH3MMwesUCSiGh+3IVB9dSLOwjQBbwInnwERShAN89Q44LIBCL7SId7SPGMQQMRkRsGENQsX8chhgjHf+pA0TnzawUJAiT4PYshiYiIiIiIiIiIiIiIiIiIiIiIiIiIiIiIiIiIiIiIiIiIiIiIiIiIAAD/A06TbpW2w2D0AAAAAElFTkSuQmCC;" vertex="1" parent="CdcvYIRpf1g7k5c3ap87-61">
          <mxGeometry width="102.88" height="39.75" as="geometry" />
        </mxCell>
        <mxCell id="CdcvYIRpf1g7k5c3ap87-62" value="" style="group" connectable="0" vertex="1" parent="1">
          <mxGeometry x="682.36" y="60.00000000000002" width="54" height="83.53999999999995" as="geometry" />
        </mxCell>
        <mxCell id="CdcvYIRpf1g7k5c3ap87-20" value="" style="shape=image;verticalLabelPosition=bottom;labelBackgroundColor=#ffffff;verticalAlign=top;aspect=fixed;imageAspect=0;image=data:image/svg+xml,PHN2ZyB4bWxuczpjYz0iaHR0cDovL2NyZWF0aXZlY29tbW9ucy5vcmcvbnMjIiB4bWxuczpkYz0iaHR0cDovL3B1cmwub3JnL2RjL2VsZW1lbnRzLzEuMS8iIHhtbG5zOmlua3NjYXBlPSJodHRwOi8vd3d3Lmlua3NjYXBlLm9yZy9uYW1lc3BhY2VzL2lua3NjYXBlIiB4bWxuczpyZGY9Imh0dHA6Ly93d3cudzMub3JnLzE5OTkvMDIvMjItcmRmLXN5bnRheC1ucyMiIHhtbG5zOnNvZGlwb2RpPSJodHRwOi8vc29kaXBvZGkuc291cmNlZm9yZ2UubmV0L0RURC9zb2RpcG9kaS0wLmR0ZCIgeG1sbnM6c3ZnPSJodHRwOi8vd3d3LnczLm9yZy8yMDAwL3N2ZyIgeG1sbnM9Imh0dHA6Ly93d3cudzMub3JnLzIwMDAvc3ZnIiB4bWxuczp4bGluaz0iaHR0cDovL3d3dy53My5vcmcvMTk5OS94bGluayIgdmVyc2lvbj0iMS4xIiBpZD0ic3ZnODEyMjkiIGlua3NjYXBlOnZlcnNpb249IjAuOTIuMyAoMjQwNTU0NiwgMjAxOC0wMy0xMSkiIHNvZGlwb2RpOmRvY25hbWU9ImRvd25ncmFkZS5zdmciIHg9IjBweCIgeT0iMHB4IiB2aWV3Qm94PSIwIDAgMzUuMjUgMzUuMjUiIHN0eWxlPSJlbmFibGUtYmFja2dyb3VuZDpuZXcgMCAwIDM1LjI1IDM1LjI1OyIgeG1sOnNwYWNlPSJwcmVzZXJ2ZSI+JiN4YTs8c29kaXBvZGk6bmFtZWR2aWV3IGJvcmRlcmNvbG9yPSIjNjY2NjY2IiBib3JkZXJvcGFjaXR5PSIxIiBmaXQtbWFyZ2luLWJvdHRvbT0iMCIgZml0LW1hcmdpbi1sZWZ0PSIwIiBmaXQtbWFyZ2luLXJpZ2h0PSIwIiBmaXQtbWFyZ2luLXRvcD0iMCIgZ3JpZHRvbGVyYW5jZT0iMTAiIGd1aWRldG9sZXJhbmNlPSIxMCIgaWQ9Im5hbWVkdmlldzgxMjMxIiBpbmtzY2FwZTpjdXJyZW50LWxheWVyPSJzdmc4MTIyOSIgaW5rc2NhcGU6Y3g9IjIzLjUyMDE3OCIgaW5rc2NhcGU6Y3k9IjIzLjA5NDQ5MSIgaW5rc2NhcGU6cGFnZW9wYWNpdHk9IjAiIGlua3NjYXBlOnBhZ2VzaGFkb3c9IjIiIGlua3NjYXBlOndpbmRvdy1oZWlnaHQ9IjEwMTciIGlua3NjYXBlOndpbmRvdy1tYXhpbWl6ZWQ9IjEiIGlua3NjYXBlOndpbmRvdy13aWR0aD0iMTkyMCIgaW5rc2NhcGU6d2luZG93LXg9Ii04IiBpbmtzY2FwZTp3aW5kb3cteT0iLTgiIGlua3NjYXBlOnpvb209IjE2Ljc5ODU3NSIgb2JqZWN0dG9sZXJhbmNlPSIxMCIgcGFnZWNvbG9yPSIjZmZmZmZmIiBzaG93Z3JpZD0iZmFsc2UiPiYjeGE7CTwvc29kaXBvZGk6bmFtZWR2aWV3PiYjeGE7PGcgaWQ9InNoYXBlNTMzNC0yIiB0cmFuc2Zvcm09InRyYW5zbGF0ZSg1LjEzNjgxNSwtNC41MDI0OTUpIj4mI3hhOwk8dGl0bGUgaWQ9InRpdGxlODExODgiPnBhdGgxNjU1MTwvdGl0bGU+JiN4YTsJPHBhdGggaWQ9InBhdGg4MTE5MCIgaW5rc2NhcGU6Y29ubmVjdG9yLWN1cnZhdHVyZT0iMCIgc3R5bGU9ImZpbGw6I0ZGRkZGRjsiIGQ9Ik0yOC43OCwyMS44NWMwLTkuMzEtNy41NS0xNi44Ni0xNi44Ni0xNi44NiAgIFMtNC45NCwxMi41NC00Ljk0LDIxLjg1czcuNTUsMTYuODYsMTYuODYsMTYuODZjMCwwLDAsMCwwLDBDMjEuMjMsMzguNzEsMjguNzgsMzEuMTYsMjguNzgsMjEuODV6Ii8+JiN4YTs8L2c+JiN4YTs8ZyBpZD0ic2hhcGU1MzM1LTQiIHRyYW5zZm9ybT0idHJhbnNsYXRlKDAuNzg1Nzg0OTYsLTI0Ljg1MDk1NSkiPiYjeGE7CTx0aXRsZSBpZD0idGl0bGU4MTE5MyI+cGF0aDE2NTUzPC90aXRsZT4mI3hhOwk8cGF0aCBpZD0icGF0aDgxMTk1IiBpbmtzY2FwZTpjb25uZWN0b3ItY3VydmF0dXJlPSIwIiBzdHlsZT0iZmlsbDojQkFEODBBOyIgZD0iTTEzLjY3LDI1LjYzQzcuNDksMjYuNzgsMi40MiwzMS4yLDAuNDQsMzcuMTYgICBDMC4yNywzNy42NywwLjEyLDM4LjIsMCwzOC43MWgzMy43MmMtMC4xMi0wLjUxLTAuMjctMS4wNC0wLjQ0LTEuNTVjLTEuOTktNS45Ny03LjA2LTEwLjM5LTEzLjI1LTExLjUzSDEzLjY3eiIvPiYjeGE7PC9nPiYjeGE7PGcgaWQ9InNoYXBlNTMzNi02IiB0cmFuc2Zvcm09InRyYW5zbGF0ZSg1LjcxODE5NSwtNC4yMTE4MDUpIj4mI3hhOwk8dGl0bGUgaWQ9InRpdGxlODExOTgiPnBhdGgxNjU1NTwvdGl0bGU+JiN4YTsJJiN4YTsJCTxwYXRoIGlkPSJwYXRoODEyMDAiIGlua3NjYXBlOmNvbm5lY3Rvci1jdXJ2YXR1cmU9IjAiIHN0eWxlPSJmaWxsOm5vbmU7c3Ryb2tlOiM1NTZBOEE7c3Ryb2tlLXdpZHRoOjEuNTtzdHJva2UtbWl0ZXJsaW1pdDozOyIgZD0iICAgTTI4Ljc4LDIxLjg1YzAtOS4zMS03LjU1LTE2Ljg2LTE2Ljg2LTE2Ljg2Uy00Ljk0LDEyLjU0LTQuOTQsMjEuODVzNy41NSwxNi44NiwxNi44NiwxNi44NmMwLDAsMCwwLDAsMCAgIEMyMS4yMywzOC43MSwyOC43OCwzMS4xNiwyOC43OCwyMS44NXoiLz4mI3hhOzwvZz4mI3hhOzxnIGlkPSJncm91cDUzMzctOCIgdHJhbnNmb3JtPSJ0cmFuc2xhdGUoOS43NTY1MTUsLTEzLjgwNDY1NSkiPiYjeGE7CTx0aXRsZSBpZD0idGl0bGU4MTIwMyI+ZzE2NTYxPC90aXRsZT4mI3hhOwk8ZyBpZD0ic2hhcGU1MzM4LTkiIHRyYW5zZm9ybT0idHJhbnNsYXRlKDcuMzAyMTksLTE2LjkwMDkpIj4mI3hhOwkJPHRpdGxlIGlkPSJ0aXRsZTgxMjA1Ij5yZWN0MTY1NTc8L3RpdGxlPiYjeGE7CQk8cmVjdCBpZD0icmVjdDgxMjA3IiB4PSIwIiB5PSIzOC42MyIgc3R5bGU9ImZpbGw6IzU1NkE4QTsiIHdpZHRoPSIxLjE2IiBoZWlnaHQ9IjAuMDgiLz4mI3hhOwk8L2c+JiN4YTsJPGcgaWQ9InNoYXBlNTMzOS0xMSI+JiN4YTsJCTx0aXRsZSBpZD0idGl0bGU4MTIxMCI+cG9seWdvbjE2NTU5PC90aXRsZT4mI3hhOwkJPHBhdGggaWQ9InBhdGg4MTIxMiIgaW5rc2NhcGU6Y29ubmVjdG9yLWN1cnZhdHVyZT0iMCIgc3R5bGU9ImZpbGw6IzU1NkE4QTsiIGQ9Ik0wLjgzLDI5Ljk2bDYuNDcsNi40OFYxOS41NmgxLjE2djE2Ljk2ICAgIGw2LjQ4LTYuNDdsMC44MywwLjgybC03Ljg1LDcuODRMMCwzMC43OEwwLjgzLDI5Ljk2eiIvPiYjeGE7CTwvZz4mI3hhOzwvZz4mI3hhOzxnIGlkPSJzaGFwZTUzNDAtMTMiIHRyYW5zZm9ybT0idHJhbnNsYXRlKC0wLjk2NDE4NTA0LC0yLjE3Njk1NSkiPiYjeGE7CTx0aXRsZSBpZD0idGl0bGU4MTIxNiI+cmVjdDE2NTYzPC90aXRsZT4mI3hhOwk8cmVjdCBpZD0icmVjdDgxMjE4IiB4PSIwIiB5PSIxLjUiIHN0eWxlPSJmaWxsOm5vbmU7IiB3aWR0aD0iMzcuMjEiIGhlaWdodD0iMzcuMjEiLz4mI3hhOzwvZz4mI3hhOzxnIGlkPSJzaGFwZTUzNDEtMTUiIHRyYW5zZm9ybT0idHJhbnNsYXRlKDEwLjA4MjExNSwtMTAuODk3NzI1KSI+JiN4YTsJPHRpdGxlIGlkPSJ0aXRsZTgxMjIxIj5yZWN0MTY1NjU8L3RpdGxlPiYjeGE7CTxyZWN0IGlkPSJyZWN0ODEyMjMiIHg9IjAiIHk9IjM3LjU1IiBzdHlsZT0iZmlsbDojNTU2QThBOyIgd2lkdGg9IjE1LjEyIiBoZWlnaHQ9IjEuMTYiLz4mI3hhOzwvZz4mI3hhOzwvc3ZnPg==;" vertex="1" parent="CdcvYIRpf1g7k5c3ap87-62">
          <mxGeometry x="5.75" width="42.5" height="42.5" as="geometry" />
        </mxCell>
        <mxCell id="CdcvYIRpf1g7k5c3ap87-45" value="&lt;span style=&quot;color: rgb(0, 0, 0); font-family: Helvetica; font-size: 12px; font-style: normal; font-variant-ligatures: normal; font-variant-caps: normal; font-weight: 400; letter-spacing: normal; orphans: 2; text-indent: 0px; text-transform: none; widows: 2; word-spacing: 0px; -webkit-text-stroke-width: 0px; white-space: normal; background-color: rgb(251, 251, 251); text-decoration-thickness: initial; text-decoration-style: initial; text-decoration-color: initial; float: none; display: inline !important;&quot;&gt;Guardar&lt;/span&gt;&lt;div&gt;&lt;span style=&quot;color: rgb(0, 0, 0); font-family: Helvetica; font-size: 12px; font-style: normal; font-variant-ligatures: normal; font-variant-caps: normal; font-weight: 400; letter-spacing: normal; orphans: 2; text-indent: 0px; text-transform: none; widows: 2; word-spacing: 0px; -webkit-text-stroke-width: 0px; white-space: normal; background-color: rgb(251, 251, 251); text-decoration-thickness: initial; text-decoration-style: initial; text-decoration-color: initial; float: none; display: inline !important;&quot;&gt;modelo&lt;/span&gt;&lt;/div&gt;" style="text;whiteSpace=wrap;html=1;align=center;" vertex="1" parent="CdcvYIRpf1g7k5c3ap87-62">
          <mxGeometry y="43.53999999999995" width="54" height="40" as="geometry" />
        </mxCell>
        <mxCell id="CdcvYIRpf1g7k5c3ap87-67" style="edgeStyle=orthogonalEdgeStyle;rounded=0;orthogonalLoop=1;jettySize=auto;html=1;entryX=0;entryY=0.5;entryDx=0;entryDy=0;" edge="1" parent="1" source="CdcvYIRpf1g7k5c3ap87-24" target="CdcvYIRpf1g7k5c3ap87-8">
          <mxGeometry relative="1" as="geometry" />
        </mxCell>
        <mxCell id="CdcvYIRpf1g7k5c3ap87-71" style="edgeStyle=orthogonalEdgeStyle;rounded=0;orthogonalLoop=1;jettySize=auto;html=1;" edge="1" parent="1" source="CdcvYIRpf1g7k5c3ap87-2" target="CdcvYIRpf1g7k5c3ap87-15">
          <mxGeometry relative="1" as="geometry" />
        </mxCell>
        <mxCell id="CdcvYIRpf1g7k5c3ap87-72" style="edgeStyle=orthogonalEdgeStyle;rounded=0;orthogonalLoop=1;jettySize=auto;html=1;entryX=0;entryY=0.75;entryDx=0;entryDy=0;" edge="1" parent="1" source="CdcvYIRpf1g7k5c3ap87-15" target="CdcvYIRpf1g7k5c3ap87-30">
          <mxGeometry relative="1" as="geometry" />
        </mxCell>
        <mxCell id="CdcvYIRpf1g7k5c3ap87-75" style="edgeStyle=orthogonalEdgeStyle;rounded=0;orthogonalLoop=1;jettySize=auto;html=1;entryX=0.5;entryY=1;entryDx=0;entryDy=0;" edge="1" parent="1" source="CdcvYIRpf1g7k5c3ap87-26" target="CdcvYIRpf1g7k5c3ap87-41">
          <mxGeometry relative="1" as="geometry" />
        </mxCell>
        <mxCell id="CdcvYIRpf1g7k5c3ap87-77" value="" style="group" connectable="0" vertex="1" parent="1">
          <mxGeometry x="662" y="-210.00000000000003" width="94.72000000000003" height="61.34" as="geometry" />
        </mxCell>
        <mxCell id="CdcvYIRpf1g7k5c3ap87-30" value="" style="shape=image;verticalLabelPosition=bottom;labelBackgroundColor=#ffffff;verticalAlign=top;aspect=fixed;imageAspect=0;image=data:image/svg+xml,PHN2ZyB4bWxuczpkYz0iaHR0cDovL3B1cmwub3JnL2RjL2VsZW1lbnRzLzEuMS8iIHhtbG5zOmNjPSJodHRwOi8vY3JlYXRpdmVjb21tb25zLm9yZy9ucyMiIHhtbG5zOnJkZj0iaHR0cDovL3d3dy53My5vcmcvMTk5OS8wMi8yMi1yZGYtc3ludGF4LW5zIyIgeG1sbnM6c3ZnPSJodHRwOi8vd3d3LnczLm9yZy8yMDAwL3N2ZyIgeG1sbnM9Imh0dHA6Ly93d3cudzMub3JnLzIwMDAvc3ZnIiB4bWxuczpzb2RpcG9kaT0iaHR0cDovL3NvZGlwb2RpLnNvdXJjZWZvcmdlLm5ldC9EVEQvc29kaXBvZGktMC5kdGQiIHhtbG5zOmlua3NjYXBlPSJodHRwOi8vd3d3Lmlua3NjYXBlLm9yZy9uYW1lc3BhY2VzL2lua3NjYXBlIiB2ZXJzaW9uPSIxLjEiIGlkPSJzdmc3MjQ4MCIgaW5rc2NhcGU6dmVyc2lvbj0iMC45Mi4zICgyNDA1NTQ2LCAyMDE4LTAzLTExKSIgc29kaXBvZGk6ZG9jbmFtZT0iY29nbml0aXZlX3NlcnZpY2VzLnN2ZyIgeD0iMHB4IiB5PSIwcHgiIHZpZXdCb3g9IjAgMCAxMjAuMDg2OTIgNzEuMTMiIHhtbDpzcGFjZT0icHJlc2VydmUiIHdpZHRoPSIxMjAuMDg2OTEiIGhlaWdodD0iNzEuMTI5OTk3Ij48bWV0YWRhdGEgaWQ9Im1ldGFkYXRhMjE1MTkiPjxyZGY6UkRGPjxjYzpXb3JrIHJkZjphYm91dD0iIj48ZGM6Zm9ybWF0PmltYWdlL3N2Zyt4bWw8L2RjOmZvcm1hdD48ZGM6dHlwZSByZGY6cmVzb3VyY2U9Imh0dHA6Ly9wdXJsLm9yZy9kYy9kY21pdHlwZS9TdGlsbEltYWdlIi8+PGRjOnRpdGxlLz48L2NjOldvcms+PC9yZGY6UkRGPjwvbWV0YWRhdGE+PGRlZnMgaWQ9ImRlZnMyMTUxNyIvPiYjeGE7PGZpbHRlciBpZD0iZmlsdGVyXzIiPiYjeGE7CTxmZUdhdXNzaWFuQmx1ciBpZD0iZmVHYXVzc2lhbkJsdXI3MjQwNSIgc3RkRGV2aWF0aW9uPSIyIi8+JiN4YTs8L2ZpbHRlcj4mI3hhOzxzb2RpcG9kaTpuYW1lZHZpZXcgYm9yZGVyY29sb3I9IiM2NjY2NjYiIGJvcmRlcm9wYWNpdHk9IjEiIGZpdC1tYXJnaW4tYm90dG9tPSIwIiBmaXQtbWFyZ2luLWxlZnQ9IjAiIGZpdC1tYXJnaW4tcmlnaHQ9IjAiIGZpdC1tYXJnaW4tdG9wPSIwIiBncmlkdG9sZXJhbmNlPSIxMCIgZ3VpZGV0b2xlcmFuY2U9IjEwIiBpZD0ibmFtZWR2aWV3NzI0ODIiIGlua3NjYXBlOmN1cnJlbnQtbGF5ZXI9InN2ZzcyNDgwIiBpbmtzY2FwZTpjeD0iMjMuMzQ3NjM2IiBpbmtzY2FwZTpjeT0iMjUuMzc2MzE2IiBpbmtzY2FwZTpwYWdlb3BhY2l0eT0iMCIgaW5rc2NhcGU6cGFnZXNoYWRvdz0iMiIgaW5rc2NhcGU6d2luZG93LWhlaWdodD0iMTAxNyIgaW5rc2NhcGU6d2luZG93LW1heGltaXplZD0iMSIgaW5rc2NhcGU6d2luZG93LXdpZHRoPSIxOTIwIiBpbmtzY2FwZTp3aW5kb3cteD0iLTgiIGlua3NjYXBlOndpbmRvdy15PSItOCIgaW5rc2NhcGU6em9vbT0iNC44MDg5OTYiIG9iamVjdHRvbGVyYW5jZT0iMTAiIHBhZ2Vjb2xvcj0iI2ZmZmZmZiIgc2hvd2dyaWQ9ImZhbHNlIj4mI3hhOwk8L3NvZGlwb2RpOm5hbWVkdmlldz4mI3hhOyYjeGE7PHBhdGggaWQ9InBhdGg3MjQxOCIgaW5rc2NhcGU6Y29ubmVjdG9yLWN1cnZhdHVyZT0iMCIgc3R5bGU9ImZpbGw6IzAwOTU4MCIgZD0ibSAxMTguNjAyNjksMzUuMjYgYyAtMi4xOCwtNS4xNyAtNi42OSwtOS41NCAtMTIuNTIsLTEyLjIxIC0yLjY5LC05LjA0IC0xMC4yMiwtMTguMDggLTIxLjQ0LC0xOC4wOCAtMC4zNiwwIC0wLjcyLDAuMDEgLTEuMDksMC4wMiAtNC42OCwtMy4zNSAtOS4yMywtNC45OSAtMTMuODYsLTQuOTkgLTIuNzksMCAtNS42NCwwLjYyIC04LjUsMS44MyAtMi4xMiwtMS4xIC00LjU1LC0xLjY4IC03LjE0LC0xLjY4IC01Ljc1LDAgLTExLjIsMi42NSAtMTQuNTYsNS43NiAtMS4wNiwtMC4yNSAtMi4xNiwtMC4zOCAtMy4zLC0wLjM4IC04LjU3LDAgLTE3LjA2LDcuMDggLTE5LjM2LDE1LjY3IC03LjM4OTk5OTksMi42OCAtMTIuNzc5OTk5OSw3LjU1IC0xNS4zMDk5OTk5LDEzLjg4IC0yLjQ1OTk5OTk5LDYuMTUgLTEuOTE5OTk5OTksMTMuMDIgMS40OCwxOC44NSAzLjM4LDUuOCA5LjI3OTk5OTksOS4yNiAxNS43OTk5OTk5LDkuMjYgMi41LDAgNC45MSwtMC41MSA3LjExLC0xLjQ5IDMuOTYsMy42IDkuMDYsNS43NSAxMy44OSw1Ljc1IDEuNjgsMCAzLjMsLTAuMjUgNC44MiwtMC43NCAzLjkxLDMuMjIgOS45LDQuNDIgMTQuNzcsNC40MiA1LjczLDAgMTAuNzIsLTEuNTEgMTQuMDIsLTQuMTYgMi4xNSwwLjk5IDQuNSwxLjUxIDYuOTcsMS41MSB2IDAgYyA2LjE1LDAgMTIuNTIsLTMuMjkgMTUuOTksLTcuODUgMS45NCwwLjggMy45OCwxLjIxIDYuMDQsMS4yMSB2IDAgYyA2LjczLDAgMTIuOTgsLTQuMzkgMTUuOTIsLTExLjE5IDIuMjQsLTUuMTggMi4zNCwtMTAuNSAwLjI3LC0xNS4zOSB6Ii8+JiN4YTsmI3hhOzxwYXRoIGlkPSJwYXRoNzI0MjYiIGlua3NjYXBlOmNvbm5lY3Rvci1jdXJ2YXR1cmU9IjAiIHN0eWxlPSJmaWxsOiNmZmZmZmYiIGQ9Ik0gMzguNjAyNjksNjcuNCBWIDQ2LjI2IGMgMCwtMi42MyAtMi4xMywtNC43NiAtNC43NiwtNC43NiBoIC03LjkyIHYgMy4zNiBoIDcuOTIgYyAwLjc3LDAgMS40LDAuNjMgMS40LDEuNCB2IDIwLjU4IGMgMS4xMSwwLjI5IDIuMjQsMC40OCAzLjM2LDAuNTYgeiIvPiYjeGE7JiN4YTs8cGF0aCBpZD0icGF0aDcyNDM0IiBpbmtzY2FwZTpjb25uZWN0b3ItY3VydmF0dXJlPSIwIiBzdHlsZT0iZmlsbDojZmZmZmZmIiBkPSJtIDUzLjIyMjY5LDMxLjIzIGggLTEwLjY0IGMgLTAuNzcsMCAtMS40LC0wLjYyIC0xLjQsLTEuMzkgViA0LjUzIGMgLTAuNiwwLjQ0IC0xLjE3LDAuOTEgLTEuNjgsMS4zOCAtMC41NSwtMC4xMyAtMS4xMSwtMC4yMiAtMS42OCwtMC4yOCB2IDI0LjIxIGMgMCwyLjYyIDIuMTQsNC43NiA0Ljc2LDQuNzYgaCAxMC42NCBjIDAuNzcsMCAxLjM5LDAuNjIgMS4zOSwxLjM5IHYgNy44OCBoIDMuMzcgdiAtNy44OCBjIDAsLTIuNjIgLTIuMTQsLTQuNzYgLTQuNzYsLTQuNzYgeiIvPiYjeGE7JiN4YTs8cGF0aCBpZD0icGF0aDcyNDQyIiBpbmtzY2FwZTpjb25uZWN0b3ItY3VydmF0dXJlPSIwIiBzdHlsZT0iZmlsbDojZmZmZmZmIiBkPSJtIDk4LjAwMjY5LDQ0LjY3IHYgLTMuMDIgaCAtMy4zNiB2IDMuMDIgYyAwLDAuNzcgLTAuNjMsMS40IC0xLjQsMS40IGggLTEzLjQ4IFYgMjEuOTUgYyAwLC0yLjYyIC0yLjEzLC00Ljc2IC00Ljc1LC00Ljc2IGggLTkuMTcgdiAzLjM3IGggOS4xNyBjIDAuNzcsMCAxLjM5LDAuNjIgMS4zOSwxLjM5IHYgNDYuMDQgYyAxLjA5LDAuMjcgMi4yMSwwLjQyIDMuMzYsMC40NiBWIDQ5LjQzIGggMTMuNDggYyAyLjYzLDAgNC43NiwtMi4xMyA0Ljc2LC00Ljc2IHoiLz4mI3hhOyYjeGE7PHBhdGggaWQ9InBhdGg3MjQ1MCIgaW5rc2NhcGU6Y29ubmVjdG9yLWN1cnZhdHVyZT0iMCIgc3R5bGU9ImZpbGw6I2ZmZmZmZiIgZD0ibSA1Ni4yOTI2OSw1Ny43OCBjIC00LjEzLDAgLTcuNDksLTMuMzYgLTcuNDksLTcuNDkgMCwtNC4xMyAzLjM2LC03LjUgNy40OSwtNy41IDQuMTQsMCA3LjUsMy4zNyA3LjUsNy41IDAsNC4xMyAtMy4zNyw3LjQ5IC03LjUsNy40OSB6IG0gMCwtMTEuODggYyAtMi40MSwwIC00LjM4LDEuOTcgLTQuMzgsNC4zOSAwLDIuNDIgMS45Nyw0LjM4IDQuMzgsNC4zOCAyLjQyLDAgNC4zOSwtMS45NiA0LjM5LC00LjM4IDAsLTIuNDIgLTEuOTcsLTQuMzkgLTQuMzksLTQuMzkgeiIvPiYjeGE7JiN4YTs8cGF0aCBpZD0icGF0aDcyNDU4IiBpbmtzY2FwZTpjb25uZWN0b3ItY3VydmF0dXJlPSIwIiBzdHlsZT0iZmlsbDojZmZmZmZmIiBkPSJtIDIwLjQ3MjY5LDUwLjY0IGMgLTQuMTMsMCAtNy40OSwtMy4zNiAtNy40OSwtNy40OSAwLC00LjE0IDMuMzYsLTcuNSA3LjQ5LC03LjUgNC4xMywwIDcuNSwzLjM3IDcuNSw3LjUgMCw0LjEzIC0zLjM2LDcuNDkgLTcuNSw3LjQ5IHogbSAwLC0xMS44OCBjIC0yLjQyLDAgLTQuMzgsMS45NyAtNC4zOCw0LjM5IDAsMi40MSAxLjk3LDQuMzggNC4zOCw0LjM4IDIuNDIsMCA0LjM5LC0xLjk3IDQuMzksLTQuMzggMCwtMi40MiAtMS45NywtNC4zOSAtNC4zOSwtNC4zOSB6Ii8+JiN4YTsmI3hhOzxwYXRoIGlkPSJwYXRoNzI0NjYiIGlua3NjYXBlOmNvbm5lY3Rvci1jdXJ2YXR1cmU9IjAiIHN0eWxlPSJmaWxsOiNmZmZmZmYiIGQ9Im0gOTYuMzQyNjksNDMuNDkgYyAtNC4xMywwIC03LjQ5LC0zLjM2IC03LjQ5LC03LjQ5IDAsLTQuMTMgMy4zNiwtNy40OSA3LjQ5LC03LjQ5IDQuMTMsMCA3LjUsMy4zNiA3LjUsNy40OSAwLDQuMTMgLTMuMzcsNy40OSAtNy41LDcuNDkgeiBtIDAsLTExLjg3IGMgLTIuNDIsMCAtNC4zOCwxLjk2IC00LjM4LDQuMzggMCwyLjQxIDEuOTcsNC4zOCA0LjM4LDQuMzggMi40MiwwIDQuMzksLTEuOTYgNC4zOSwtNC4zOCAwLC0yLjQyIC0xLjk3LC00LjM4IC00LjM5LC00LjM4IHoiLz4mI3hhOyYjeGE7PHBhdGggaWQ9InBhdGg3MjQ3NCIgaW5rc2NhcGU6Y29ubmVjdG9yLWN1cnZhdHVyZT0iMCIgc3R5bGU9ImZpbGw6I2ZmZmZmZiIgZD0ibSA2MC4zOTI2OSwyNi4zNCBjIC00LjEzLDAgLTcuNDksLTMuMzYgLTcuNDksLTcuNDkgMCwtNC4xMyAzLjM2LC03LjQ5IDcuNDksLTcuNDkgNC4xMywwIDcuNSwzLjM2IDcuNSw3LjQ5IDAsNC4xMyAtMy4zNiw3LjQ5IC03LjUsNy40OSB6IG0gMCwtMTEuODggYyAtMi40MiwwIC00LjM4LDEuOTcgLTQuMzgsNC4zOSAwLDIuNDEgMS45Nyw0LjM4IDQuMzgsNC4zOCAyLjQyLDAgNC4zOSwtMS45NyA0LjM5LC00LjM4IDAsLTIuNDIgLTEuOTcsLTQuMzkgLTQuMzksLTQuMzkgeiIvPiYjeGE7PC9zdmc+;" vertex="1" parent="CdcvYIRpf1g7k5c3ap87-77">
          <mxGeometry x="24.230000000000018" width="52.97" height="31.34" as="geometry" />
        </mxCell>
        <mxCell id="CdcvYIRpf1g7k5c3ap87-43" value="&lt;span style=&quot;color: rgb(0, 0, 0); font-family: Helvetica; font-size: 12px; font-style: normal; font-variant-ligatures: normal; font-variant-caps: normal; font-weight: 400; letter-spacing: normal; orphans: 2; text-align: left; text-indent: 0px; text-transform: none; widows: 2; word-spacing: 0px; -webkit-text-stroke-width: 0px; white-space: normal; background-color: rgb(251, 251, 251); text-decoration-thickness: initial; text-decoration-style: initial; text-decoration-color: initial; display: inline !important; float: none;&quot;&gt;Entrenar modelo&lt;/span&gt;" style="text;whiteSpace=wrap;html=1;" vertex="1" parent="CdcvYIRpf1g7k5c3ap87-77">
          <mxGeometry y="31.340000000000003" width="94.72" height="30" as="geometry" />
        </mxCell>
        <mxCell id="CdcvYIRpf1g7k5c3ap87-78" value="" style="edgeStyle=orthogonalEdgeStyle;rounded=0;orthogonalLoop=1;jettySize=auto;html=1;" edge="1" parent="1" source="CdcvYIRpf1g7k5c3ap87-20" target="CdcvYIRpf1g7k5c3ap87-49">
          <mxGeometry relative="1" as="geometry">
            <Array as="points">
              <mxPoint x="540" y="81" />
              <mxPoint x="540" y="81" />
            </Array>
          </mxGeometry>
        </mxCell>
        <mxCell id="CdcvYIRpf1g7k5c3ap87-175" style="edgeStyle=orthogonalEdgeStyle;rounded=0;orthogonalLoop=1;jettySize=auto;html=1;" edge="1" parent="1" source="CdcvYIRpf1g7k5c3ap87-8" target="CdcvYIRpf1g7k5c3ap87-2">
          <mxGeometry relative="1" as="geometry" />
        </mxCell>
        <mxCell id="CdcvYIRpf1g7k5c3ap87-178" style="edgeStyle=orthogonalEdgeStyle;rounded=0;orthogonalLoop=1;jettySize=auto;html=1;entryX=0.5;entryY=0;entryDx=0;entryDy=0;" edge="1" parent="1" source="CdcvYIRpf1g7k5c3ap87-44" target="CdcvYIRpf1g7k5c3ap87-20">
          <mxGeometry relative="1" as="geometry" />
        </mxCell>
        <mxCell id="CdcvYIRpf1g7k5c3ap87-181" style="edgeStyle=orthogonalEdgeStyle;rounded=0;orthogonalLoop=1;jettySize=auto;html=1;" edge="1" parent="1" target="CdcvYIRpf1g7k5c3ap87-24">
          <mxGeometry relative="1" as="geometry">
            <mxPoint x="81.5" y="-226.00000000000023" as="sourcePoint" />
          </mxGeometry>
        </mxCell>
        <mxCell id="CdcvYIRpf1g7k5c3ap87-182" value="Cada 4 semanas" style="text;strokeColor=none;align=center;fillColor=none;html=1;verticalAlign=middle;whiteSpace=wrap;rounded=0;rotation=-90;" vertex="1" parent="1">
          <mxGeometry x="-10" y="-80" width="110" height="9.17" as="geometry" />
        </mxCell>
        <mxCell id="2CHrTwTyNXdwlfk9Nfen-4" value="" style="edgeStyle=orthogonalEdgeStyle;rounded=0;orthogonalLoop=1;jettySize=auto;html=1;entryX=1;entryY=0.5;entryDx=0;entryDy=0;" edge="1" parent="1" target="CdcvYIRpf1g7k5c3ap87-31">
          <mxGeometry relative="1" as="geometry">
            <mxPoint x="380" y="82" as="sourcePoint" />
            <mxPoint x="200" y="60" as="targetPoint" />
          </mxGeometry>
        </mxCell>
        <mxCell id="2CHrTwTyNXdwlfk9Nfen-8" value="" style="group" connectable="0" vertex="1" parent="1">
          <mxGeometry x="161" y="-178.58" width="60" height="63.16" as="geometry" />
        </mxCell>
        <mxCell id="CdcvYIRpf1g7k5c3ap87-24" value="" style="shape=image;verticalLabelPosition=bottom;labelBackgroundColor=#ffffff;verticalAlign=top;aspect=fixed;imageAspect=0;image=data:image/svg+xml,PHN2ZyB4bWxuczpkYz0iaHR0cDovL3B1cmwub3JnL2RjL2VsZW1lbnRzLzEuMS8iIHhtbG5zOmNjPSJodHRwOi8vY3JlYXRpdmVjb21tb25zLm9yZy9ucyMiIHhtbG5zOnJkZj0iaHR0cDovL3d3dy53My5vcmcvMTk5OS8wMi8yMi1yZGYtc3ludGF4LW5zIyIgeG1sbnM6c3ZnPSJodHRwOi8vd3d3LnczLm9yZy8yMDAwL3N2ZyIgeG1sbnM9Imh0dHA6Ly93d3cudzMub3JnLzIwMDAvc3ZnIiB4bWxuczp4bGluaz0iaHR0cDovL3d3dy53My5vcmcvMTk5OS94bGluayIgeG1sbnM6c29kaXBvZGk9Imh0dHA6Ly9zb2RpcG9kaS5zb3VyY2Vmb3JnZS5uZXQvRFREL3NvZGlwb2RpLTAuZHRkIiB4bWxuczppbmtzY2FwZT0iaHR0cDovL3d3dy5pbmtzY2FwZS5vcmcvbmFtZXNwYWNlcy9pbmtzY2FwZSIgdmVyc2lvbj0iMS4xIiBpZD0iTGF5ZXJfMSIgeD0iMHB4IiB5PSIwcHgiIHZpZXdCb3g9IjAgMCAzNy41MDA4ODEgNDIuMTM0NDY0IiB4bWw6c3BhY2U9InByZXNlcnZlIiBzb2RpcG9kaTpkb2NuYW1lPSJzZWFyY2hfMS5zdmciIHdpZHRoPSIzNy41MDA4ODEiIGhlaWdodD0iNDIuMTM0NDY0IiBpbmtzY2FwZTp2ZXJzaW9uPSIwLjkyLjMgKDI0MDU1NDYsIDIwMTgtMDMtMTEpIj48bWV0YWRhdGEgaWQ9Im1ldGFkYXRhNDcwMzUiPjxyZGY6UkRGPjxjYzpXb3JrIHJkZjphYm91dD0iIj48ZGM6Zm9ybWF0PmltYWdlL3N2Zyt4bWw8L2RjOmZvcm1hdD48ZGM6dHlwZSByZGY6cmVzb3VyY2U9Imh0dHA6Ly9wdXJsLm9yZy9kYy9kY21pdHlwZS9TdGlsbEltYWdlIi8+PGRjOnRpdGxlLz48L2NjOldvcms+PC9yZGY6UkRGPjwvbWV0YWRhdGE+PGRlZnMgaWQ9ImRlZnM0NzAzMyIvPjxzb2RpcG9kaTpuYW1lZHZpZXcgcGFnZWNvbG9yPSIjZmZmZmZmIiBib3JkZXJjb2xvcj0iIzY2NjY2NiIgYm9yZGVyb3BhY2l0eT0iMSIgb2JqZWN0dG9sZXJhbmNlPSIxMCIgZ3JpZHRvbGVyYW5jZT0iMTAiIGd1aWRldG9sZXJhbmNlPSIxMCIgaW5rc2NhcGU6cGFnZW9wYWNpdHk9IjAiIGlua3NjYXBlOnBhZ2VzaGFkb3c9IjIiIGlua3NjYXBlOndpbmRvdy13aWR0aD0iMTkyMCIgaW5rc2NhcGU6d2luZG93LWhlaWdodD0iMTAxNyIgaWQ9Im5hbWVkdmlldzQ3MDMxIiBzaG93Z3JpZD0iZmFsc2UiIGZpdC1tYXJnaW4tdG9wPSIwIiBmaXQtbWFyZ2luLWxlZnQ9IjAiIGZpdC1tYXJnaW4tcmlnaHQ9IjAiIGZpdC1tYXJnaW4tYm90dG9tPSIwIiBpbmtzY2FwZTp6b29tPSIxLjAzMDMwMyIgaW5rc2NhcGU6Y3g9Ii0xNi4zNTU3NDkiIGlua3NjYXBlOmN5PSItMzAxLjk3MTU2IiBpbmtzY2FwZTp3aW5kb3cteD0iLTgiIGlua3NjYXBlOndpbmRvdy15PSItOCIgaW5rc2NhcGU6d2luZG93LW1heGltaXplZD0iMSIgaW5rc2NhcGU6Y3VycmVudC1sYXllcj0iTGF5ZXJfMSIvPiYjeGE7JiN4YTs8ZyBpZD0iZzQ3MDI4IiB0cmFuc2Zvcm09InRyYW5zbGF0ZSgtMzEzLjczMDc1LC03Ni42NDM5ODIpIj4mI3hhOwk8ZGVmcyBpZD0iZGVmczQ3MDAzIj4mI3hhOwkJPHJlY3QgaWQ9IlNWR0lEXzNfIiB4PSIzMTMuNzIiIHk9Ijc2LjYzOTk5OSIgd2lkdGg9IjM3LjU3IiBoZWlnaHQ9IjQyLjQxOTk5OCIvPiYjeGE7CTwvZGVmcz4mI3hhOwk8Y2xpcFBhdGggaWQ9IlNWR0lEXzRfIj4mI3hhOwkJPHVzZSB4bGluazpocmVmPSIjU1ZHSURfM18iIHN0eWxlPSJvdmVyZmxvdzp2aXNpYmxlIiBpZD0idXNlNDcwMDUiIHg9IjAiIHk9IjAiIHdpZHRoPSIxMDAlIiBoZWlnaHQ9IjEwMCUiLz4mI3hhOwk8L2NsaXBQYXRoPiYjeGE7CTxnIGNsaXAtcGF0aD0idXJsKCNTVkdJRF80XykiIGlkPSJnNDcwMjYiPiYjeGE7CQk8ZGVmcyBpZD0iZGVmczQ3MDA5Ij4mI3hhOwkJCTxyZWN0IGlkPSJTVkdJRF81XyIgeD0iMzEzLjcyIiB5PSI3Ni42Mzk5OTkiIHdpZHRoPSIzNy41NyIgaGVpZ2h0PSI0Mi40MTk5OTgiLz4mI3hhOwkJPC9kZWZzPiYjeGE7CQk8Y2xpcFBhdGggaWQ9IlNWR0lEXzZfIj4mI3hhOwkJCTx1c2UgeGxpbms6aHJlZj0iI1NWR0lEXzVfIiBzdHlsZT0ib3ZlcmZsb3c6dmlzaWJsZSIgaWQ9InVzZTQ3MDExIiB4PSIwIiB5PSIwIiB3aWR0aD0iMTAwJSIgaGVpZ2h0PSIxMDAlIi8+JiN4YTsJCTwvY2xpcFBhdGg+JiN4YTsJCTxwYXRoIHN0eWxlPSJmaWxsOiM3OTkwOTkiIGQ9Im0gMzM5LDEwNC40OSBjIDAuNzcsLTAuNjIgMC44NywtMS43NCAwLjI2LC0yLjUxIGwgLTIsLTIuNDQgYyAtMC42MiwtMC43NyAtMS43NCwtMC44NyAtMi41MSwtMC4yNiAtMC43NywwLjYyIC0wLjg3LDEuNzQgLTAuMjYsMi41MSBsIDIuMDMsMi40NCBjIDAuNjQsMC44IDEuNzEsMC45IDIuNDgsMC4yNiB6IiBjbGlwLXBhdGg9InVybCgjU1ZHSURfNl8pIiBpZD0icGF0aDQ3MDE0IiBpbmtzY2FwZTpjb25uZWN0b3ItY3VydmF0dXJlPSIwIi8+JiN4YTsJCTxwYXRoIHN0eWxlPSJmaWxsOiM2NjgwODkiIGQ9Im0gMzE5LjU5LDk3IGMgMS43MiwyLjE1IDQuMjMsMy40NiA2Ljk1LDMuOCAyLjcyLDAuMjggNS40MSwtMC41MSA3LjU2LC0yLjI2IDIuMTUsLTEuNzIgMy41NCwtNC4yMyAzLjc5LC02Ljk1IDAuNTYsLTUuNjcgLTMuNTYsLTEwLjc3IC05LjE4LC0xMS4zMyAtMi43MiwtMC4zMSAtNS40MSwwLjUxIC03LjU2LDIuMjMgLTIuMTUsMS43NCAtMy40OSw0LjIzIC0zLjc3LDYuOTUgLTAuMzUsMi43NCAwLjQ3LDUuNDQgMi4yMSw3LjU2IHogbSAtNS43OSwtNy45NCBjIDAuMzgsLTMuNzIgMi4xOCwtNyA1LjA1LC05LjMxIDIuOSwtMi4zNiA2LjUxLC0zLjQxIDEwLjE1LC0zLjAzIDcuNjQsMC43OSAxMy4xNSw3LjY3IDEyLjM4LDE1LjIzIC0wLjM4LDMuNzIgLTIuMTgsNy4wMyAtNS4xLDkuMzkgLTIuODcsMi4zMyAtNi40NiwzLjQxIC0xMC4xNSwzLjAzIC0zLjcyLC0wLjM4IC03LC0yLjE4IC05LjMzLC01LjA4IC0yLjMxLC0yLjkzIC0zLjM2LC02LjU3IC0zLC0xMC4yMyB6IiBjbGlwLXBhdGg9InVybCgjU1ZHSURfNl8pIiBpZD0icGF0aDQ3MDE2IiBpbmtzY2FwZTpjb25uZWN0b3ItY3VydmF0dXJlPSIwIi8+JiN4YTsJCTxwYXRoIHN0eWxlPSJmaWxsOiNiZGRkZjQiIGQ9Im0gMzIxLjEzLDgyLjQ5IGMgMi4xNSwtMS43MiA0Ljg1LC0yLjQ5IDcuNTYsLTIuMjMgNS42NywwLjU2IDkuOCw1LjY3IDkuMTUsMTEuMzMgLTAuMjYsMi43NyAtMS42Miw1LjIxIC0zLjc3LDYuOTUgLTIuMTUsMS43NCAtNC44NSwyLjUxIC03LjU2LDIuMjYgLTIuNzIsLTAuMjggLTUuMjEsLTEuNjQgLTYuOTUsLTMuOCAtMS43NCwtMi4xMyAtMi41NiwtNC44MiAtMi4yNiwtNy41NyAwLjM0LC0yLjc2IDEuNjgsLTUuMiAzLjgzLC02Ljk0IHoiIGNsaXAtcGF0aD0idXJsKCNTVkdJRF82XykiIGlkPSJwYXRoNDcwMTgiIGlua3NjYXBlOmNvbm5lY3Rvci1jdXJ2YXR1cmU9IjAiLz4mI3hhOwkJPHBhdGggc3R5bGU9ImZpbGw6I2YxZjJmMiIgZD0ibSAzMTkuNTksOTcgYyAtMS43NCwtMi4xMyAtMi41NiwtNC44MiAtMi4yNiwtNy41NyAwLjEsLTAuNzcgMC4yMywtMS41NCAwLjUxLC0yLjI2IDAuNjQsLTEuMSAxLjQ2LC0yLjAzIDIuNDQsLTIuODIgMi4xNSwtMS43NCA0Ljg1LC0yLjUxIDcuNTYsLTIuMjYgNS42OSwwLjU5IDkuODIsNS42NyA5LjE4LDExLjM2IC0wLjEsMC43NyAtMC4yMywxLjU0IC0wLjUxLDIuMjYgLTAuNjQsMS4xIC0xLjQ0LDIuMDMgLTIuNDQsMi44MiAtMi4xNSwxLjc0IC00Ljg1LDIuNTEgLTcuNTYsMi4yNiAtMi42OSwtMC4yNyAtNS4yLC0xLjYzIC02LjkyLC0zLjc5IHoiIGNsaXAtcGF0aD0idXJsKCNTVkdJRF82XykiIGlkPSJwYXRoNDcwMjAiIGlua3NjYXBlOmNvbm5lY3Rvci1jdXJ2YXR1cmU9IjAiLz4mI3hhOwkJPHBhdGggc3R5bGU9ImZpbGw6IzY1YjhlYSIgZD0ibSAzNDkuOSwxMTcuOTYgdiAwIGMgMS41NCwtMS4yMyAxLjc5LC0zLjUxIDAuNTEsLTUgbCAtNy43MiwtOS41NCBjIC0xLjIxLC0xLjU0IC0zLjQ2LC0xLjcyIC01LC0wLjUxIC0xLjU0LDEuMjMgLTEuNzIsMy40NiAtMC41MSw1IGwgNy43Miw5LjU0IGMgMS4yNiwxLjUzIDMuNDYsMS43OSA1LDAuNTEgeiIgY2xpcC1wYXRoPSJ1cmwoI1NWR0lEXzZfKSIgaWQ9InBhdGg0NzAyMiIgaW5rc2NhcGU6Y29ubmVjdG9yLWN1cnZhdHVyZT0iMCIvPiYjeGE7CQk8cGF0aCBzdHlsZT0iZmlsbDojZTllZGYyIiBkPSJtIDM1MCwxMTYuNDQgYyAwLjU5LC0wLjQ2IDAuNzIsLTEuMzYgMC4yMSwtMS45MiBsIC03Ljc0LC05LjUxIGMgLTAuNDQsLTAuNTkgLTEuMzMsLTAuNzIgLTEuOTIsLTAuMjEgLTAuNTksMC40NiAtMC42OSwxLjM2IC0wLjE4LDEuOTIgbCA3LjcyLDkuNTEgYyAwLjQ1LDAuNiAxLjMsMC42NSAxLjkxLDAuMjEgeiIgY2xpcC1wYXRoPSJ1cmwoI1NWR0lEXzZfKSIgaWQ9InBhdGg0NzAyNCIgaW5rc2NhcGU6Y29ubmVjdG9yLWN1cnZhdHVyZT0iMCIvPiYjeGE7CTwvZz4mI3hhOzwvZz4mI3hhOzwvc3ZnPg==;" vertex="1" parent="2CHrTwTyNXdwlfk9Nfen-8">
          <mxGeometry x="9.46999999999997" width="39.05" height="43.16" as="geometry" />
        </mxCell>
        <mxCell id="CdcvYIRpf1g7k5c3ap87-35" value="Limpieza" style="text;strokeColor=none;align=center;fillColor=none;html=1;verticalAlign=middle;whiteSpace=wrap;rounded=0;" vertex="1" parent="2CHrTwTyNXdwlfk9Nfen-8">
          <mxGeometry y="50" width="60" height="13.16" as="geometry" />
        </mxCell>
        <mxCell id="2CHrTwTyNXdwlfk9Nfen-9" value="" style="group" connectable="0" vertex="1" parent="1">
          <mxGeometry x="50" y="30" width="60" height="80" as="geometry" />
        </mxCell>
        <mxCell id="2CHrTwTyNXdwlfk9Nfen-5" value="" style="shape=image;verticalLabelPosition=bottom;labelBackgroundColor=default;verticalAlign=top;aspect=fixed;imageAspect=0;image=data:image/png,iVBORw0KGgoAAAANSUhEUgAAAOEAAADhCAYAAAA+s9J6AABlzUlEQVR4Xu29CbwsVXUvvGuunrvPdCe4jIqCqAgqTomAigaVOIUoajSapyYOiYnPfC+J3/vFIU8TB2Ji8sgX44CCcQ6oUcABQRBBmVGU+Y5n7Lm75u+/dnXd0/dwTlfV6apz77nUxvbcc7qGXav22mv6r7UYy0ZGgYwCGQUyCmQUyCiQUSCjQEaBjAIZBTIKZBTIKJBRIKNARoGMAhkFMgpkFMgokFEgo0BGgYwCGQUyCmQUyCiQUSCjQEaBjAIZBTIKZBTIKJBRIKNARoGMAhkFMgpsCAWEDblLzJvsnW8WVNEVRI+xan6hxtxunomyzcRKm4kz8/UWY7YiutMlOiIbGQU2NwUOGya0zG6uMX/LKZJ59Yvt9ldfplt3P9FpGkxQGXMsgYlinlmswzyNeYJUrmvS2dfr0rN+3Km97AtarrqYn5jqbO5Xkc3+0UqBQ8qE9XpdUwxJ63c+9U5z8RNvKfT3HlUSVdbrS8zNq8yQXaYwFUxoM11W8NNkInOZIHvMsvsQjh5zXPyeO/MmoXrBFy3tnCs8/YRdli32t07lMin5aF3Vm+y5DxkTNpu2LO3+9z+2Gu/4BGOCIIDdBEFizBNjkVB0PSawNrMFm1mewGz5lNuk0u9cXZx8+RdzM2feFOti2cEZBQ4BBQ4JE3pmo+r+6mk3z/Z+dXzOyXEWZJBx62FCm9lMFkSm0RU8F5LRZI5gMVtymQeB6ulv/rw8fdZ35Onzr8gJxUxlPQSLLLvlaApsOBN69g/OXrrhrCsdkYlTXoU1JYczIA2BQRLGHVBZmecx0YFEpEtxSQruYzLzmNTpqXsLmsWg1GLoz7nennrll+3ys7/rsFPuFZlkTdYUXCAbGQUOHQU2lAmtPd95sXX7qy/1apOO5e2tCG4N0q871tOLrsYcsJsnQAqKNhMkARIQ3AjpSn8r9XRmKX1mmTlH8OYkHexJ/zPVHbtF7bk3tCZfe/F07YyfSblSRxB1c6zJZCdnFFgHBTaECfcvPSwq7dnTqw+fcaPrHcMMZZ61YcspssYQeBga8X0pcNFAgsKe5LJOglCERPRM/OxBvlpMFHJMdAtg0AXmSFBalQKzLMNlpi3ktZagYA+wC+VeVz3ne2bhrB8q5ef/1+TM4+9bBy2zUzIKrIsCG8KErfnfnGjfe+I9glATNEioltNkmphjRVNhHTmYd3wG9HXYZeElcAaEkon/ZI8cPQJbVHr836oxyWSxA0nZZ31IQkcx8e8K6xldR4ckzbGGRJfyNJGZuZldaunV39Qr53yHVZ93NZjbFkTloO1iXdTOTsoosAoFUmdC2zMV56YXXteTvv9Uq73VkQs2FrvH8mAM1+0yUx7YgVAdD4yBh1SAw8WDs2XUcMk7Cq8q2ZPEdHCQQtt0+H8e/pUXXWbBWeOJCG84NSaB10UB3lQPaqots6Isw7WzxFxRhnBESEQuOo4h9BW5XoCvFbJUt8Xcc67Jb3n959vSs64Scjv3lssyWZ/ZyCiQCAVSZ0Jv12Wv27/v9Z+b7nusrZWYibhe1emDQVS2TxdY1YQj5QADEsPhdzCh7zEFU4UwoSCrzHMtfACoAdP4jEhuUWJuBPnJVrThBYIq6kESWp4Bl02eKRQOsR1mwiYl21RRNGbbDSYpFo4XcJ0Cvu4zQcNm0V9iOdGBlIXM1J/8M7f8O9/q5V/wTVZ8yl0TBcmWJLhis5FRYJ0USJUJvZ4nNG7VwXGiKghkt/mM4Q84UyCtOorItkA/dBWH7QMcJi+KLG+5rOd1mKhsZbbZZXrBZK7dhCQDczo4FmcyMEff1pgiCvhOZIqkMhvMSLyrSDJzTQvqp38n4hDDc5is6MxxOvx724LaKpSgFve5zDQ9C8fBhsT9JUGGHQnms8HMEnRUvkngrrgG/dvfGOinZ8kzb7i0WP6DT7Pac65xJFeQhYwh17kWH7WnpcaE80v7BLFx5RvFfW/+d5/55EcwIS1okl4uK0I1hO2mKJBiXchImWmQRF17H2w1iRmQlj2se3niuN1MO+02wdu+T7LuPUFyf/JbbnOeObArHdxC8gpMcnEfSC3DxAlSnvURxM+rCpMQwmCCwUxDYDp+96Ciil6XNb0cpKIMhlXAeMRk9CHzz4XKSvMrHNg0fAYMNFHOhGBgOICwCTDFdaXcGT/TJ972aWn6tJ8K2nEPiUJt6VG7srIHj0yB9JiwvlTU9pz3E6fxi1N5EJ6C8SskIc1Ss3TWzEHtc/usiLVsOROApxHz1Vhb7bumuOWh8sR7PiKU/+Az+alcb26pXpiuVXnQ3bN6OZf1Nbb0nZe2Hvz4Xyq9nz1eAK95ygyzRMkW8x1Z6tuQbPCcAn8quBJzPDC9BkgcGKoHhipDQpNFSQzoQT11YFQ6Eo6DjejipwZ4nC9Lg3GwA8n1VK4CE9+LbL8m2B7gdphDddteXX/LF3LT536DlY77dadVahTLBSPym8kOfNRQIDUm3L//5lNz95x+m6cUOTGX0TB0y+WFLII/TQvuD7EMTGiTtTsumyhU2by9l9W2f/aNnfLv/metWg4NJu5d7GuS98AOuffV14mNL11o1e94jNRXocrCG2pNAM6GIIbqQsrWmdAvwFZEiESTWdMk7yp5VEldhhoKddSFNHQYqamQzm515GIwtR6T+mUwcQfSVMV1qrA7W5CSDai9kPMWriPOLPbkU28UZl52hVB5wRWCfMLDM+VMbX3UcFnIg6bChAtL87LXufTtk/e9++NNNecz4WpoGEgjEypjXtjLvP7RrGcusckJOGy6rL711B+cwwrb7hCEmdgB9OZSX8tZD2yT3V+fPLv3s2+RvG+/VIdtSQ/rOCcv9JSHJ2V4RlVIRqYSsobsQf82ItRZCdJQhteVpGNPHSLRarhWtwlJuwXqaBeM3oMkLTHP1KD+CkxDOMSSLGaaNlMV4HcQu7QhkfvC436R23bBt7WZc7+l6k+5mVDpgqBmIZBHKVemwoSwB2ts1+u+Vpm75bm9/Ii1RTYWmNAx55lEzAh1tG02WOHoG85Ud5750yTeied04QjNW07v+qd1d33jD6TWp94qNOCVgQrcQ5ww14XHUzaYiw/4Bl5VshchGeHwkRHPcJxlWN1B8xkwpAycqgXV1TDLOHeRFaCXapR2JS4xw80xV0XM0nCYDqZ24RlWdI21+i0OrENIEudsmddqL7lSnHz9xXbtzJ/MGV1dFM321uJM5nFNYgFsgmukwoSG3So5Pz92FsaZjjjhgAyrBOMHjhmL7Cp8cprButoZN9ZOuerpadBuqX7fZK16/ILbu+dEb/byV7f2/+OfOuKeCQavKsUPFaBrmFCGl1VhJiBwBATPI3Y4atC3wOQAELAEe7bMTIQ6HMDkAMOBgmuCyWEGgtssqLjk6FHhxbXgJAJUgKSwi5ipJwpLEnl9JSXnUlqWMvHKL7q1F16h5k+417PbgiAX14lkSIOK2TWTpkAqTOghQG/8UDXbJZ2pdn5ozkNraRAbFCyFyQiLm+0uXCwdVtx51QsLW5/33aQfdOX1MEcJKqDjNe88pVv/0Vm9ha+/TOpdf3bOa/PQBjIYkR6lQV6FgMqhXnpaH/okJCq8pRwABMC4B5sS8UPWJQbFdQSSrgCbG2aT6RpcQRS7hFvXVJEXyTOXcQ4cQ2SrEosybADw9zjWtvd/iLHH35Qr/vZ1bWtiaXprZkumvTY2+vqpMKHbuv2xrdtP/ZUiTWH3Hw0u4faYV2Sqs8DmS4q57djZslopbqgXcb7RFj3DzmtsoeK1EfZoXH6B1P/hCyVrVpNhE/ZtnYlqzYI9J0ninKiKNUhLj9ki2ZlQX/GM5CF1XEwbsU4N6qkHe1IUepDwBZ7YQYgdyEKu6nruwKOKkInHk7DWHKZmdcGmBmzLQlsqPO/7WukVXxXLz/4hK+/Yp6tabHt5oxdYdr9wCqTChF77jsc0b3vCPR7UM1EZLUk4MgbiQzJbrF0+57ri0V8+K18uQZYcurE43yjUqo7sGfuO6u695M3dxiffpPdbJZ0kpHA0JPZuOF8qrKjmWbcLpA5UVxVIG+YAvSP2AIFTODjAweYiQxa6HvAKUHEltwQpC2QrHDbk9HEdVAsQRz8qZYJIcO4QnWzbZH0H6CDweFk/49ac+vLL2Y5zrmDqzocFbdveQ0ex7M7jUCAVJiRJ2P/lk3/l2hWoaaPNGc/CYtXaiKOjTMXk3/9vtv0tH6pWy4eUCYcJantzNYEVe45510nt+656qbD4wfeVbUO24Mhp4dFKYgWyHNhUsvWEBphzGt5SqJouZKS2ANUUoRexyJnIFVtw9ED6cUABPLESnEGuPvL9WWBSim+Sx1bB2yIQkAdYHYxJXAPSFcLXUXbMiZVn/sTSzroyN/nCryG2Ol+tqocNDcdZoI+Gc1Nhwta+G07z7j/z54JXC61WoUIymDLsMEDStG2XvFo66uWXHa6Eb3uLBYlV+rq7bwvb9YNz3IV//J+d3o1PgGbKZFUFcman4SkNJIqASZApQphUhhQql9yuwJ0KiBsKIrgGaig5f1wLCB9KSh4xkL0BSUr8RDhYqLGQujakrQMnjwu0D1mfKtA/OcD8LM6Q4Pvc068vbHnDpVrleVfMd8p1Vc8ZlVJ4rPVwpfuRPq8DiURJPqhlWQp5G6NwuAtESg9YExX+BtHdvyPJeSR9raIwEZTH2INrf54+c0sPbGXta5/NGpe/Vux86XwZRwCEA0lVYk6uARVyAoxGzhfywAJE7iIkYxPzIB6JfErGUL9xFBNC9+TAdKi3HgpeOcDLEg5XgwdWki3ACRB7hJ3ZhZ0q6CoHpovtO5/hNt72DGDm/1HSCz2l8pKrmvd+7TNO+beudrSJ5lQ5KxWZ9NoY53qpMKGiKHBhACYGjwQsn5HzEwHgJrC0jN2diYvT4zzMoTh3unbsPtz3K/ONzuVu/2JN8X70TL3//ZeJS195tdfYVSrmYRP2SzAm85BicELR7oRYJEQ/QOsLTDR54Y01h8f2M88p8rQsSV9kKnlS7WmotSUE/oHKkSscCk8FrzxIQwc2JKGDRHUSkhdJ0wYQ5Y0vv4Q5l71EW8gZrvxb11m7L/4Km3zWj1xt50OYjakLpczBcygWz+CeqTAhBzYDQ0ksCANp5OO5sHUkHCNCTZMo03aTjqkKx4XS578dy/2uuP1Df8a8/dvYr/7tz1vSVecY1o2PJfmTk0ssh3CG6djMRPYIUHKjJaE7iWPAYPg48KoaAA84sD1J2hLETkXGiUe5mQChk11qQzIKlBGClC1e5UPpqjYY1gHCnFjVtX98tr3ryrOFB2FnClrX2fn+D7pL1/7IdZ94mzxZHi2WN+m7OdynnQoT0kPT4lIkBQm1o9FYQHThQFottEQqR0TWgaRwdY/wrvf2vf47NOuvkCN873Fe83sv7be++iq3+7PTVdCljIBkD/HIUcOW4NwBqJ3ZsAflFiQfsROwr7ChPbfNpaAA15AHFoMiyqOaoohKOrBDsRfC+6px6LyCVA/RNqAHI5yCSjs2/m47ilb8zV98sItrtkW9O3f7edfmaq//D1d69g9cfaJZrKp9pGZlQIGUuTgVJiwWq/U2kmpNC7syGHHU4IFxUluhtXaMTn5xqSFP1CpHDI5SF3QKlNLn7sHnw561VDFb3zh/176vXbBt8Ue/4wgtMAUUToQ0yE4kB4wLW9EDUURnBlxFNVUXmQY106U8SCBuXKR+KRpUT0DkSPMQyWYkZiSJiRt55NABXF1ye0gPQ4SS50iT2IVnlic8k3fWllo5mAMWwi2uDN/Ot15g97/1AjpMEc7+mSg+99rF3dd+XdSOuo/JW+eq1awQVhr8GMV3Evu+XvuXx3buOPV+SSpxiNZofRTOBiBLRA/ZDdWP/bW95U0fPpKYcNSzO/NtdY+0d0rq3vEUZenKV4jdz702Z7Wp3gZ4ZZI5Osr+U74jiTTkR0KDBSYVThqd1FPQDDVbewCFSwhhUB0dGQ4amSQdHcPjj8DtwBnEY7GrlA8h15kDuCBgsoAcUDUDIMmBbzUR13TIw6SiCkETl8kfNe+Wnw+nztnfnTr63G8L4sz+2IsiO2FNCqQiCfEiRROZ7WTniSg/MWr4ZSx4hUL+49H0rqSpItnA5Gnds9TZe63X+djbFPWXj7Hr37jQbn7hj+x6fUIC/K2HOjhiDt5PaAw6VRcwqayjDUBAi80QI4F4JmrpmAgkmiTlwLNkD/KWAYHRuWplc6iwlMAMZA8vF0l2JdRjAY4yESghQrS7Ws2U7e6UXr/kArP/Hxf0FoqsfsfZ1yrTF14mlZ9/hZ7b+eBiayk3UarBs5aN9VAglUXv9X59TPPnJz1AdVrAhSPnReqohUUkodgSq3z8r6yZP/ww8gcf1YWUUDMHWcVmzvb2bhP2f/nVnYVvvNzr/PRJBCmV9SIYDpA4bG4WsoclDoaA2krCDnTkxbEAFCDrkMcrDwDo6TU8UiuRqLwHGBT7JpUwxznkUMP7QFyT6pqbyL90AC5AIBSqMDI/qIYPApIKaia7AL6bbnFeyb/oOm36zReZuWdfm58m6FA24lAgFUno2bZEnjsZTVzC1FHEFDkTUt0Y0XEk2DepbAxxiHKoj0WAnjahNj6/xudvmx33/cx4cAerX/0iqfPVN0rN7z5DpnIgUCIlqQgmIpuPCiDzACWvSC5ATZWBqjEpM2TEcB2yQcFYxMUc5Er/Q/gE0tFFYrIgQyKiGoFMXmz64PqkCrtg2D7+rhfVqmV98Xxn1xfOZ6zQ7d364huEyku/rm170eWCdvSDh5qWm+H+qSz45t6fnWr/+qm3aVqVl4sYNRSEJ0gnU8QGU6f/+c/lnW/92GYg3KGco4kCWt7c986xWpf9kdH56ssFp4/CkRYvdkXFjqnSnA0G8UjVBNP45UVIED4yHiLiWA+qLNXlIRQOL9ZDftbBsTmgcWwwt4P6Pwiq4JguB6xLCmKfUF075ixil4hHAlSgwAFEoREqQykrtZ5t6fNG9ZXflopnX65NPfdHYj7fKfCuk9kYpkC8FkgRaUfSDOkGg7KFo0+ybXj+SBoShhSSMOItHtWHqTnB03aee1Vry8ffpDx+tuTuvPx5RvmNl/XdmbbRr6OYFaqNo6ary+1xiiPCa8q9pwdr+VxdhW3Je3cAxSNYfkYHYVqZiq0R9Y5Rsw7Bzz6Kbs3BQ2tCutaYLm2BRxXqqLGfTWko4ozqdRKvRId6PmBoGWXVJdbJyULz6KLzz29Rdr/4CueW4/c5d/3hl4zGj89CZk0q626zLopU1FHk0cHMANgKDBZmE1LOHULI3DGDRZHtkjFW0rapKqmsNK5utK1r8hqKc9j3n8AWvvPS/tylr3NaP3miDUwr+bvIShwegUMMpAfdTdiWVJ3OrwVE6VU2vNoWhfdVxCUR7tCosjmAAqJTh0RFESwcJytTrN+FdxYbLtWlEyCFKXHZpbxIuhYBNdplrIEepGW3IC1e+ipv7jOvQnsQOHee/4Nc7cJL6srZ35JlzUBLhH65XKWqWo+6kQoTkkSjkvS8aFIIScklTnEu8otmTLj+9VcpHnCI3IOr/AMk38dM09Schy95LTP/+xVW85vn5rApUskctMlBfiIFM6h3B3mxob7CoUOlPDSU4wDiBxKPNkdqO0cV8EirJYhO0a/DSpsrnU2qKhq1UmEsaj1AtqNI752Xlx28ea59QpXFD5tKWqLyAK9e177mrF77R2flkJ7lKDt327lzv9986Otf0ypPvUHOb90vKbjwo2SkohYQM3HGijBoR+bSkBwD2UiMApBorqblemb1vM+yHV98qfjY+XL/mP86v1m98Gt1TzYddwnSbx4yD8F+1MBB2VRYeGDGDjiO/JuUoCy10bwH7wb5jDrVx3FanDEFtQu1EzxpDpq6rrA1+bv3M5kf8TwHQlKcaRGA0bZ1XHF+h9z9t9d5D73s6527nvjr9j0Xfs2c/crveda+bZ595DvqUln5FKzv3vnE+xHlDXXMQHcZhCiQ+lP96PvcbX/0oUd7iCIxTlxxIdProRR6zm00FyqsdcOZZuvql6mtf3qLhTbkOQgoCDJERgrwiJao/Bt+gg87UDcpkRF2nk2JyFQPCM18PKiwNjyoMsHpBkHe4Ha8M9aKvx2sC/tSkuxUHWJWQGV0CoFQGWgTjG6hBi0H+JAUFrbtylV+/9vlHW/4V6H0pF+kRZtDed1UmNBt3X3c0s+pvZgOaNVoFznFuQgxI7gLSBf/2N8gTvh3kxPVR3WccKMWxHx9CQIODNC9+/iy8+PzerOXvCEn3nwyAo3MQOhdkLfCyTIL5pvmHmygvwGrA1wOWFaRqgVQfVVxqEL5wZw2+G20RqQit9JCHBLpHQh7QKmFFqpC1SVsLcHzbDBn313kEU7HkY1y4a3/qWx9yRfY5DN/Mmf1JNXIN6u1YpjVs1EkXdd90mLC4wFbu1fTaqzPEdprDw/lGogJJdZAsP6j7wNs7UMZE67rXY51EspxCHCooDze/LS3eNWL7KXPv72zeOWTXNiOhLqR2LSrKg3ATSsA0uyHhoOej9Rezgo2WbLrB7zA1dBgaa3GhBQ28b/vg/EIp0MfAqKTCUn5kSRxPUDuJMDnHLtEuZPYAxxLVvdpBiHqtLwnyzsfqFde91mxcPY3ndxpdwmS7W0rFzcdWCAVJoQ6elzjlsffJ8KQD/OOcgA3XrIIgDIkIWFHSR2NZlCOteyyk8MoMD+7VFXtK89li994I2t88VyhC1YpEtZ3O5gSuY0GHDyoas4b5Aya5vjXDOxBWl6rv0pC9tAgILpIhbG4TyDo9cHzPnjj15zTAF4W9dBRw9VDInNORvEweGhdA9/Dz0MYPslBYrNTabLKi79XOu6t/+QWnn69LFCMZXOMdJiwe8+x3dufcD+Bj8l1PWqQ/9TgWQCoZD3xsb8hJgSAe1OrF5vj1Ueb5fw+dO0o9FDWw1Nz/e8/T9/9o1d5vc++soPsjJ4usxxii3780e9URSPoPULwOZ/ZfEak4w7YigOnDdK+EF6kzlp+PxD8H9RS2Jv0k4IllLalaohRAl6HprIe7EUVKrALuB25bASIRaEATy/dC3WKJDC1hJKSYul5N6qTF3yeVc7/YrNreZagdaYma4clY6bChK19N51q3XNGJMQMMWGAmNG3/Mt7lGPe9g/Rlkd21KGgwLxpKW4b9eQ61zxT7F2Dwlf/9C4wF9zhPiP6TEaM50vDlUzoH7OM4PGoUhVXeakBD+VAIsZImi3i+SLikQAyQspBWkLaltA7xOpiwwY+CM3ymA2ggQjvkQCwuQDnkpIDpgfn2F7OtcwlUaOufIQ5yD/uwcL0q77CSi+9lBWecosgE7z98BmpMGF990+fLD/87F+QJKSGnWGSkJiQbMLc1k/9T/XYP/77w4c82UzWokCj0RAQ49X7as6blOYmlfYPn9958LN/7PaveSpVgYM5BxWyiArmyNBAezmON0WtHd5uDkwDDADqCgHJA28sUwEMwN+pHYdhGyhMDmY00a4Otc0dMJXP0ziWcryISammK2+JjrZ5o7ywXCrngcrrCgJCMpRVZ0nVplc46xq5+KrL5Pyzr2xrO+a21A5t4nIqwXrshi65qYMg/KilzNuK0YcTLEPMbBa2r1QqpGMG6Uu7Da97KdS/LygOuuHMX3NWe/fFf6qbV58temU/0RjtBCRTR68O6gVJqVdgUhvqJermoMUruAMAgf4M1E+gd6gNAZKa+0iFk6H2Uj10ajknEFIHkU0HSc8WVTMHY8qo4D5qdIQlQUUlAVWEpxcAPJm1ynb36y+2Ol9/MaAIjlZ61Tcbi8ZrLLdhTk3NHBJfRCpMGGRCoOBTaBYFoTQoH442NMpD3CyLMJvnwRTQhHxQNZ28k5c3F1pXo6S/1Gt+90V26xsXap1vv1SDNBIQEmnDfnOQCiXmYLuhGp1fxRyvXpuHn4XKfQCjahcBSO/B8UOZG9RDkrpI+sOBnWnibzbsRZkFBfBWfyPYArCusMboQ63vBFQvgNRVAFMW4ZbvFL758vadWqf42B88D1f44aF4r6ksemJCw4BqYYRXs5eRsErMKsNNCphb5pA5FKsghXuWJ0vd4gQKR00/53J27MWvEZ+wKIqn/OoxwtF/+feeunVBQE6iaqCwsTMHRmyjdAckook6tUIbXZuhnkpzyO53sImbiCHCbwDGRYYcz/ynDsu6sACpGl50nGKNvAEstVugMiGA0ho6WhvkXdZBeNHqiWw7yr/avzz7B3bzq69MgRShl0zFJvQ6vzqmf9eTHiDETFg+YYCYIe+oWPvo/8t2vOX9lXLWhSj0zW3SA+baFkqwGjndvH+b27rlGXrj39/bdW4+hZAypA1p4tGOpDYkD0gcKudBqcUOpVmBiRzexwPWIAL7FFekjA0jZN82oQpT0Q8J5T94wISbSdSP0tc8c1CJl6DabkFdrvlWh0knffy9U8f82Uc2krypqKOUVOpLQYj8kPIWJAl5aTbKhIEkLGUMuJHvf8PvNV2EHoqaXvj85uHFPbvLJ77u815v31bWuuqF5tx3Lui3v/3C1kITfRwRJdQhGdtU7h/5ioDSCYDOeSolG/dQRIzCFYR2DalgDucglfCQGEJgHA5H7Ed4PHTRQv6loM6xQl9nrVKZ1VDOo/XQn314Ye+/1ye3venijSJOOkw4gEuoSKMJae/HkftERt5rHjbhUr0pZMH6jXr9h/Y+R09s544dIbeVCih/pusZXyzbrlTcd/2ZzvyX3m51L3n5UhlxQKihvLOyBYmGolYiiho7CFNQbDAsTUd1FsGE5PzDUke5FQ/nE4bLpnxIhDUElIekhGR09mFLaoHN2BZrPPCm/zu7+7brZnY88c6NoFAqNmFQtSlKJoVfF8V3zGTe0Y145YfvPfKCZgpKrtesPema+mM+8Kb6KXOFwsR1T9eq771IKGyfdwQI0F6TyR34EUzIM3Ex9GE8AQ174IzpwavawaeHEpyU7CyDiXMAChTkHOsjQiHJZVZE4L8vV+GRhRNo9sm31JfmUPA1/ZEOE3qWosCrZVvhHt8glEHJpfh3OvNJn47ZHRKkQK046cwUp+s7qvluu3L8zWzb+/7n5BPvn64+9aGjpJP++U961SdeD7cf07vAmqIUD/pGIoEY8WiEPgRUBXARY6SeHCqYSwH7cVwyOX6QDUKlq/ImgvgQh005jzo5fV68CjlcgMGVEa/soi8A8irZDjv3m7+9KMHHWvNSqSx6BHJrFsQ9eT3DRiAJFexK+Xy+m6miYRR7dH2/vbrNqRX9osOCvHO3vu1PPiXvvOK33ROuP9E8+fIXO/oLr3I1FDg255lsQvXszbhivg2J5rEFlE0xUDzZE46FS7TMSpBwzXqBdQpUE9JjM906rkrIHiqQBRuRJ1JSALOGLJK+3mZfuLC1cPtJaVM8FZsQoQaHMIEi4QZh840a5HK2eWY9grVZnDDt931EXL9YyxO33Esfz9tzEzOqLWbefJq39L2Xt+c/+G6xi5A+HDg5GY1z2H2AvqFZK0pvdIw6m55BwWSboodd1qFekUDdkLOGD6oQgA9jFLvsQG1dFIT5L/8h/vDeNAmXiiTEhD0TFaM7ndGBVHowkpZ+Zj02J4lXHcpGRoHIFBCE7fsFPd8Vys+5ztz51+8pn+4K7nHXn+7l/+pTzCx0lijRAiqm26d6R0XWNVEzFVA6C7FJa4JMPqo0B0ELQLgLtA5hVxWlC+icwhRLZ8bcp94+N7+nGnlC6zgwFSakYL0C/btYRCpTyKBiUBw1Q3VMMkkYRq7s+xEU0AU056CRO/a29jFve9/8qXdPTB9zz/Gm9Nr/dNUlpqGtAJoJADInM8p1FdBxgHdVRpcsahtA6qgDT6zjoX4WwiCCsc0sSPN50bnj9DQJn4o6ShM24b3yqChQCJuTFJR5BW7uJQ335KRJjezaRwQFypPbSKNCOys+UGaFXeAt/uZ/7br38XdUXFGn6n6KRnhUKppMUHDU2aGaOdSCDlA4j1ACEppqSZ6KnHPmLl5/7sJi/cdINk8lFSoVSVgul5sqvKMj64wMKESSkNuFgCp1u918vdFKBcVzRKyu7CHWTQFh4sR7txx73W87xVwHxaMgG+BFRUcrSply4UHltamoTR2vfQxkDmX/IIlYyBVYwbruHDgMU8vYT4UJqaGBQ+27KO4QMqgsIklD8jDHqdIWdt3s+4wCKymgTj/tRqXwpVd0C3XWQVjD0dHCnPsjkKlPUDYHlcYRi3SEJoAAiCeiuWoHvxvta56CJZ2acEiFCQn5QgTgkLSQcSDlaXBc1osijGLZ9+NQoHj8ud+15NdeBug2K3UM3s7ddQGJI4OIuoghXCG6eT+1Dsfk0ClZshFXZK3RFcvGmFQqTBjYdig+G2lqPiP6kjArbRGJZNlBY1CgNvH7nyF/hY2GrGGDnIY8zQ7Ka9ix6/0+lQv73lE4XCJIQpo473EP7yhV7ibs6HofJjsvo0AUCmjls3/giMVW122FHu6bS8g5tgBcTWmkwoSIDxZteJ6iYEd9e1BCbEbIEDMpveRRl0Wj0aBwKHt4d6O81DTUhXlTaTb9nd/zOnnPQ4UljL7hiAYS+5aWGsX6YiO1RZk2GeSqahbLb/iKlA/X1ILwWavVomzjVEYqTIhdg3d4jjKoIxOpreQdzeKEUSiWzDGehfZqD3/9AvmWF93cvGHCav2ceRP7Kg35l5oh/lI1xbsl9JNBG/vrC53+dSXT+nHZs26QnO4toms88IyfuvOf/Jvm/bc8obPQD8cmJjPlxK7iWfWcKT7nB06E9jMkCQlIAi9+ah3DUmFCoGBMCZWz6AHCBqU70UdGcZ8MMRNGrWS+99o3PGvPrYLd3Peyy5bMa0+isi+OMckAl0Q2QQmFdam2J4LZKE9PdpOhe8BbIis9j56Ebs3Wursepy6+/33K7Gm3L82/89Ner15LZmYbcxVBqfZMWbQ1qkYVMvxeKdTwFmn+KY1UVAqyCR0ei8G8qT3WiEFxQhsPKmdx+pRe8fJl681debY4f9Keu558zZZ+TjTlSbQ9gwYCCJeK7HIFLnmrg3eBRsEqmjyZZg8NYY6Gsd5Azl2HKUg9QG1DmXLwqC6MiYagWuvi1zYeatW8fv31gl4Nzy1K/Smj3cBzugUxqBg+4hSenI7joKWl5qtIhQnpmUgIKsjdstBTYNSIEtCPRtbsqDAKIC1gsr//zJ9sdabEZn4ejjCkAwHITDV3Ka4ry3DRq6jbSesN5SUk5N1Nm/sAsEdRJWqLhrKFyEvw+xniBQuIpU21ptmsfel5zcK2D+D+fxw2h8Ple8VRDQ9QtbDBtTRgT7FOU2PCcH0xbJarfF8sVoGbRYFWK6iIN/oigdra6/Vyi0uNVOa0jsc44k7R5i5+tyj3dRMZ5lJvGvl2QCuh5wM4D3l4yFan1tm8oxIV6PXL27fRs74PT7ctQRoICG4T1pL6Gg4EQxf9KBSlyoT7L3pb7+GfPWWzEK1Q1dtWhHQBF9Kf2n9P1KaRlJjOSGXBU7yPGIt2kbARNAmN6sgJu172/doU6HlfepXbrYKZZrlHOgqiKZSeqPuCC/LDjP7Nzw49/jA5gEymKLKNDqK1CVptLscMeTlNE4pLhJKHB5pG+u8xNZF/mLz7QzYNz9u9tdP/1Q4BCijl0EkyCsmHowpD50uV0CTU8CTMpd2/9qzQEw6fA5CMH85XwfpMsxxnKpJQVFBaFR6lKN5RH7tHx3JvKnpTZh6aVNapt1ADPBJOF9KqkDXAu6mEx8nC5uIi/QBvDZAvykV74DGzc0BEb4IBdxTmGb4LBbHuTceEno1mZ2CsKOUtKE7ofwg1g/YffHVkI2kKWB3F0mizE/JYfsBMonqZxPvJjzm4mx+LGTyoiaqnau3UMJZjzvSg0+GVR4fw8OcPJCHWaLjYXOcEU/GOttvtog2r1y+oPZqnArtRgedNLRS6ctYWbZ2vcvRpvZYlIrbAMwWASIYTpg+wMhpxjnk3WUTmAVofobQnCilV5gu5JDh7zElFOB1MqEZBGQRMCKdhKrxCU01FdSARTupoFMuX4oS+JKTsejIuspEGBZAtXqL+gB6koIsK1iIKHQkJ+BoklIPwUF6eOiQhY92SxVwEHEoaTxjvmmj7S7nkocP3FlOSOkq4pTRSYULYeQ6po8RgYSOwCbO6o2GUGu979IKnvHFcBO+EhxpKCE+Mzy8eegd6CGdoKKSE8oE5QULUfxMM2vBDapDxpyAPchRmHeeRU2HCgW0XyTEThCjoITKnzDivcvS5iAea1J+PWlCTAuQC7RLWyjzKbGwqT8JQQAn1P/UUUSVR5hLnGE3LdaOGxQZpdnEuH+vYVJgwToa8j80jD2kE3SDWo2UHD1OAylAGO3pQ6zVKlksYFWkT5Z2SeI0WcpFujkGOGcrcCRuBSZVmYepUmLBUKrUplzCKTeiniqDgzqDGTJZPGLYs1ve9ruu8qe1wgD7K+wm7mx9e8pcR4sJqc8lPezrcB+gRXo9z6CGq1SoqP6UzUmFCCjP0+ybr98NtDj+XkGqP+upomkDZdEi4Oa6KTREx2OW5+kiQcX2jPMWHb6J0bdyDYlObQhrCK9+nioBhg+gEv2GqLRpSYUI8mKACCAyJGPaM/CX6Fdf4g9IyCdcRQq+aHbCSAoRiIkYZllxJMCFaF/Brkg8OHkQpzby7JN8qpHZO08KXvx/v5htMaptLKm5Xkmi0O3JJiGS1UYOkIPoSImaFnRm7aJrIhCRf4ma7VuD0IsajILUIpEsS6ii9Yw8Bew2vGdIFSCnEPjbBIA9+lE2IS3m/9Eo4x67zudO5MKqoEnNFga2RjRIgZkgSpmkAr5NGqZ+2uIAkPozFhdYj4qSeNx+eeRphhrSIeG1NzoSUIQFGjJB0HXZpMieGQM4CJGEqG3vYPNbzPaVvhY3A6URMG3bser9PhWDtZjNvGSZKjeepomrooJeIdnFMz+V6Sq2S2sOGTiTlAxb2/voY2X3oRLvzqycqXmNKdh3EtmFDtS4SjAf/zjMW/z7fvvd/u4bR1weSy374wSt/YfXu+JmsnfhrJNOuG+yJwso5AjAplD1BOj80DzcBm5Denc/UgK1pmlWe2hzBeiBgSsjOQgrX6JfONyocV6/XqcYM6uMnP1Jhwp7Y1ydhI3TyyDtDSXGOOsDc/Y2XXNr4NxJCqQdAS2yxCjK1KffXcBKAcCRPo0Su2Hzwx891dz35W7luJ2+raFYpGNSdixn1g1cB7UDDL2Wq6bD6XoFN6o+7z1u4/ZXC5Km/WM+ESMvgXclJvUIpEddBEBo/x+VDX1LAE45n2UyIJ1Xs5d2Qqg9E56EQxXrIHumcVNRRiWl9V0fONkrKSWhTjAodkIiUCEpJo77fxYUAsFmfldCo0XM0oC3AmHlLcr1WKhtDJGqkdJBx/xff4C389lWuJejd3NEdCza+6iARlk0DRI26LiM+lllCEHyGzVr3H7P//jOusx6+/JXrmaYfGzx4USWRTxhcI21UyXqeedQ5cMzoUWxCugbVS9p0+YQMSWYtVC1WxGnuBFjuxksNNygwD8ak8gjAHBpdDwy4mymU4O2WG6JQCse6Jf1GUrxeZ8/V59qd13w6N6dIumyJpmQWHEFBq2fUc5FQkoUy20d8NGrtXABAWjWliuHljN2vvMTr3n9i3CmTJBzOHwwC9nGvs/J4sgmHizePe70NPB+1ccNDmuSvGKzhVAQWPW86F7Ykp1Y5yhD7+yHy/BgSIWJ80Q71izqjwjvHhWLeQDPHPCs5FWZ2GpUNfAmp38pzGhVn9pxv9xsFwZlE3ztWZloP2QtWmTkq2nCZk9Qdb+QHBYnYQqvF8t4WHFlmQtPQ5u9+zWfjTt73Bvpn+aDkZCNBA6dPsheN+5AxjocQsA0jvMYM7Fy+fkG/1DCxqTDhxFTOmmvt0qqsCl4DE6Kgjoj0GQ5NA/O51AkHiaCeTaEJ7PRWkc3XG+DNXD0GHQ/7Qxfu/c55+YYgku3RcI5mBvre6aQSyvuZaaO6mUoFhEhFXPsjiTtYWUNzErhkOmqb5atbmNf96TPd1t2Pi0MAIET6A0DEgSB9VHVs1H38QD1BD/0q1a26EV7TJM7EUzq2UCi0KJYdNvyauIxtOsQMy800euIx9xrqPJyjMveeUdcbyuQW+YbibyrkqVOcOlu0Z1nxmKfcrVb+x7+GEWUzfS9at5xhQM/WFTAcazIUr0YRMx3lHctMtMF5NvJfqezeiA8Bows4r2t3sJmprIniWWIRrS733vycOLSgnTwAIicpCZcdFxwSJ6QZT4vzvGHHErLHMMItH2xeviT0F24qIxVJKAi1+s7Tbj99Nqd3RLFkUUUvi7ykB9JoHOjBkI7wELpYWJ3aCb/Uj77hyU2zwxrG4qZRaUa9kXrdFmXvnpO7cPsqjg5GqnAmQmUX2MWQ/hLacbE6r1o26uOqdfRY77KqOgONQWYeMoW8PpUCufa34qyIwCYMpF9SNmEQayQGx78pPhy+suNMPKVj6fkVJXz5k03o9y5Mr+JD+CzWSQQhV24cfeLc9pw2sUuS8ngScofDAY8UbMfto7xCF4zZYZp64eePO/meU4WCam7ZUnIr2kSEyOI6J7WBp1Wrsiu7szsKKKRr2i1mCPugskGaQVtzLGCBvRKTFGonHiD1Vv8pk62czzGpvZfpNuwTpCLlUaKi51KZs+iD4o7D3lE6Mwl1dJmpfdjhZsH+knc0CvUCVTtNEEm4UhxlpmscI+RKTXx1fHvv9U+T91/2+rz34xcb5p4trPz4m6Ta736luPV3rhDkx9zL2L+NcZfopzbQBThfkCRFzvMFbHmGIjg9zejJhmOoAFCA/yVTQutzr1qoxFrkK2fRqluyt+clLZN7g/2YqGfrQPGBAeEddWlD4rCE0XuOB9lJ9ZhMFbVhcK4vwaDWU9nyGCNgFsLpCr7LnXb3sRNWVzJymos1xuNGORRxU9SIj7Dl0zFJhHPWmlSqTBjctLjtGTfi3/R5u2lbMmrJAtEPQ4m9Kwqxxj7Ga2OHNq84z2t+6inmg42Z+s/fsJ0Jer9/93t6tpjviVTbXUE9adFF9rlmuO7Mvv4DV92qKcf/pisc82Bhe3x7oFRV7NYdLxhb0yCmE1EbRiC1lfdxhFIPFdcz46UMUSty4ncFKWY2FfelWqERFmAY8Wl+DgL/A8SMWa7pyBY+/AfoUcS2GxofIEYlRRRdmRKBD65GmQ1hwuEbq/LG2Qxua6na3/fvf7pvt/L/mIu2mkOL5KpaZgqwSoa4yEy+XCSox9S3XIGjiFpBmtgdqYu5wNoCYHQT776oN/vgJ3Mzx+yJu7SSqBTAyyuAlQMHCGdKLAzsYt5isyVOlEuRHAakJhKqhTMy/RdgR8dkRL+IMBYq9IbNhJihpkVR3ifXHHwKj0mpte+24UwY5cGTOMZoL1Zbs2//jF7/wvnVzmM6nr6gCoUe61twCcEWFZ0ZND3Bgvbq0DUIzaNyZI9MZfBQg8UGIwLinGvNfeQvHeO2U5dmF19fm5mI1fCEnBThkajRT8vVvUGAjzMihQNQmW5Qyi4yqQ7KosCzofyvz8xjInWBwcR18ryrFsCjkRZ25EmneCDZrxbyCeGsHjmCgD5V5klrOmOrS2lNbJzrLs4aUu+hv/tbc88XzrftGrPUPYU+tLeeAWZTEKvTIA0BHXOtNjOsKjOp6BHQE5ZkAUjXh9MD+Y0CmBKOkylaYI3/Ok+tv/99trdEnpTIA8b/2CpM4MUMknBJMg6qEUhx+jkS7GplPmESdg7lE5I0pMoIlFkfmTiH+EDQUCkWw18PbTIc6+zX70xlHJFMqNk/f6rb/vt3TAk74NBAKATB7lzOQQF42EQ9rBOTQOUEZ9WYrLXhpQQ4XgKShddJAaQODMhtLxsBBYQF5OYkM+Y+/i7Buuu0OG8hifSXtQDEtCjiJJpS1vtKV04S3lE/IduvSJbE88ah7zjHgh5mtxtuvuZyuQHiKz1WSe/K41BozHPF7ufeCIAO7D4wUQ92HjEeYQXcEtTOKmxABM3BhND2cRBafvURx0T+sQ0UC5Q9LCZ0KYKN6AHZ0wfKR6k1mNKfNFv3f+KdrYUF5GeFD/KOhh8V7YjAIRNIxUF1c6taLES2UwC/6hOjkBQdjhVGm8HaRw1n6kNqoMZMP1y8jHvTBM4nxEyEVhSD+keMFYvFcI5d57yOSCZcmvuXN4nyDGuDEzW49j21xbpKF6lVLWaWlpirddHwssMKDtz/UhedwZDVgNRwERkfnEFdhDUR05Nwnqk5rIPUarlkq539X365iC6vUWlNdkfUY9c6bjWM53oQLxRIp3usVG/HnR9JQt/JwyUhtTpKTW0bd67D51NL9ygNYXyakRM1vcriie3WSRJo3GtB88RaQMNLOFmo7Qd1IuJ4+SEnBHnozYBFqL7N4KYHurfCUUN/UwG3E91JdKW12QTCfG1zfw1/DnfQeGRDjF/0iAAOB9AthLslhxEv0hSv3AJtCFwdjSw7o70FWsjk6Q/A4WnaTtFmFO0oXdT6iwitIFw2cvCk5YRptvKGR6QkHECoKNM72hsJOSpQBwfXjbzTx7HZ1prC8r39lTCo7xm7UHIgCYP7JAVbC6QyMTg5igjEnQjRU76I6zgogx+uqARV5NOErW0KgsV9H5oGlRJqEvVIRFwy7umPOJ4WGq+NOoizRbkgzpCAwE/EWxgw4vB943hG6TzQg9eYIZFF1/Mlql/xYJwxPDdidCqtOM71Nupc2zF1mbCjISEav1YSAAmU+pPSSO3CKc039LLzc/U88Ge8ASR5tsYd5HgIaqMScyOlJZJNWK6plqKMXxxoWGIFDhU0MyEnUiz+oQ2BXO3Du38S3tHl0Ak8z4iLFitwR2+CQRW4o2RR+CEhj3U6nUQ21NVIk5okXOrNqnavhO3DKExOVAlDSnhJzvSiILmL9aUycgvdvlvulHKLZWtBdSeOLrXGfX9kkwS1VBwo89RjfZxBKHrBIRuMkBMeo+SjqNdLovKYwCsRUQiAAvXLreZIEi402uJkBXlNEQavO4rjDjhm8BgEh0vCRvSlYbqxtAiPGOsQ2NSyqoK2IdTzwRI8V3K8hTRidqkxIdu35/Fl+8cv8Lrf+r3WTefwjBfj1hdyta5989me9MDvk1oELsGWVBTy/bbQbd3/19cWt7/m80x83B0M7ZwFQY+0wIafz0fy+4uNe7/GtKqpf6LgIPOBEkD8RRzZTCesdayVscrBfBFwoIyfDU8dkOiyceYxuCwQsgfD1gSw5biFnvimSqVKfJDzpmltB6ZSHbTjIz4cNXgIBsckYd+vdZ/EmXBxj6U4/Q++3+2e/l5jETE6uJ8MBMepnIdfMIfqXpLqgnAAjKwq3P+tWcYKKNbt1q8/s7777/6iuPW878vbLjsfk45dYm4YYxmZW0a8BbItkRo/sKNIikf3eFLwelzdzHd8HDzBgTQjd+e6HnGls2fcjSI4P4mQTFJzCbsOVGdLzaHBaQjQjr9/7v1dF6nDpsG/T5QJPXN2a+eeF35TbF79NAnZ410yahElLxdVVOPu8rKGNHRIF2oKKmGXMZBhbpZzrKuDUdUmK7S2MGP+v87e3a/u99pWTShGA9oGT+svUP83krrjqqPLNtmBrIPIbyMJdfTgt+gX7eVOFd/BEivoEHhWAbf2szIiLZHoB22W8AQ9EdBQqtO3UIxs9PORY4b476BGHtFJEunIxPTchbYrdG5762Vi++qn2coUs4HVpN7ohECxTGI47cDHAeNRYJzqzViQjhqSfAtdm6mmziytgwcusYmOlm/dObHfM+IFvGsTpR6lynE1YnxtEPP0OZprzpDmC4sL4Q02cPz8oqloYs6kcvNE5IMIjb/5I1xb5SBr3n6M5kCKqK8/oT6KE9UepOOBEOFaRRBcDxwqkVbJiIP8uqNUUp9R24NN0ZWpvtAW9JzWU+mFhgzS1ogJq+VoDrmw6632fWJMyNo3nWazG5/hoJ6mJ0DqUf2YdTtFDkyrai9d8qa4D3bA9klAhQhKxvuMyGcSyU6dmlCtpOqtrObRjKv64fgDDWGixMei0jxgZqINIWY2CX5UpLSrKNXWAlo5Xnqt3BNhwn31pijUv/QHrrtLFVmBO0McpA3KcUMrByQELQF/aq3ZT7wr6oIIjgvqaya12AKVlPtIIgR4aR6LdRsup/HjhMM4z+F7x7UH6figvEXUZ4hCd570OrTZbYacQpINCB+5+Xx41GHIJg9XW6IQbJVjEmFCAC1VofNfr0IaHpNVIKFR2MiSoYpSRbGxBsoP1G9+gmd3YwX8AmahRqXjDvKw+p2EabFFrz8poM0U4pThDRpDJjjMhHQoMZCv/sVzygSMx23KwS6VJDMSg5O0JUzmuDRP+3zSImieVM4wbASIoLDjxvk+ESbUVcnTzAe2iVTaXTL9cvfkrY63TvznOEgaMjbBLed4eWrEe+SUQX7bOLTh51KckF6W3zmK/ynSzkISAc6oWJvHapNdjVEGjBRpHsE1qW9goKaPTZQ1LkCqaJpFcpOad+BdjlKBO9j48P5TC78kwoTFnORwN76MjD0b3iRkIKhOHtXw11kriRhx8Omha9ji/O6pqC9gcaGZ4z1PwIlUM3LcQS+KYoWEQ6XLlcvlSNJtCrVWcE74VhthgsNSLJBkcSUONhItiJ8u23Hj+0cDSU0MTjmL1Uk9En0iPHZqh1RqRZuC9QRrDBsB7eF0Gl+tWuNmiTChLCo2irx7jgrPJpiQoVaLgiwEJ4GsFqmE2KIYvUsq7cTgGe4FRDGfMBqHfk/XWZaGoYcfdAAkcWIvbtjuooXhI2aakXdnksxxbNo4T+ozdZwzDv2xBCyI2p6Rnu+wl4Se6QmmaAhUkg8uGfhUUDQJKbMQSGNTu4vr2F50DCZ2LGUAoUokiyKwB4MitwgSRF5uqoaio2OO4cB6YA8OEmnJSxt5LhTDG9htiSb10vwC2mwmxEzQNDXs9QQ2YZox0EQkIeXsSbLF5F6RGjLxIrVd5PMp8UJ8q9JDA25TA7ghjFjB9wQvItQ7EY/swnFHsMjImUEouDgpLbzo+JjjIATQkLgh50KcMAVJzjQk4bKqnC6qZEwyPuJ0VJ+1okhvXpuUVyOIvvnGnWsyTDgUOQt27sCgjTuhlcdbFkeGRJ4nHUtFh2hxRM2cHjXHoLBSgMSJs/CT8D6uvEZgE5J3dKoavatxIAmD95JksN4P2G8uADehmWRqDx0ygk04zfL+kRf3qLn2epQm46slgWpCxyeBt9M0idKHOmHECr6fmq52ArUrSMiMeu5qxwU92ek76s7TbDYjSeUFvzvR2Pr4yk0tiFkS9jHOc8FJ1Rsk3h44LYlNYvidwwZWmkvxihLHeYakjq0vtkQ4zXpR1ycdVylVIqWwrWeOiTBhYPSvnEASL5kwpnEkIc2BYGvkHSWv5rjDh4z50KxBYaBIKiYvthsxsB91jsNezbhxQlLTh6eTlCSkjc5vj+ZnGqRpO0WlU9hxhOwhJrSscPATvXfD4C0Dxt5Q15pXIkwYlNML7LAgGDwsFcMIs9b31EMu7oKjWDYtDDhp1nvbA+cFO33gAYwKRaMFSZJh3AkEki/QLAL1OG5mPc8npIJFQ9pKVEkw6hmo7ihdk7QEhEHk5EHr41Lwkedjnojh9vO6Hv566NkoAyiOQy7ujBNhwmGjP/Am+hIpfKcJmzBlP1OgOey44e/JjqbFm5QkHEaZRC3fQDRJIk64klECWxeLI5bXKdjIgmdJCglCGx1teASQAL3tzYAdhSqPxG8RZWbCSeg7ZeKsvvjHJsKEwQsOdu0hl3X8Ga04g7Kf46o4gSRMwib01VA/n5B2e4xIagk5cOJK8NWINQwg5zdfp8MpcMkPM2ESmkpgM/N0H2w8VDZi7Jee8gWCdxNFE/A3Kz6h1FgxESYEENakhF1a9Ms2QjLeSRswgKWl6OXn60ttjTfbGTDPuO8zKJbrS1bGSqVSJBQMIWbiolpWm+uw+hjYp34RK1NdarUjbQh0XerKRIpJoKkkZRPSdfyNglpRaGZtKpeaA2PcdxmcD8QMmQqRIIV+wxtKTZuPlMK2njkmwoTksOD1XMCIfvY8xdSoHmW4uA+b9MCOiaPXIp3GV4Wpu9K4I1isRChKSvYLOUQbaLeGJrxw7NC5w6fEQBItxwlpR4YHmiC5HKGCa8d4PHJuBbV3AsZJwnE0nE+4GTIoll8DRbfDX6UfoogO3I+2Mg4+KhEm5LI6qF8ypEAn85LjhTpI7QrgSElkUQwyFpapFiN7AfkOMdhk9dc3rI5S0achld9FUm/4KhpcllTjIJXJf1/L2RTrWTjBOcsZGfwvgmul50UcZ54rz13Lo7/aPXxpGK+6XZy5JsaEJH2GF0kUfTvKRGWZxx4jLzZaCLTYBp2Lotxi5DG83ujADc8XLzXjizjS8BQGzEOLCNXWIqujZAcNS85hr2vEx1n1sMBeHqBxPBHSf5zrbdS55ECitRU2CDechINx1H3CZxE2S3zP0fl+BTD8xnPdEgnU060pRhNnF6LFRg6UpOKEdJ3gQ65q4sMIJOGHwEYaO5dqWZvwXxX0W05bkmxxJCEtukBJScozOkyHgSYUeVOISsO0jgP9XFpbYYOyZ+gdxBQEYZc96PtEmLDbtRSCigWqk4DU5aRedC4ns0qlEjngB8QM6ksRrNJj1Ftu3BFIQd8Zwlij0YhUW38e3Yk6nV6kDk6j5+hblJyeg8aetCnEDX8QYsbXVpY3yCS0FT9QT74AnnuptOrj92Qc952Fnd9YaqPmKCoa6eGRL8pJpW5d1Up1/JScNSaWCBOiGM6Bql+BmpPEC6Y5myiXGDcwTXhTUpOSiBMuS0FkhkASRn0uFLKysfAjbx5rLZxhuzqAsPGCTzDxwhbb8PeU4hUAuJPaIOn6wfyCEEVUMEOcuSd97OAdeoYR7jiknFRuS0eLTK1rqokwIcXxsObxPpYvRylNURfsqJmT3k6InJhPxxEzSXhng+v4Vcr8WFiUuZDNhvLpkY4Nu96w/TZsE4add7C66NuEwTtJyiYMvGCD9DEnLqY1zjMkdSyp8rSmoDGFXpJswk0RrA8QM8FOHTxZEsHgwTXDqTVEzsA7msT9hyXRwLsYySYcIEciHTtqJQSxwUB68U7CPvQs3KAZurDPdMn3olhmar/GTNRNKnT1p3yA7x0Nfz2+qh1r+cWeeSI7tShbit/XmyohkfMAYlHyK22POwZMEE6toRuBaBy2lpRXa1jlIg0syjOhyIfgSkiGHDnCH8vvRRGUryf1ifpSUHpXPC9ksOBIoi8H2MPvH/asKxYy2eKJrKmw+47zvZ8jSHHT8MIHHLrNmTVe1kqc+SVCMBSW7RAyPXDn0+IfeJTizGXVYwnpDmdIZAdH0JUpqfsHkyIbU5YFqjETyeNZqip2HK/uWoQKniNwqBBtA8RMHOICMZMb1IEJqrXFOX3NY5cZ2kfMlGvj28GJTGzERUqVvIMiXEVqwBo2iGGJbotLi5HXYNg1V36fCBMGkme1BRN3QiuPp4UfR/UiNTBAhiSBHaWNJchcMAw/WTjqINsj6rFrHbccDPfvO0Rjb7HZijyZlSaDjwQZ//UPl4PcDE6ZgM4oSclRXmHDpxOHQYYfHHaxNb4f/y3gwnDhonSCJwR4zSQB3OTpjNP9lTIufNVYTKTGDFVbIw9pkKUvIUUpKq2TyMYetrMDZ8pg4cdaFMGGEDh26BmSYEIKA9FGQZtl3LBJVDqmcRwJjijmkm+T8/BLeDxjnRNNhAnhweRFhwJPYqCOJlFeQte5IyKydRkkr9Ickqo7GsQKORQ2gjEfvAvcf+yaiwHjDaujAzpjs4nmqaX54FhpZT5hEjYz5RPSe6Y4MZ53/CzqdS7kuKdhrpG6qfv5hNxDH3nzjTuXRJgQ2e/c0zQcCA5Up7gTWnk8xQnjGPuYA3fF08KIWtx11ByHETOURRHHzksit27ZKXSw4KONKU6NmSDxevhZo3gHw94fbVD+pstpntpCDZtH3O81LYfM+mhnkV8iCdNirbslwoS0qwyro3SzYbUn2qOufhR6BlCNmch9Cqu1Yj+opUIxnnHHcPoQSULUmImEmGnVLXK9RbbZRs0zUEkDqejvzmj2EWNg2+d0CVKzktokh1OtoJpqTSCFYkzrkBzaWGoKupZvRwcgoitTpTo28CJVJhxWi1baMONSeQCFi7VZUFydFkcSWRSBJPKvxxdxZMaijWnc51/NETTQOmLZhIH9t1K9HXd+Qau1IN2HFJFxr5n2+aQpIUQhxNSUxn6XqTIh9Z4HsJhiRFwCBmsvjicxScInWW1teF4xHKNUxp/cQ2MvSHKjB4xDrQF81AvhP+O16qINIdb8I76QwO4PTOU0vYgRpxR6WG2y7IEBzSiIKkkmzC7VOYqneYROYuiAWBJmrQsHO37gPg8830kY/tixYtlhviqcnHc0UK39zSWeq3odcLtHkHh5Y/MF38BdHttGWencOsDYcVbLKscGvoCBCUDdjsIj4GPec9zTAeDGPA3dccL3SB+2FkvpiD29RJhwJUQryS1X19XY2FFN80ttJJFFETChD0TwoVlRqIwolERNWKIcG3bMsIofHBvHM0rnDHdlCuz1JBbX8NxICqbpRQyjU/Tvudom5nLhzlwfpCEzyz7Mk3o1XbFQdgFeSb9G5/LuOL4a3WqZrF6vR0YrBIgZIh76A0Z/L2scGcQ+yX4g5oaTKJKBXq6pFpxKY3sLhyVWwDQu6mxQbDbOw2FD4NDC4Q0yCSZcDp1Q403FKlbU8b1hcR5sHcdWamUXEk7tdMLLBQVht06nk8iGutp0Y73ItZ6XFlvwMoZfbBISMZeLF6MhtStAzERpAhn2Dv2+hP7HNOOpJUlk1vvVCvyyFtjmDkyXJCEy6yO/v0ByDjtmkgjWL6vr8VT1MLqn/T1pKmoEtgrWMN7l+BJljYdKVH8nKNDwTH2GHG/uA8hYZLSCr2oNlQaMAE0a9cJ5TqKjAongP0mcjSUJRwinIc9+GMRhwYiDKgZE3Fi7woE6QANQssAb54y/3ImZCaAXV0Ue/87rvwJlUdCeFrY6Ay87amGEG5DrnE7knXTU9f0qWweXfV/NjlnnHDnaI+q5AZPEYZZR1w7QMgeYOwZ6J4ng9Woq40CaxSpvMbwbrnT2RKVt2HFJhGTC7pHU95TkPGhrMPKSQX/KJFT3tW6UCBMSmoA+K19ukIYzDuGC4rJRr+EvUP/oKC7osOsOq2+DYyPLjiTU0YPn59vbA7tbiKOO0nUCzyqXXEmI6RXEiwMvDKN72t87joWS/eF3IafMQG0PE5rhF1vjiESYsFm3FHL3ojwukwUVvQpJN6FLR3jKkKmbpsMmJibqUZ+wNlHqk2+IIzlClY3wqwaLlaokSShvsbC4UAw/i4rFmoom5gwRzlSixEGEPuBgDX+v9BwBiJiXtaCETQz06LBR6CmyikTpZnReEFwPbPgozzLqGJqbz9SMen9slq5McrU4NStGwFIEjsZaNVqb9PXQMxEmxEvgXsBHSsLwRRY2aQLPrlzDYeccsH0SMHiCl+A/H79zJEk4NaFaSRXDXc2jGTVUEtCKjg8A3ElKwWWHnF8gNwkVPOz9jvs95b6S/Uox6LCR1GY16j6JMOGyLRAgZvBw0cJpYTTg38c1+IMUlaQWW6CSDgolhb85zHmxbku2PX6vvsAWWRlcJ/U/EvEGB/kmg+9YSooufHfkSa8HpkK1fSLb73Hmn+SxUEUlOBFFRQ0XEknSaq1nSIQJXc/mXlaacGBvJOWYoXJzcZNFg6piSWBHySYdTlylXTTKgsBLFhCnjBRTHHW9YSZcQeNI8wiuHSymwKYMrhXlWaIcM4AKbgrEDD2PafZ1Sr8KG2k6ZIJ7JxKiIJQENwEPPNNAbxu418MedNT3hJgRY6bIwJbm1dYsNI0flxEpPijg4TwPqHBKkYr4MLi/jBIKY6MFuDq04p4DRoq1gcIW5D3ruU4dLgAiPuXBh5EqGnWTWtcNEjoJSgFo56L2KGzkseEU408q1otc63aaxhEzA88dz/9LTO1pt81YXZkWF5o5Sjki5qOakeMOQspQrJAyQOlyqDETDrPATdGVqZ9EBe5hiRVoF2SnxsVoUhenIH66GrBivXQKJMWgfo1TnTz8a8wUijnHsk21H6FaUKBBtNrdCKH99VExESakFB8aQeGcJPVoXeeImchQKHIO8B0O/mcUN1ofVYbOCuJEhL6Jm56YRKfeYCorkUg+YqYZWZMJGqAk+W6CuflMPTapN+wCg0wPIUo39UCgYNNLSX9Y4TlfLxX89Br/7OG4WhL6NNmEGJFd8eQmTzKLIrAHD+TjxWiNpmrjp78Me5wDm3uQSBtr2VMML0jxWmlnrve9+xvvcsGouA60ce473rnUzNRUo2wcQQhmvPuNPjsRSUi1UWm5aa7KetIkIF4G8DPAXCuQRAK+4J9V+Ah/U2EcO64BZyqKKYl55nqQOCLSR/C74HYZObBku7YUlQhkn4pwxtPiSCJYHywyehmEsID/N/KOCJN07DGMABre1MgjHWeTI9RR4LAae1JDF1h2+ERvEZDk/ddzLcFD+3UF+QYR7EEYI8wQTObY/chaR9w5JcKEjtRRZ6d//8sOW2AFew+4RkNDzR4TMW8XpfFdQUZRfAEfqIlYCfShf9Pf+qrDCljWuZ7CLAOVu8QOqwCwXGA6Hr5itp0tiyhRFIFc/qPT4oTXi2ewJlFoaoBdHUj4eAstbhhhtZe3Un0MvJt0bWw4kTWEQBIOaytxmHithRVkzqRdFjDuwh51vCAXepbUzcleuJstyI2FfZ/Alrr6rBJhQlkoGiXv7CttCD8Z6mM3h7ow3jxj+WmmgH0UoGk0OKTQZIrpYMocvDj0U4ev0Qa6pi6X2VJpjgmFRaY5M6zXVVjLfJjp8qxa2fnGz1Ynt0auMUNdmZLMrB+GzRHMKWqNmYU6rzwWWWqutWiGQz3Dqj6lDVWLhchMSF2Zgto7wb2SsA+Ha8yQDdxcGj82miTDrXatfqOvinajltPC8wmhtkKjojbphch+ibjzT4QJ6aZy5fe/pDZzHUHZwty+xVrSFOt2Gsykmo3Q4CySgABv0Yd+p7+bUPEKHYEVLZHlewWmtqtMkXXmFtEeXNpuUBsY5agLPx33ochGTao/4fJOL3J1lIRtlPmQfZSEJBy+17BXM+61SWoOw0WTQoIEAHe6tm8KjF/SIwp9xzmm7eBd9v77rK4RnqaqqMhLVbiXfewNda05J8aE5elySz/5xmfU7Yc92RShUhZZHj59BZuNBK1JlLCRCOgXiI/HyFakf8MWBNNZyjzraSbrFKCiGiZT6w8yT+1qzcmP/pWgnHpHXIIH+YRw0sQ99RHHBzt94AGMChyg0hZJ1OEcRrgEquigKnisRUGlGlfWHU1CHaW6o0Qj0hLgQQYoGvbWYT5kdv+xcmfvFlsO71/Z68K/ETk6vL4HT4wJ6fb7pZ13Tjz5ziflNddseg8xsTcPRwvsQnwcd/njwdgVRB2MiReIR3S9KZcayCiWjiSvWeaV0E6l9Dd/yXa84RPreSxSH2jFJdGfMMCOBvVyotphJAmTqEi9klECWzeuxFmJmAlc7+uh7/A5tNHRpkBhKtDbphDRuNdM8/xGoyWxfV/8QxHICxXlNMOGrkNaeipVZws7dN3fJ+rx2T5RoRdwu9Od39pvfOYP7Yfe8w+s12QiT0gdJMSSlxT2ob+4BNYTbdiKqljqycyW9kndynlXepP/+LbJ7Sfcy9ifr+vBDvSiGBQBXtdFBidxSQhHka928ZhOJAnkA6bj4TtXmydn/qHLcCYkZETMQaUaA8QM31jwnyjhPYzJMmQzUxVIug5tPIP0rdScGDEf+xGH53r3n9xpffC9liwxsQNAU0izJRM+DlnJA1kT6bWva3qJMmEwAyk/tfRgu3nRxAlv+b+ScOdOvCi0cEC6C/CUtDgR+BShuki25YquJnpmr1HTtC37CrXT7q4q0EvZt9b1MHRSfamtO3cUmaxC708gZ85vB+0jgCi4myuVIum4hJjp3Hru2PTl8Ulqvuovcm6Q2qgx46FmzFKrLdVKxUieYwAX8mStKWAa4jtq9Mtb9445iC6+tsC7MlnlqfHxsmNOac3Tm14337nr7M+q2FBttcwkcrqE7KmUwlYpVTv1noFEtgRy81aZ3diLZK0nPqZYpt2QvJp3pUXU1a5rOi0NZiZELHYunfIax9vBRE9BSMWENLQYaSSiEb14k4xYlLlGfDRqlkmAHfU3AnxQkkLAM7nYz6I0NAloRKGbQEMQ0LzFpfxP/ByXD/1gNmK6oA3hZeO+a8AMsT2Lui08NIP4Mpy+041icWaRSa4tC/qYcnp5Np7dLTR++abPSY0bTlPFCtipxPpyhxUllS1ZS5hBGUJRwAfmEeswpWCzdrfCSlaXNUpv+nDP7kba7OI+Px2fqE24ngkkfY4LJyCBBgQ1FyOsvvYsJAAHaPGLQo5JVFJTiVFqg43fTms4nzEo+DRAzqCgVfTrk2p8wCTA4w5nU4zzDgJbeaB0CC65viMOr7NUFeevfKW1/+k3ync/6d7KrWf+Ur3lqL3NO3bea+79xus9GzuNDff5GGO2vqvgNeq15q9e8n1z4dKX6+pxcAsiPm0bTFDarNPvMl2BVGQ9vsmaiFOLaoW1WvDU5yzW1XGc/VtXbJ+aiYQZXs9UjzgmRGo/kwHMNaG42VYEhG4I1VzXgtSBPQjHkmBhM5SiJ0omX95imXkICxoHJkaScFhyDntd17NwgnPIJvRjmQPIYsQV5XVtqf7g335Ann/Fpersw4+X4D33KmVoLzsMsWHMuA+/+j+8nz/9drN935O9bi9ndKL1AAnm1WjVC4u9bl5r//TFe+/bsltvXf20krCV1bsNhJqKTNWbzLOA7sK+ih7fzO0iZU02wZhFZkLzcbGCBFdjZmGyx+ST7h6HRmHnxlYfwi54yL93kNFuYdPKCU5e0iTim3GGDPQPA7JCAGhHUkklxNYYcVAWhcGLSqx/BOpooLSg3UCQpeLF8URSmtHAF+bjPWFnjm8RDql7lMdNQCX0/Yv0tPVvXuD0PvEnjl5lUh6L3p6E88uCRBI0JU/eyBpbsG88Rbrr1J/X9VLdy7/t80uzd/+rIz3ublNoFIpyvlsuq49QVxtdbDYdSzV3fe4PvNa/vdmzf3rahDzBOsCoeZB85cIUs9pNmCk5phVtZuCnZ/YZkvHwbmF2sEnWt3axSmGGNXq7mFB6/z86hXa0Z4r04I886Ihjwq2VqY7xMzjrrLbkeohNSuOlMzmWDjXFYJYwz0xQq9FwhEolPLF3fqmvd+5/cXg0OPTF0TobFFTGEqVYuAwbDPEPUy/mIttMQMz0qc0lOWS8gUuUhylC7z/6AN9xpXAgQxcOtxaQQqUqOdfWHvsX+lr9oeP/gfU9lrcRHFY7zJIoZgzmwzM6IsWQdfjMp4FDbrMqOFVofPQd3b0feYdSQsvyyh991c0/86q9D36ht6W9/SGj2tc6Sr/g9vcdY97zu+dp9vfOll2ol9CRK7h+Ez8trcyRWlZ3DjS0mJzXgczqMBMOGkVEmlphibXxgkXYgwXEuCXkkLpwxcwc+1f/S9DSBSAccUxIr94uPe3nwtxtpyuAJUVoNzBylQmo7qRDZpB/RyifcStck6RwhcpXUZAtWvidyHJz9WkMpwlxtY//RyUqottedGWSmlS7mArNeKjFmgRkja4bzI+kLAECooAZBLlZVnp7tuX0o5jpdJnkTDMN2bWCUwAj7mcWzG4XThMm5gBD1lkH6oQIZhLVPtPMaWbPX/wKj138irJbYHWpz6SGw7hMxJtxsCF44hQ2mgos8gaz8pOsB7sPV2JyB9YgtTIolVjLQmiMKncRYIQcXQz/didwEQMhIIfNWQ+x8sT7LkqbAYmGETX4MbfLDT5dmXz3Ra5jMWNcDsS8LWRyYGX5gPP8G/9DcjuRVBOy2ZIK8K6BmokVLAxswuE0piQYMUjxGqSPuVH6JorwGNt9ze2ZLTixDdaTm4gXm6wrPwhIYx6M12OKl0MCQAEQSFRHYBUm55AUIEwxA1jjnleDA4XiyvheVpioTDJZ2sJUb4JpQgHHg5HgaKFqe0v2HHCfHea1bfxWZEIxz7qAVaoiMWARx+PvsAGNPjnzKHdVxRwazM5NtFjtb96zEUv3yGTC2gWXAL3REZXxBb0H1YhStUiyCervXlKcrkZSAZOqOhZgVwOEC4UDBlC6UGk8vIBWekfpuyRga8tM7duEUZxFglXqSgVDpNKYFVtjOVuFHIIskqqw2wzWN7eCjRTmFBcAKKAUsjqPRVoOQgnyEo4z4aSeALP1WKFXgmPFYyYkYgsSzIbKSVsmLEB8cG3oMWIb2kyhz5q49hLyy3S9i6QCip5hP7XQYwTBeFfqgrEXIEnJ9IAaWrn4bfktIZH8hDj0iGRCxL+84ik3PWMPa1i2uIRQBVQe2hehSeoqwehMaJXk9RSZg1bkFmxHqpkqOBrSzOAaoF0UnjJoV4gT6WxOZQuTT7jmuYYmwKKPNijJyKHVMXKEC1VADviOzjvs0tLicUcem4uFSiEG4ao6AtXLAfbw+4c97UpGDu4z6jzJUw2r+s5/k6wm68OPY2kGaIUNEyEgHY2s8iAzZyWjxGw4kCwYZwI0m6KKvBu8D4kgkEIfkXPYekhkJY8TOpBAqhGowUdkUX1WHjZBFNKSIDUNnRVwXg70M/Czj/q4REdVwRwMG4w+zWSvh05eBpOnPvBxo/qiL4c9e1LfH5FMyG2Vyim3n/i420/XPAR8ATnqIS5koKFEH/+WJeyPeOl5qCJSH2lWDgxxwJNEOF8EGOYu7A/L1DxBb7B91YZb1L77O0LumT/ZUdseOZ2lPCFjbcSz21Z7qcsS0K+aTb8TQwKzqQMxE1nUAzGTG9SBOVARL4lFtAIxY5dr4d7j6pRi146+6K31vGQSlk5tU/YogP16C06UNus5kG4IWUgKJKFbgSai8erhDsIGJjyoFlVJA6NJpKKEDKGPUITQAUKmi/Mtplk5SN8KGBJMSN2toNra6gQrum1WgKNIm3zV1wqP+et3lyYKqcUFV075iGVCzojFJ9yee/JiSTrh428Xa1se0qHWaO1ZpnfRrtzusIYDw11sMyG3j3WFOdaGqtKReswuLwCDdeKtBfEDH5zaum9b+QlPuzHsZa/2fZAQup5zg3MCJgzst2H7MIoTJLgOqYnEhEF+Ig9TJDDB4XKQXFojwB7peXNNedvOW88U3Tqz8xZrOgqyMLpQDeGNLtRZn7SWfhUTRp4pj9vBJoQjBm5hIH1IylFJvXDPtyzNQPWkvFYkC8h9hiAka8FX0MNcRamBd24y2d3PGnV4Skuv/2b15H+5MNL8Ezwo8k6a4D039FKilqdqT/+MIlT/Ake/sFCfL0IBEgjKKgNZLhn9fL52zGweuiOSzFBfUbOpNfL++R9ozXzXmshPR7IBV3soSrxNcjvl6BnA1jjzIO4XJ5MiAJNzpAxCFAhN8+tEKfEw6oVRI1YRZUlkgCQAHiW9PtIQUDUBB/6it3jvSZ2H//yTivGNF+TkY6A6wl7r1uDZhNSDKSFBbSSlmXoyYtsA41DBYQAEwEgO5U+FSEPPaeJtU1UHmhil1tFPrABI0p5bRgUHBZrRfuac+NpvFE/4j1ci0BnL1o70sCEHHfFMGDw/iBswU2MFTepDvx8AZ2+ZKowZXICz2+DZ9WMNv5jy8j4QqKPQSWMhZkgScgcT79FB8QQfED6ug5zyCS0EIG3Lo+dV8jG3rLpXvk8/7tKX2PUvvrm9/x0XFRe7sqjXWRf2H6riAMsJVAvsPxcqJdnyLoATHkIYFFQgfvHgehk1WvB4lhDqKOFZe1YdxgauAXBxDuZIDcH5Hubbyv2fD7iVd30IZVU2nAFp7o8aJhyLE9Z5clKpTEHfR15ynqKEPgiUEDORFw0lGa+UUkkE68nRQw4sEoSYjy0qEREzA5pum5wOHEyfWlzofLY1/76P6Iuf/WPVnWdd+1irJz8AGDxF+YDlpIwNOE9cl0CJtJlAPQWwftRQUTqlZ85xqVlQpuEHKOC6bUjCJYAvHJbf8bVXdsqnf7tWyYVn+K5zHYSddkTbhGEPn+b3jUUDnaqi40xHzSWw4+iYAXibEmitqGlMdB4gdH3iXW63DVInkooTBrYlVFO9udRfd5HciclCZ+qkj/5J93FXntosvuVzOeUhxRML8KupXB2l4igqJBh1/iJvNgyK0FdY7kHxAeSwqRdZ3RP7nd4DkKRNlt/6p58sPskW1aPP/2qtctQhY0B6gIwJQ1/jOg/wEJ9IIBAXFJoKsh6Gat7EUvyCjIvAsRN4Wtf5dAdOC1qt+WYqb5s+dtxjpnbaHfq2D/5R7/i5qZr8rk+pwuN+Y7E5eDJnwYwoIIbOyRzKp8yFTr+B+ip5O8emO3VYwbv1/paXfd05+cenqSd8+J2CPv5cQycQ4YDwrSTCRbJDHkkBBerOntLzr6j2rzwDRR1ROQ6u9Y7FdA1IEHj+LLjiGVQsD5UFfPxlAAELvJa8EQ5QPyqbyiEkYSBuBnQIlcsiRpS1k2+LQ3cOrvZ9EokOP7P+QPFn6gsZa3NYazKVySly3MBNzf5kYbFVqKi7t9iNK8/rzn/t97zWz86oCj3da0LC5ch5A2lCz0WwPDiuTIRnKS2J/LQqYo9u4Tk3Wvnzv5SbfsmXPbZ9T6UGgh5GI2PClF5GfmrGWZj9wTU5bNZaR2TtUh07t4x1Ms1aMhgQLnkRqA0duTSUY8QlFFYSMRjBQvnv8GIqyOIwEEwmgHMOdfh1Y4oBeYnLPPfbcaa+MveQX5+MxDGZcjmE4pe3QNUEgtPFAhKEPcfkBHBnjN2Hzyfp45muYNp3njhbv+lZlW5z0nE6FcNqTCC9UsznavM1/ejfMHn7/UyamGPVU35dr/clNI8FU/9p2K0OyfcZE6ZIdll48q2yd/p9D0/cfPy0dQzUIWAYvd1sCrVNbMS60N+YZw0g5x2ePp8fCBFDP7mdBaZUjAabQ6qPCq9g1drCFvK7WNN93lVl+VhalJHHcFemIEyBlNmoEYU17zNsr5IUjFoIK/LEVzkQGE8i0a/pg8x8LggV7F1kJ+cqVE7hEeOwknwrZ5cx4TirIeTcynRt0fV2PVf86VEP2FJLLMpd1m3V2P4t8PDVdVZCW0dHREk9qE/UVpujTyi9iFcv9ttkNwsKK5NTwi2yjrPI1CJzj3vslecKajx7BjV9FN7abUgn9aXYeATwETMkwVF0AHHRYkWNjCoa787+2ROTZb+Y+yYemWMm5ZcnCkc9fPTp950kgIF6LWzXW2HPLTmspqG+iYjANHLb6CMjZkUfFSYVfRR49IB4ZEVorh4gVp5ZZ4ieOaUTH3iMoMVjQHrEAFg97JhJAjFD1/alIZfeYyq3Kb+Mw/TyGRNuwIsRlON/45xw/9H1re/4pz68dCJwjK7VYXW7DnsQNUwGH+YgKI3CQo7ZGXy6zMijrqfQYsrO//PXO57VLwi5eGro0ONxX+0wbC2JEAVd3wcUxG9rvgGk3xS3yNTRDXpNtenjduFW75hftP7MMW96fMte2DpRmppjXi8PxoCW6HcJctDMkzChA1c/igPMzNZ2PvZ+AZVZGfuLRGY7zIiJXHBwkSQA60nOZ7NcK2PCDX5TUxO8Z+Htg89G3p2XPAxga1Q2MWndManwxEYS5XC4V6aOHg5vYQPmUKhVeC7kEvovqOSRZX14YsOzEMKmRvAYC2UnRCuPjIRmqTN7+HdlCnumjf4+Y8KNpvghup/rKDbVVyl4KAnh1OEmheprj+kaxbP0XIChgVN3i11WcsodN2ay8SEix2F124wJD6vXkd5kDLNZkLwyCio1EUqABESiLGG6xx0GECo5AxnuVMmt68qeHDGfcNwbH0HnZ0x4BL3MUY+Sy5d6Lko5yBakllVAeQ/UY+F1VsYb1OaO6sIIZhnVKbSeikSK8a746Ds7I9ij5J3L8s5dbfCfKKBuCzwyEqqbSQnYhEUFbc4LABYYMDmrZ/zYNTY0Vn9EvL2MCY+I1xj+EK0WANy51/9nU96D7HKkAkFgyfL4tYntDkDUfZQEQWLDxPGv+XR+CmWtsxGLAhkTxiLX5j24XJYdrfaXf2spM4aFiuIOihqZVqQubyMfuljQUaMFoY+JN1xqO1se3rwUOnQzz5jw0NF+w+/sFrc9WC698V/69gIrF1H8NoG33+3PMQ2g1InjP/oORT68UoQ2nMDrvGECr2Gdd85O23AKTJRqXaf2d+/OH/P//Y8lSTDywKP6rcWRYuWXsT8opYomKHttRDNQBRtYVgV2JAo58vqgFqqUGcoS21vafn/hqQ8cKyiTlPuXjXVQYPxA0Tpump1y6CngtfZPdusfeZ+0+6J3UvIwJVJRqWJC1fhgbL+OrumXH4cnFSUH0UBTVg3kDaFumfzMO3XhZV8Vtr71H4SZUuvQP9HmnUHGhJv33Y0987n5uqxKzSJyDYVSqUAV5GUCdVPuIYbTbKInIFKgBBGcJxu6KLbLlfLWBWbN1IUc6spnI6NARoGMAhkFMgpkFMgokFEgo0BGgYwCGQUyCmQUyCiQUSCjQEaBjAIZBTIKZBTIKJBRIKNARoGMAhkFMgpkFMgokFEgo0BGgYwCGQUyCmQUyCiQUSCjQEaBjAIZBTIKZBTIKJBRIKNAZAr8/70nEX75eBaHAAAAAElFTkSuQmCC;" vertex="1" parent="2CHrTwTyNXdwlfk9Nfen-9">
          <mxGeometry width="60" height="60" as="geometry" />
        </mxCell>
        <mxCell id="2CHrTwTyNXdwlfk9Nfen-7" value="Visualizar" style="text;strokeColor=none;align=center;fillColor=none;html=1;verticalAlign=middle;whiteSpace=wrap;rounded=0;" vertex="1" parent="2CHrTwTyNXdwlfk9Nfen-9">
          <mxGeometry y="50" width="60" height="30" as="geometry" />
        </mxCell>
        <mxCell id="2CHrTwTyNXdwlfk9Nfen-10" style="edgeStyle=orthogonalEdgeStyle;rounded=0;orthogonalLoop=1;jettySize=auto;html=1;entryX=0.5;entryY=1;entryDx=0;entryDy=0;" edge="1" parent="1" source="CdcvYIRpf1g7k5c3ap87-31" target="CdcvYIRpf1g7k5c3ap87-37">
          <mxGeometry relative="1" as="geometry" />
        </mxCell>
        <mxCell id="2CHrTwTyNXdwlfk9Nfen-12" style="edgeStyle=orthogonalEdgeStyle;rounded=0;orthogonalLoop=1;jettySize=auto;html=1;entryX=1;entryY=0.75;entryDx=0;entryDy=0;" edge="1" parent="1" source="CdcvYIRpf1g7k5c3ap87-48" target="2CHrTwTyNXdwlfk9Nfen-5">
          <mxGeometry relative="1" as="geometry">
            <mxPoint x="170" y="170" as="targetPoint" />
            <Array as="points">
              <mxPoint x="180" y="75" />
            </Array>
          </mxGeometry>
        </mxCell>
        <mxCell id="2CHrTwTyNXdwlfk9Nfen-14" value="" style="group" connectable="0" vertex="1" parent="1">
          <mxGeometry x="30" y="-250" width="60" height="86" as="geometry" />
        </mxCell>
        <mxCell id="2CHrTwTyNXdwlfk9Nfen-13" value="" style="image;sketch=0;aspect=fixed;html=1;points=[];align=center;fontSize=12;image=img/lib/mscae/Database_General.svg;" vertex="1" parent="2CHrTwTyNXdwlfk9Nfen-14">
          <mxGeometry x="11" width="38" height="50" as="geometry" />
        </mxCell>
        <mxCell id="CdcvYIRpf1g7k5c3ap87-37" value="Recopilar datos" style="text;strokeColor=none;align=center;fillColor=none;html=1;verticalAlign=middle;whiteSpace=wrap;rounded=0;" vertex="1" parent="2CHrTwTyNXdwlfk9Nfen-14">
          <mxGeometry y="56" width="60" height="30" as="geometry" />
        </mxCell>
      </root>
    </mxGraphModel>
  </diagram>
</mxfile>
